<svg xmlns="http://www.w3.org/2000/svg" xmlns:xlink="http://www.w3.org/1999/xlink" width="500" zoomAndPan="magnify" viewBox="0 0 375 474.749983" height="633" preserveAspectRatio="xMidYMid meet" version="1.0"><defs><clipPath id="548a5168d4"><path d="M 0.0976562 0 L 374.898438 0 L 374.898438 474.359375 L 0.0976562 474.359375 Z M 0.0976562 0 " clip-rule="nonzero"/></clipPath><clipPath id="c7b8a105db"><path d="M 23.335938 0 L 351.664062 0 C 364.496094 0 374.902344 10.402344 374.902344 23.238281 L 374.902344 450.777344 C 374.902344 463.609375 364.496094 474.015625 351.664062 474.015625 L 23.335938 474.015625 C 10.503906 474.015625 0.0976562 463.609375 0.0976562 450.777344 L 0.0976562 23.238281 C 0.0976562 10.402344 10.503906 0 23.335938 0 Z M 23.335938 0 " clip-rule="nonzero"/></clipPath><clipPath id="aaef322850"><path d="M 0.0976562 0 L 374.898438 0 L 374.898438 474.230469 L 0.0976562 474.230469 Z M 0.0976562 0 " clip-rule="nonzero"/></clipPath><clipPath id="9c0fe0583b"><path d="M 23.335938 0 L 351.664062 0 C 364.496094 0 374.902344 10.402344 374.902344 23.238281 L 374.902344 450.777344 C 374.902344 463.609375 364.496094 474.015625 351.664062 474.015625 L 23.335938 474.015625 C 10.503906 474.015625 0.0976562 463.609375 0.0976562 450.777344 L 0.0976562 23.238281 C 0.0976562 10.402344 10.503906 0 23.335938 0 Z M 23.335938 0 " clip-rule="nonzero"/></clipPath><clipPath id="33d9e4142e"><rect x="0" width="375" y="0" height="475"/></clipPath><clipPath id="aded3922b6"><path d="M 0.101562 0 L 374.898438 0 L 374.898438 473.75 L 0.101562 473.75 Z M 0.101562 0 " clip-rule="nonzero"/></clipPath><clipPath id="1971e72ba6"><path d="M 23.339844 0 L 351.660156 0 C 364.496094 0 374.898438 10.402344 374.898438 23.238281 L 374.898438 450.769531 C 374.898438 463.605469 364.496094 474.007812 351.660156 474.007812 L 23.339844 474.007812 C 10.503906 474.007812 0.101562 463.605469 0.101562 450.769531 L 0.101562 23.238281 C 0.101562 10.402344 10.503906 0 23.339844 0 Z M 23.339844 0 " clip-rule="nonzero"/></clipPath><clipPath id="a96d3b3627"><path d="M 62.933594 56.992188 L 312.1875 56.992188 L 312.1875 184.867188 L 62.933594 184.867188 Z M 62.933594 56.992188 " clip-rule="nonzero"/></clipPath><clipPath id="b1c1f4fec8"><path d="M 86.171875 56.992188 L 288.828125 56.992188 C 301.664062 56.992188 312.066406 67.394531 312.066406 80.230469 L 312.066406 161.628906 C 312.066406 174.460938 301.664062 184.867188 288.828125 184.867188 L 86.171875 184.867188 C 73.335938 184.867188 62.933594 174.460938 62.933594 161.628906 L 62.933594 80.230469 C 62.933594 67.394531 73.335938 56.992188 86.171875 56.992188 Z M 86.171875 56.992188 " clip-rule="nonzero"/></clipPath><clipPath id="53cc15829e"><path d="M 0.933594 0.992188 L 250.175781 0.992188 L 250.175781 128.867188 L 0.933594 128.867188 Z M 0.933594 0.992188 " clip-rule="nonzero"/></clipPath><clipPath id="c83b8878a2"><path d="M 24.171875 0.992188 L 226.828125 0.992188 C 239.664062 0.992188 250.066406 11.394531 250.066406 24.230469 L 250.066406 105.628906 C 250.066406 118.460938 239.664062 128.867188 226.828125 128.867188 L 24.171875 128.867188 C 11.335938 128.867188 0.933594 118.460938 0.933594 105.628906 L 0.933594 24.230469 C 0.933594 11.394531 11.335938 0.992188 24.171875 0.992188 Z M 24.171875 0.992188 " clip-rule="nonzero"/></clipPath><clipPath id="23a65a5aa0"><rect x="0" width="251" y="0" height="129"/></clipPath><clipPath id="14f65445fe"><path d="M 210.097656 215.730469 L 272.933594 215.730469 L 272.933594 328.882812 L 210.097656 328.882812 Z M 210.097656 215.730469 " clip-rule="nonzero"/></clipPath><clipPath id="8f8baa7de1"><path d="M 222.09375 215.730469 L 260.9375 215.730469 C 267.5625 215.730469 272.933594 221.101562 272.933594 227.726562 L 272.933594 316.839844 C 272.933594 323.464844 267.5625 328.835938 260.9375 328.835938 L 222.09375 328.835938 C 215.46875 328.835938 210.097656 323.464844 210.097656 316.839844 L 210.097656 227.726562 C 210.097656 221.101562 215.46875 215.730469 222.09375 215.730469 Z M 222.09375 215.730469 " clip-rule="nonzero"/></clipPath><clipPath id="a3f054feeb"><path d="M 0.0976562 0.730469 L 62.933594 0.730469 L 62.933594 113.867188 L 0.0976562 113.867188 Z M 0.0976562 0.730469 " clip-rule="nonzero"/></clipPath><clipPath id="0b19793ae2"><path d="M 12.09375 0.730469 L 50.9375 0.730469 C 57.5625 0.730469 62.933594 6.101562 62.933594 12.726562 L 62.933594 101.839844 C 62.933594 108.464844 57.5625 113.835938 50.9375 113.835938 L 12.09375 113.835938 C 5.46875 113.835938 0.0976562 108.464844 0.0976562 101.839844 L 0.0976562 12.726562 C 0.0976562 6.101562 5.46875 0.730469 12.09375 0.730469 Z M 12.09375 0.730469 " clip-rule="nonzero"/></clipPath><clipPath id="8c5814d1af"><rect x="0" width="63" y="0" height="114"/></clipPath><clipPath id="742fd3114e"><path d="M 0.0976562 243 L 306 243 L 306 459 L 0.0976562 459 Z M 0.0976562 243 " clip-rule="nonzero"/></clipPath><clipPath id="f475a098c3"><path d="M 94.351562 215.730469 L 157.183594 215.730469 L 157.183594 328.882812 L 94.351562 328.882812 Z M 94.351562 215.730469 " clip-rule="nonzero"/></clipPath><clipPath id="ea40e12a05"><path d="M 106.34375 215.730469 L 145.191406 215.730469 C 151.816406 215.730469 157.183594 221.101562 157.183594 227.726562 L 157.183594 316.839844 C 157.183594 323.464844 151.816406 328.835938 145.191406 328.835938 L 106.34375 328.835938 C 99.71875 328.835938 94.351562 323.464844 94.351562 316.839844 L 94.351562 227.726562 C 94.351562 221.101562 99.71875 215.730469 106.34375 215.730469 Z M 106.34375 215.730469 " clip-rule="nonzero"/></clipPath><clipPath id="5ba91e2ecc"><path d="M 0.351562 0.730469 L 63.183594 0.730469 L 63.183594 113.867188 L 0.351562 113.867188 Z M 0.351562 0.730469 " clip-rule="nonzero"/></clipPath><clipPath id="938dbc0cef"><path d="M 12.34375 0.730469 L 51.191406 0.730469 C 57.816406 0.730469 63.183594 6.101562 63.183594 12.726562 L 63.183594 101.839844 C 63.183594 108.464844 57.816406 113.835938 51.191406 113.835938 L 12.34375 113.835938 C 5.71875 113.835938 0.351562 108.464844 0.351562 101.839844 L 0.351562 12.726562 C 0.351562 6.101562 5.71875 0.730469 12.34375 0.730469 Z M 12.34375 0.730469 " clip-rule="nonzero"/></clipPath><clipPath id="edaef056bd"><rect x="0" width="64" y="0" height="114"/></clipPath><clipPath id="0590d152ee"><path d="M 107.027344 237.007812 L 144.507812 237.007812 L 144.507812 307.558594 L 107.027344 307.558594 Z M 107.027344 237.007812 " clip-rule="nonzero"/></clipPath><clipPath id="75b318b987"><path d="M 0.0273438 0.0078125 L 37.507812 0.0078125 L 37.507812 70.558594 L 0.0273438 70.558594 Z M 0.0273438 0.0078125 " clip-rule="nonzero"/></clipPath><clipPath id="26ffb33b31"><rect x="0" width="38" y="0" height="71"/></clipPath><clipPath id="f9594548f2"><path d="M 0.0976562 243 L 190 243 L 190 420 L 0.0976562 420 Z M 0.0976562 243 " clip-rule="nonzero"/></clipPath><clipPath id="58eb5c443e"><path d="M 222.777344 237.007812 L 260.253906 237.007812 L 260.253906 307.558594 L 222.777344 307.558594 Z M 222.777344 237.007812 " clip-rule="nonzero"/></clipPath><clipPath id="40794e73b3"><path d="M 0.777344 0.0078125 L 38.253906 0.0078125 L 38.253906 70.558594 L 0.777344 70.558594 Z M 0.777344 0.0078125 " clip-rule="nonzero"/></clipPath><clipPath id="c86eebee59"><rect x="0" width="39" y="0" height="71"/></clipPath></defs><g clip-path="url(#548a5168d4)"><g clip-path="url(#c7b8a105db)"><g transform="matrix(1, 0, 0, 1, 0.000000000000000014, 0)"><g clip-path="url(#33d9e4142e)"><g clip-path="url(#aaef322850)"><g clip-path="url(#9c0fe0583b)"><path fill="#d9d9d9" d="M 0.0976562 0 L 374.902344 0 L 374.902344 474.359375 L 0.0976562 474.359375 Z M 0.0976562 0 " fill-opacity="1" fill-rule="nonzero"/></g></g></g></g></g></g><g clip-path="url(#aded3922b6)"><g clip-path="url(#1971e72ba6)"><path stroke-linecap="butt" transform="matrix(0.749605, 0, 0, 0.749605, 0.101421, 0.00000000000008522)" fill="none" stroke-linejoin="miter" d="M 31.000882 -0.000000000000113687 L 468.991854 -0.000000000000113687 C 486.115451 -0.000000000000113687 499.992548 13.877096 499.992548 31.000694 L 499.992548 601.342584 C 499.992548 618.466181 486.115451 632.343278 468.991854 632.343278 L 31.000882 632.343278 C 13.877285 632.343278 0.000188335 618.466181 0.000188335 601.342584 L 0.000188335 31.000694 C 0.000188335 13.877096 13.877285 -0.000000000000113687 31.000882 -0.000000000000113687 Z M 31.000882 -0.000000000000113687 " stroke="#000000" stroke-width="40" stroke-opacity="1" stroke-miterlimit="4"/></g></g><g clip-path="url(#a96d3b3627)"><g clip-path="url(#b1c1f4fec8)"><g transform="matrix(1, 0, 0, 1, 62, 56)"><g clip-path="url(#23a65a5aa0)"><g clip-path="url(#53cc15829e)"><g clip-path="url(#c83b8878a2)"><path fill="#ffffff" d="M 0.933594 0.992188 L 250.1875 0.992188 L 250.1875 128.867188 L 0.933594 128.867188 Z M 0.933594 0.992188 " fill-opacity="1" fill-rule="nonzero"/></g></g></g></g></g></g><g clip-path="url(#14f65445fe)"><g clip-path="url(#8f8baa7de1)"><g transform="matrix(1, 0, 0, 1, 210, 215)"><g clip-path="url(#8c5814d1af)"><g clip-path="url(#a3f054feeb)"><g clip-path="url(#0b19793ae2)"><path fill="#737373" d="M 0.0976562 0.730469 L 62.933594 0.730469 L 62.933594 113.882812 L 0.0976562 113.882812 Z M 0.0976562 0.730469 " fill-opacity="1" fill-rule="nonzero"/></g></g></g></g></g></g><g clip-path="url(#742fd3114e)"><path stroke-linecap="butt" transform="matrix(0.749605, 0, 0, 0.749605, 62.93325, 307.558624)" fill="none" stroke-linejoin="miter" d="M 0.000458821 116.441463 L 214.233021 116.441463 C 227.489999 116.441463 238.235239 105.696223 238.235239 92.439245 L 238.235239 -0.0000397655 " stroke="#000000" stroke-width="15" stroke-opacity="1" stroke-miterlimit="4"/></g><g clip-path="url(#f475a098c3)"><g clip-path="url(#ea40e12a05)"><g transform="matrix(1, 0, 0, 1, 94, 215)"><g clip-path="url(#edaef056bd)"><g clip-path="url(#5ba91e2ecc)"><g clip-path="url(#938dbc0cef)"><path fill="#737373" d="M 0.351562 0.730469 L 63.183594 0.730469 L 63.183594 113.882812 L 0.351562 113.882812 Z M 0.351562 0.730469 " fill-opacity="1" fill-rule="nonzero"/></g></g></g></g></g></g><g clip-path="url(#0590d152ee)"><g transform="matrix(1, 0, 0, 1, 107, 237)"><g clip-path="url(#26ffb33b31)"><g clip-path="url(#75b318b987)"><path fill="#000000" d="M 0.0273438 0.0078125 L 37.507812 0.0078125 L 37.507812 70.574219 L 0.0273438 70.574219 Z M 0.0273438 0.0078125 " fill-opacity="1" fill-rule="nonzero"/></g></g></g></g><g clip-path="url(#f9594548f2)"><path stroke-linecap="butt" transform="matrix(0.749605, 0, 0, 0.749605, 62.93325, 307.558624)" fill="none" stroke-linejoin="miter" d="M 0.000458821 64.794484 L 59.823616 64.794484 C 73.080594 64.794484 83.825834 54.049245 83.825834 40.792266 L 83.825834 -0.0000397655 " stroke="#000000" stroke-width="15" stroke-opacity="1" stroke-miterlimit="4"/></g><g clip-path="url(#58eb5c443e)"><g transform="matrix(1, 0, 0, 1, 222, 237)"><g clip-path="url(#c86eebee59)"><g clip-path="url(#40794e73b3)"><path fill="#000000" d="M 0.777344 0.0078125 L 38.253906 0.0078125 L 38.253906 70.574219 L 0.777344 70.574219 Z M 0.777344 0.0078125 " fill-opacity="1" fill-rule="nonzero"/></g></g></g></g><path fill="#000000" d="M 62.933594 115.308594 L 96.664062 115.308594 L 96.664062 126.550781 L 62.933594 126.550781 M 107.910156 115.308594 L 141.640625 115.308594 L 141.640625 126.550781 L 107.910156 126.550781 M 152.886719 115.308594 L 186.617188 115.308594 L 186.617188 126.550781 L 152.886719 126.550781 M 197.863281 115.308594 L 231.59375 115.308594 L 231.59375 126.550781 L 197.863281 126.550781 M 242.839844 115.308594 L 276.570312 115.308594 L 276.570312 126.550781 L 242.839844 126.550781 M 287.816406 115.308594 L 312.066406 115.308594 L 312.066406 126.550781 L 287.816406 126.550781 " fill-opacity="1" fill-rule="nonzero"/></svg>