<svg xmlns="http://www.w3.org/2000/svg" xmlns:xlink="http://www.w3.org/1999/xlink" width="588" zoomAndPan="magnify" viewBox="0 0 440.88 474.749983" height="633" preserveAspectRatio="xMidYMid meet" version="1.0"><defs><clipPath id="8f7966dd6b"><path d="M 30.703125 0 L 405.503906 0 L 405.503906 474.359375 L 30.703125 474.359375 Z M 30.703125 0 " clip-rule="nonzero"/></clipPath><clipPath id="7fb253d43d"><path d="M 53.9375 0 L 382.265625 0 C 395.101562 0 405.503906 10.402344 405.503906 23.238281 L 405.503906 450.777344 C 405.503906 463.609375 395.101562 474.015625 382.265625 474.015625 L 53.9375 474.015625 C 41.105469 474.015625 30.703125 463.609375 30.703125 450.777344 L 30.703125 23.238281 C 30.703125 10.402344 41.105469 0 53.9375 0 Z M 53.9375 0 " clip-rule="nonzero"/></clipPath><clipPath id="d5721313fe"><path d="M 0.703125 0 L 375.503906 0 L 375.503906 474.230469 L 0.703125 474.230469 Z M 0.703125 0 " clip-rule="nonzero"/></clipPath><clipPath id="5d305e98fc"><path d="M 23.9375 0 L 352.265625 0 C 365.101562 0 375.503906 10.402344 375.503906 23.238281 L 375.503906 450.777344 C 375.503906 463.609375 365.101562 474.015625 352.265625 474.015625 L 23.9375 474.015625 C 11.105469 474.015625 0.703125 463.609375 0.703125 450.777344 L 0.703125 23.238281 C 0.703125 10.402344 11.105469 0 23.9375 0 Z M 23.9375 0 " clip-rule="nonzero"/></clipPath><clipPath id="0883645999"><rect x="0" width="376" y="0" height="475"/></clipPath><clipPath id="36e82f0533"><path d="M 30.703125 0 L 405.503906 0 L 405.503906 473.75 L 30.703125 473.75 Z M 30.703125 0 " clip-rule="nonzero"/></clipPath><clipPath id="3ef37ef43b"><path d="M 53.941406 0 L 382.265625 0 C 395.097656 0 405.5 10.402344 405.5 23.238281 L 405.5 450.769531 C 405.5 463.605469 395.097656 474.007812 382.265625 474.007812 L 53.941406 474.007812 C 41.109375 474.007812 30.703125 463.605469 30.703125 450.769531 L 30.703125 23.238281 C 30.703125 10.402344 41.109375 0 53.941406 0 Z M 53.941406 0 " clip-rule="nonzero"/></clipPath><clipPath id="f26208cd3f"><path d="M 93.535156 56.992188 L 342.789062 56.992188 L 342.789062 184.867188 L 93.535156 184.867188 Z M 93.535156 56.992188 " clip-rule="nonzero"/></clipPath><clipPath id="44d6f57b1f"><path d="M 116.773438 56.992188 L 319.433594 56.992188 C 332.265625 56.992188 342.667969 67.394531 342.667969 80.230469 L 342.667969 161.628906 C 342.667969 174.460938 332.265625 184.867188 319.433594 184.867188 L 116.773438 184.867188 C 103.941406 184.867188 93.535156 174.460938 93.535156 161.628906 L 93.535156 80.230469 C 93.535156 67.394531 103.941406 56.992188 116.773438 56.992188 Z M 116.773438 56.992188 " clip-rule="nonzero"/></clipPath><clipPath id="b997f5e8ed"><path d="M 0.535156 0.992188 L 249.789062 0.992188 L 249.789062 128.867188 L 0.535156 128.867188 Z M 0.535156 0.992188 " clip-rule="nonzero"/></clipPath><clipPath id="11d9bb7e18"><path d="M 23.773438 0.992188 L 226.433594 0.992188 C 239.265625 0.992188 249.667969 11.394531 249.667969 24.230469 L 249.667969 105.628906 C 249.667969 118.460938 239.265625 128.867188 226.433594 128.867188 L 23.773438 128.867188 C 10.941406 128.867188 0.535156 118.460938 0.535156 105.628906 L 0.535156 24.230469 C 0.535156 11.394531 10.941406 0.992188 23.773438 0.992188 Z M 23.773438 0.992188 " clip-rule="nonzero"/></clipPath><clipPath id="76c94cff14"><rect x="0" width="250" y="0" height="129"/></clipPath><clipPath id="8b4a619d52"><path d="M 240.703125 215.730469 L 303.535156 215.730469 L 303.535156 328.882812 L 240.703125 328.882812 Z M 240.703125 215.730469 " clip-rule="nonzero"/></clipPath><clipPath id="13e8e0fe35"><path d="M 252.695312 215.730469 L 291.542969 215.730469 C 298.167969 215.730469 303.535156 221.101562 303.535156 227.726562 L 303.535156 316.839844 C 303.535156 323.464844 298.167969 328.835938 291.542969 328.835938 L 252.695312 328.835938 C 246.070312 328.835938 240.703125 323.464844 240.703125 316.839844 L 240.703125 227.726562 C 240.703125 221.101562 246.070312 215.730469 252.695312 215.730469 Z M 252.695312 215.730469 " clip-rule="nonzero"/></clipPath><clipPath id="58e7d2be17"><path d="M 0.703125 0.730469 L 63.535156 0.730469 L 63.535156 113.867188 L 0.703125 113.867188 Z M 0.703125 0.730469 " clip-rule="nonzero"/></clipPath><clipPath id="4f54c2d803"><path d="M 12.695312 0.730469 L 51.542969 0.730469 C 58.167969 0.730469 63.535156 6.101562 63.535156 12.726562 L 63.535156 101.839844 C 63.535156 108.464844 58.167969 113.835938 51.542969 113.835938 L 12.695312 113.835938 C 6.070312 113.835938 0.703125 108.464844 0.703125 101.839844 L 0.703125 12.726562 C 0.703125 6.101562 6.070312 0.730469 12.695312 0.730469 Z M 12.695312 0.730469 " clip-rule="nonzero"/></clipPath><clipPath id="352f2528db"><rect x="0" width="64" y="0" height="114"/></clipPath><clipPath id="a04ebc7309"><path d="M 187 187 L 440.703125 187 L 440.703125 429 L 187 429 Z M 187 187 " clip-rule="nonzero"/></clipPath><clipPath id="7fae2b1707"><path d="M 137.628906 215.730469 L 200.464844 215.730469 L 200.464844 328.882812 L 137.628906 328.882812 Z M 137.628906 215.730469 " clip-rule="nonzero"/></clipPath><clipPath id="925718500e"><path d="M 149.625 215.730469 L 188.472656 215.730469 C 195.09375 215.730469 200.464844 221.101562 200.464844 227.726562 L 200.464844 316.839844 C 200.464844 323.464844 195.09375 328.835938 188.472656 328.835938 L 149.625 328.835938 C 143 328.835938 137.628906 323.464844 137.628906 316.839844 L 137.628906 227.726562 C 137.628906 221.101562 143 215.730469 149.625 215.730469 Z M 149.625 215.730469 " clip-rule="nonzero"/></clipPath><clipPath id="b03b9b2614"><path d="M 0.628906 0.730469 L 63.464844 0.730469 L 63.464844 113.867188 L 0.628906 113.867188 Z M 0.628906 0.730469 " clip-rule="nonzero"/></clipPath><clipPath id="c48fd12e5e"><path d="M 12.625 0.730469 L 51.472656 0.730469 C 58.09375 0.730469 63.464844 6.101562 63.464844 12.726562 L 63.464844 101.839844 C 63.464844 108.464844 58.09375 113.835938 51.472656 113.835938 L 12.625 113.835938 C 6 113.835938 0.628906 108.464844 0.628906 101.839844 L 0.628906 12.726562 C 0.628906 6.101562 6 0.730469 12.625 0.730469 Z M 12.625 0.730469 " clip-rule="nonzero"/></clipPath><clipPath id="0f9f5fec90"><rect x="0" width="64" y="0" height="114"/></clipPath><clipPath id="e7e8b246a8"><path d="M 150.308594 237.007812 L 187.789062 237.007812 L 187.789062 307.558594 L 150.308594 307.558594 Z M 150.308594 237.007812 " clip-rule="nonzero"/></clipPath><clipPath id="616fa183e5"><path d="M 0.308594 0.0078125 L 37.789062 0.0078125 L 37.789062 70.558594 L 0.308594 70.558594 Z M 0.308594 0.0078125 " clip-rule="nonzero"/></clipPath><clipPath id="14cd79832c"><rect x="0" width="38" y="0" height="71"/></clipPath><clipPath id="47f92effaa"><path d="M 0.0546875 187 L 254 187 L 254 429 L 0.0546875 429 Z M 0.0546875 187 " clip-rule="nonzero"/></clipPath><clipPath id="4089709801"><path d="M 253.378906 237.007812 L 290.859375 237.007812 L 290.859375 307.558594 L 253.378906 307.558594 Z M 253.378906 237.007812 " clip-rule="nonzero"/></clipPath><clipPath id="1139f8ed74"><path d="M 0.378906 0.0078125 L 37.859375 0.0078125 L 37.859375 70.558594 L 0.378906 70.558594 Z M 0.378906 0.0078125 " clip-rule="nonzero"/></clipPath><clipPath id="47bf3a3215"><rect x="0" width="38" y="0" height="71"/></clipPath><clipPath id="25e93503ce"><path d="M 0.0546875 152 L 116 152 L 116 358 L 0.0546875 358 Z M 0.0546875 152 " clip-rule="nonzero"/></clipPath><clipPath id="b864f6f62b"><path d="M 320 152 L 440.703125 152 L 440.703125 358 L 320 358 Z M 320 152 " clip-rule="nonzero"/></clipPath></defs><g clip-path="url(#8f7966dd6b)"><g clip-path="url(#7fb253d43d)"><g transform="matrix(1, 0, 0, 1, 30, 0)"><g clip-path="url(#0883645999)"><g clip-path="url(#d5721313fe)"><g clip-path="url(#5d305e98fc)"><path fill="#d9d9d9" d="M 0.703125 0 L 375.503906 0 L 375.503906 474.359375 L 0.703125 474.359375 Z M 0.703125 0 " fill-opacity="1" fill-rule="nonzero"/></g></g></g></g></g></g><g clip-path="url(#36e82f0533)"><g clip-path="url(#3ef37ef43b)"><path stroke-linecap="butt" transform="matrix(0.749605, 0, 0, 0.749605, 30.704416, 0.00000000000008522)" fill="none" stroke-linejoin="miter" d="M 30.998971 -0.000000000000113687 L 468.995154 -0.000000000000113687 C 486.11354 -0.000000000000113687 499.990637 13.877096 499.990637 31.000694 L 499.990637 601.342584 C 499.990637 618.466181 486.11354 632.343278 468.995154 632.343278 L 30.998971 632.343278 C 13.880585 632.343278 -0.00172232 618.466181 -0.00172232 601.342584 L -0.00172232 31.000694 C -0.00172232 13.877096 13.880585 -0.000000000000113687 30.998971 -0.000000000000113687 Z M 30.998971 -0.000000000000113687 " stroke="#000000" stroke-width="40" stroke-opacity="1" stroke-miterlimit="4"/></g></g><g clip-path="url(#f26208cd3f)"><g clip-path="url(#44d6f57b1f)"><g transform="matrix(1, 0, 0, 1, 93, 56)"><g clip-path="url(#76c94cff14)"><g clip-path="url(#b997f5e8ed)"><g clip-path="url(#11d9bb7e18)"><path fill="#ffffff" d="M 0.535156 0.992188 L 249.789062 0.992188 L 249.789062 128.867188 L 0.535156 128.867188 Z M 0.535156 0.992188 " fill-opacity="1" fill-rule="nonzero"/></g></g></g></g></g></g><g clip-path="url(#8b4a619d52)"><g clip-path="url(#13e8e0fe35)"><g transform="matrix(1, 0, 0, 1, 240, 215)"><g clip-path="url(#352f2528db)"><g clip-path="url(#58e7d2be17)"><g clip-path="url(#4f54c2d803)"><path fill="#737373" d="M 0.703125 0.730469 L 63.535156 0.730469 L 63.535156 113.882812 L 0.703125 113.882812 Z M 0.703125 0.730469 " fill-opacity="1" fill-rule="nonzero"/></g></g></g></g></g></g><g clip-path="url(#a04ebc7309)"><path stroke-linecap="butt" transform="matrix(0.749605, 0, 0, 0.749605, 264.6226, 272.283052)" fill="none" stroke-linejoin="miter" d="M 224.704817 -0.00240361 L 224.704817 71.061045 C 224.704817 84.312813 213.959577 95.058052 200.70781 95.058052 L 34.000265 95.058052 C 20.743286 95.058052 9.998047 84.312813 9.998047 71.061045 L 9.998047 47.058827 " stroke="#000000" stroke-width="20" stroke-opacity="1" stroke-miterlimit="4"/></g><g clip-path="url(#7fae2b1707)"><g clip-path="url(#925718500e)"><g transform="matrix(1, 0, 0, 1, 137, 215)"><g clip-path="url(#0f9f5fec90)"><g clip-path="url(#b03b9b2614)"><g clip-path="url(#c48fd12e5e)"><path fill="#737373" d="M 0.628906 0.730469 L 63.464844 0.730469 L 63.464844 113.882812 L 0.628906 113.882812 Z M 0.628906 0.730469 " fill-opacity="1" fill-rule="nonzero"/></g></g></g></g></g></g><g clip-path="url(#e7e8b246a8)"><g transform="matrix(1, 0, 0, 1, 150, 237)"><g clip-path="url(#14cd79832c)"><g clip-path="url(#616fa183e5)"><path fill="#000000" d="M 0.308594 0.0078125 L 37.789062 0.0078125 L 37.789062 70.574219 L 0.308594 70.574219 Z M 0.308594 0.0078125 " fill-opacity="1" fill-rule="nonzero"/></g></g></g></g><g clip-path="url(#47f92effaa)"><path stroke-linecap="butt" transform="matrix(0.749605, 0, 0, 0.749605, 0.0560605, 272.283052)" fill="none" stroke-linejoin="miter" d="M 9.998224 -0.00240361 L 9.998224 71.061045 C 9.998224 84.312813 20.743464 95.058052 34.000442 95.058052 L 201.442749 95.058052 C 214.694516 95.058052 225.439756 84.312813 225.439756 71.061045 L 225.439756 47.058827 " stroke="#000000" stroke-width="20" stroke-opacity="1" stroke-miterlimit="4"/></g><g clip-path="url(#4089709801)"><g transform="matrix(1, 0, 0, 1, 253, 237)"><g clip-path="url(#47bf3a3215)"><g clip-path="url(#1139f8ed74)"><path fill="#000000" d="M 0.378906 0.0078125 L 37.859375 0.0078125 L 37.859375 70.574219 L 0.378906 70.574219 Z M 0.378906 0.0078125 " fill-opacity="1" fill-rule="nonzero"/></g></g></g></g><path fill="#000000" d="M 93.535156 115.308594 L 127.269531 115.308594 L 127.269531 126.550781 L 93.535156 126.550781 M 138.511719 115.308594 L 172.246094 115.308594 L 172.246094 126.550781 L 138.511719 126.550781 M 183.488281 115.308594 L 217.222656 115.308594 L 217.222656 126.550781 L 183.488281 126.550781 M 228.464844 115.308594 L 262.199219 115.308594 L 262.199219 126.550781 L 228.464844 126.550781 M 273.441406 115.308594 L 307.171875 115.308594 L 307.171875 126.550781 L 273.441406 126.550781 M 318.417969 115.308594 L 342.667969 115.308594 L 342.667969 126.550781 L 318.417969 126.550781 " fill-opacity="1" fill-rule="nonzero"/><g clip-path="url(#25e93503ce)"><path stroke-linecap="butt" transform="matrix(0.749605, 0, 0, 0.749605, 0.0560605, 229.511485)" fill="none" stroke-linejoin="miter" d="M 9.998224 57.056387 L 9.998224 25.440786 C 9.998224 16.915465 16.913322 10.000367 25.438643 10.000367 L 40.884274 10.000367 " stroke="#000000" stroke-width="20" stroke-opacity="1" stroke-miterlimit="4"/></g><g clip-path="url(#b864f6f62b)"><path stroke-linecap="butt" transform="matrix(0.749605, 0, 0, 0.749605, 405.504275, 229.511485)" fill="none" stroke-linejoin="miter" d="M 36.763652 57.056387 L 36.763652 28.379833 C 36.763652 23.507477 34.830343 18.833141 31.38061 15.383409 C 27.930878 11.938887 23.256542 10.000367 18.384186 10.000367 L -0.000491827 10.000367 " stroke="#000000" stroke-width="20" stroke-opacity="1" stroke-miterlimit="4"/></g></svg>