<svg xmlns="http://www.w3.org/2000/svg" xmlns:xlink="http://www.w3.org/1999/xlink" width="287" zoomAndPan="magnify" viewBox="0 0 215.25 216.749994" height="289" preserveAspectRatio="xMidYMid meet" version="1.0"><defs><clipPath id="f408ab8d38"><path d="M 93.417969 56.371094 L 120.671875 56.371094 L 120.671875 83.621094 L 93.417969 83.621094 Z M 93.417969 56.371094 " clip-rule="nonzero"/></clipPath><clipPath id="f7da48c03a"><path d="M 120.671875 69.996094 C 120.671875 62.472656 114.570312 56.371094 107.046875 56.371094 C 99.519531 56.371094 93.417969 62.472656 93.417969 69.996094 C 93.417969 77.519531 99.519531 83.621094 107.046875 83.621094 C 114.570312 83.621094 120.671875 77.519531 120.671875 69.996094 Z M 120.671875 69.996094 " clip-rule="nonzero"/></clipPath><clipPath id="f58084bb33"><path d="M 0.417969 0.371094 L 27.671875 0.371094 L 27.671875 27.621094 L 0.417969 27.621094 Z M 0.417969 0.371094 " clip-rule="nonzero"/></clipPath><clipPath id="77f38589a9"><path d="M 27.671875 13.996094 C 27.671875 6.472656 21.570312 0.371094 14.046875 0.371094 C 6.519531 0.371094 0.417969 6.472656 0.417969 13.996094 C 0.417969 21.519531 6.519531 27.621094 14.046875 27.621094 C 21.570312 27.621094 27.671875 21.519531 27.671875 13.996094 Z M 27.671875 13.996094 " clip-rule="nonzero"/></clipPath><clipPath id="2bc5550dd7"><rect x="0" width="28" y="0" height="28"/></clipPath><clipPath id="1094830536"><path d="M 93.765625 56.371094 L 120.671875 56.371094 L 120.671875 83.277344 L 93.765625 83.277344 Z M 93.765625 56.371094 " clip-rule="nonzero"/></clipPath><clipPath id="f1e638de4c"><path d="M 120.671875 69.992188 C 120.671875 62.46875 114.570312 56.371094 107.046875 56.371094 C 99.523438 56.371094 93.425781 62.46875 93.425781 69.992188 C 93.425781 77.515625 99.523438 83.617188 107.046875 83.617188 C 114.570312 83.617188 120.671875 77.515625 120.671875 69.992188 Z M 120.671875 69.992188 " clip-rule="nonzero"/></clipPath><clipPath id="028a041cb6"><path d="M 101.796875 0.253906 L 112.835938 0.253906 L 112.835938 61.738281 L 101.796875 61.738281 Z M 101.796875 0.253906 " clip-rule="nonzero"/></clipPath><clipPath id="6a1621eac1"><path d="M 112.835938 5.773438 L 112.835938 56.214844 C 112.835938 59.265625 110.363281 61.734375 107.316406 61.734375 C 104.265625 61.734375 101.796875 59.265625 101.796875 56.214844 L 101.796875 5.773438 C 101.796875 2.726562 104.265625 0.253906 107.316406 0.253906 C 110.363281 0.253906 112.835938 2.726562 112.835938 5.773438 Z M 112.835938 5.773438 " clip-rule="nonzero"/></clipPath><clipPath id="9822d90722"><path d="M 0.796875 0.253906 L 11.835938 0.253906 L 11.835938 61.738281 L 0.796875 61.738281 Z M 0.796875 0.253906 " clip-rule="nonzero"/></clipPath><clipPath id="8c949d4fc1"><path d="M 11.835938 5.773438 L 11.835938 56.214844 C 11.835938 59.265625 9.363281 61.734375 6.316406 61.734375 C 3.265625 61.734375 0.796875 59.265625 0.796875 56.214844 L 0.796875 5.773438 C 0.796875 2.726562 3.265625 0.253906 6.316406 0.253906 C 9.363281 0.253906 11.835938 2.726562 11.835938 5.773438 Z M 11.835938 5.773438 " clip-rule="nonzero"/></clipPath><clipPath id="3f5ed42144"><rect x="0" width="12" y="0" height="62"/></clipPath><clipPath id="31bae204a8"><path d="M 101.625 0.257812 L 112.835938 0.257812 L 112.835938 61.539062 L 101.625 61.539062 Z M 101.625 0.257812 " clip-rule="nonzero"/></clipPath><clipPath id="cd399316d8"><path d="M 112.835938 5.773438 L 112.835938 56.207031 C 112.835938 59.253906 110.363281 61.726562 107.316406 61.726562 C 104.269531 61.726562 101.796875 59.253906 101.796875 56.207031 L 101.796875 5.773438 C 101.796875 2.726562 104.269531 0.257812 107.316406 0.257812 C 110.363281 0.257812 112.835938 2.726562 112.835938 5.773438 Z M 112.835938 5.773438 " clip-rule="nonzero"/></clipPath><clipPath id="fdacf78a1c"><path d="M 112 72 L 160 72 L 160 119 L 112 119 Z M 112 72 " clip-rule="nonzero"/></clipPath><clipPath id="3ab618ef6d"><path d="M 117.863281 70 L 161.339844 113.476562 L 153.535156 121.28125 L 110.058594 77.804688 Z M 117.863281 70 " clip-rule="nonzero"/></clipPath><clipPath id="5dd249b109"><path d="M 121.765625 73.902344 L 157.4375 109.570312 C 159.589844 111.726562 159.589844 115.21875 157.4375 117.375 C 155.28125 119.53125 151.785156 119.53125 149.628906 117.375 L 113.960938 81.707031 C 111.808594 79.550781 111.808594 76.054688 113.960938 73.902344 C 116.117188 71.746094 119.613281 71.746094 121.765625 73.902344 Z M 121.765625 73.902344 " clip-rule="nonzero"/></clipPath><clipPath id="c670228309"><path d="M 0 0 L 47.761719 0 L 47.761719 47 L 0 47 Z M 0 0 " clip-rule="nonzero"/></clipPath><clipPath id="554cf1a445"><path d="M 5.863281 -2 L 49.339844 41.476562 L 41.535156 49.28125 L -1.941406 5.804688 Z M 5.863281 -2 " clip-rule="nonzero"/></clipPath><clipPath id="ba5f53d42d"><path d="M 9.765625 1.902344 L 45.4375 37.570312 C 47.589844 39.726562 47.589844 43.21875 45.4375 45.375 C 43.28125 47.53125 39.785156 47.53125 37.628906 45.375 L 1.960938 9.707031 C -0.191406 7.550781 -0.191406 4.054688 1.960938 1.902344 C 4.117188 -0.253906 7.613281 -0.253906 9.765625 1.902344 Z M 9.765625 1.902344 " clip-rule="nonzero"/></clipPath><clipPath id="d211cfcc63"><rect x="0" width="48" y="0" height="47"/></clipPath><clipPath id="3737116e8a"><path d="M 112 72 L 160 72 L 160 119 L 112 119 Z M 112 72 " clip-rule="nonzero"/></clipPath><clipPath id="d94534be2a"><path d="M 117.863281 70 L 161.199219 113.335938 L 153.273438 121.261719 L 109.9375 77.925781 Z M 117.863281 70 " clip-rule="nonzero"/></clipPath><clipPath id="cf08544def"><path d="M 117.867188 70 L 162.5 114.632812 L 152.9375 124.199219 L 108.300781 79.5625 Z M 117.867188 70 " clip-rule="nonzero"/></clipPath><clipPath id="d71733c891"><path d="M 121.769531 73.902344 L 157.429688 109.5625 C 159.585938 111.71875 159.585938 115.210938 157.429688 117.367188 C 155.273438 119.519531 151.78125 119.519531 149.625 117.367188 L 113.964844 81.707031 C 111.808594 79.550781 111.808594 76.058594 113.964844 73.902344 C 116.121094 71.746094 119.613281 71.746094 121.769531 73.902344 Z M 121.769531 73.902344 " clip-rule="nonzero"/></clipPath><clipPath id="5260712f61"><path d="M 93.417969 124.429688 L 120.671875 124.429688 L 120.671875 151.683594 L 93.417969 151.683594 Z M 93.417969 124.429688 " clip-rule="nonzero"/></clipPath><clipPath id="c631dabce8"><path d="M 120.671875 138.058594 C 120.671875 130.53125 114.570312 124.429688 107.046875 124.429688 C 99.519531 124.429688 93.417969 130.53125 93.417969 138.058594 C 93.417969 145.582031 99.519531 151.683594 107.046875 151.683594 C 114.570312 151.683594 120.671875 145.582031 120.671875 138.058594 Z M 120.671875 138.058594 " clip-rule="nonzero"/></clipPath><clipPath id="d4477e696d"><path d="M 0.417969 0.429688 L 27.671875 0.429688 L 27.671875 27.683594 L 0.417969 27.683594 Z M 0.417969 0.429688 " clip-rule="nonzero"/></clipPath><clipPath id="7ba10f540d"><path d="M 27.671875 14.058594 C 27.671875 6.53125 21.570312 0.429688 14.046875 0.429688 C 6.519531 0.429688 0.417969 6.53125 0.417969 14.058594 C 0.417969 21.582031 6.519531 27.683594 14.046875 27.683594 C 21.570312 27.683594 27.671875 21.582031 27.671875 14.058594 Z M 27.671875 14.058594 " clip-rule="nonzero"/></clipPath><clipPath id="8c681a1983"><rect x="0" width="28" y="0" height="28"/></clipPath><clipPath id="1862ce1116"><path d="M 93.765625 124.429688 L 120.671875 124.429688 L 120.671875 151.335938 L 93.765625 151.335938 Z M 93.765625 124.429688 " clip-rule="nonzero"/></clipPath><clipPath id="73118c3f78"><path d="M 120.671875 138.054688 C 120.671875 130.53125 114.570312 124.429688 107.046875 124.429688 C 99.523438 124.429688 93.425781 130.53125 93.425781 138.054688 C 93.425781 145.578125 99.523438 151.675781 107.046875 151.675781 C 114.570312 151.675781 120.671875 145.578125 120.671875 138.054688 Z M 120.671875 138.054688 " clip-rule="nonzero"/></clipPath><clipPath id="82c8bed772"><path d="M 101.53125 146.273438 L 112.566406 146.273438 L 112.566406 215.695312 L 101.53125 215.695312 Z M 101.53125 146.273438 " clip-rule="nonzero"/></clipPath><clipPath id="8ad79f52a6"><path d="M 112.566406 151.792969 L 112.566406 210.171875 C 112.566406 213.21875 110.097656 215.691406 107.046875 215.691406 C 104 215.691406 101.53125 213.21875 101.53125 210.171875 L 101.53125 151.792969 C 101.53125 148.746094 104 146.273438 107.046875 146.273438 C 110.097656 146.273438 112.566406 148.746094 112.566406 151.792969 Z M 112.566406 151.792969 " clip-rule="nonzero"/></clipPath><clipPath id="cc862ae8ed"><path d="M 0.53125 0.273438 L 11.566406 0.273438 L 11.566406 69.695312 L 0.53125 69.695312 Z M 0.53125 0.273438 " clip-rule="nonzero"/></clipPath><clipPath id="1bae7f0aef"><path d="M 11.566406 5.792969 L 11.566406 64.171875 C 11.566406 67.21875 9.097656 69.691406 6.046875 69.691406 C 3 69.691406 0.53125 67.21875 0.53125 64.171875 L 0.53125 5.792969 C 0.53125 2.746094 3 0.273438 6.046875 0.273438 C 9.097656 0.273438 11.566406 2.746094 11.566406 5.792969 Z M 11.566406 5.792969 " clip-rule="nonzero"/></clipPath><clipPath id="60bf017bb7"><rect x="0" width="12" y="0" height="70"/></clipPath><clipPath id="95c397c6ac"><path d="M 101.355469 146.28125 L 112.566406 146.28125 L 112.566406 215.78125 L 101.355469 215.78125 Z M 101.355469 146.28125 " clip-rule="nonzero"/></clipPath><clipPath id="74bfc969d3"><path d="M 112.566406 151.800781 L 112.566406 210.164062 C 112.566406 213.210938 110.097656 215.683594 107.050781 215.683594 C 104.003906 215.683594 101.53125 213.210938 101.53125 210.164062 L 101.53125 151.800781 C 101.53125 148.75 104.003906 146.28125 107.050781 146.28125 C 110.097656 146.28125 112.566406 148.75 112.566406 151.800781 Z M 112.566406 151.800781 " clip-rule="nonzero"/></clipPath></defs><g clip-path="url(#f408ab8d38)"><g clip-path="url(#f7da48c03a)"><g transform="matrix(1, 0, 0, 1, 93, 56)"><g clip-path="url(#2bc5550dd7)"><g clip-path="url(#f58084bb33)"><g clip-path="url(#77f38589a9)"><path fill="#d9d9d9" d="M 27.671875 0.371094 L 27.671875 27.621094 L 0.417969 27.621094 L 0.417969 0.371094 Z M 27.671875 0.371094 " fill-opacity="1" fill-rule="nonzero"/></g></g></g></g></g></g><g clip-path="url(#1094830536)"><g clip-path="url(#f1e638de4c)"><path stroke-linecap="butt" transform="matrix(0, 0.747396, -0.747396, 0, 120.6703, 56.370716)" fill="none" stroke-linejoin="miter" d="M 18.225245 -0.00210712 C 8.159043 -0.00210712 0.000505636 8.161656 0.000505636 18.227859 C 0.000505636 28.294061 8.159043 36.452598 18.225245 36.452598 C 28.291448 36.452598 36.455211 28.294061 36.455211 18.227859 C 36.455211 8.161656 28.291448 -0.00210712 18.225245 -0.00210712 Z M 18.225245 -0.00210712 " stroke="#737373" stroke-width="16" stroke-opacity="1" stroke-miterlimit="4"/></g></g><g clip-path="url(#028a041cb6)"><g clip-path="url(#6a1621eac1)"><g transform="matrix(1, 0, 0, 1, 101, 0.000000000000019318)"><g clip-path="url(#3f5ed42144)"><g clip-path="url(#9822d90722)"><g clip-path="url(#8c949d4fc1)"><path fill="#737373" d="M 11.835938 0.253906 L 11.835938 61.738281 L 0.796875 61.738281 L 0.796875 0.253906 Z M 11.835938 0.253906 " fill-opacity="1" fill-rule="nonzero"/></g></g></g></g></g></g><g clip-path="url(#31bae204a8)"><g clip-path="url(#cd399316d8)"><path stroke-linecap="butt" transform="matrix(0, 0.747396, -0.747396, 0, 112.834024, 0.256965)" fill="none" stroke-linejoin="miter" d="M 7.380925 -0.00256053 L 74.860021 -0.00256053 C 78.936677 -0.00256053 82.245039 3.305802 82.245039 7.382457 C 82.245039 11.459112 78.936677 14.767475 74.860021 14.767475 L 7.380925 14.767475 C 3.304269 14.767475 0.00113334 11.459112 0.00113334 7.382457 C 0.00113334 3.305802 3.304269 -0.00256053 7.380925 -0.00256053 Z M 7.380925 -0.00256053 " stroke="#737373" stroke-width="80" stroke-opacity="1" stroke-miterlimit="4"/></g></g><g clip-path="url(#fdacf78a1c)"><g clip-path="url(#3ab618ef6d)"><g clip-path="url(#5dd249b109)"><g transform="matrix(1, 0, 0, 1, 112, 72)"><g clip-path="url(#d211cfcc63)"><g clip-path="url(#c670228309)"><g clip-path="url(#554cf1a445)"><g clip-path="url(#ba5f53d42d)"><path fill="#737373" d="M 5.863281 -2 L 49.339844 41.476562 L 41.535156 49.28125 L -1.941406 5.804688 Z M 5.863281 -2 " fill-opacity="1" fill-rule="nonzero"/></g></g></g></g></g></g></g></g><g clip-path="url(#3737116e8a)"><g clip-path="url(#d94534be2a)"><g clip-path="url(#cf08544def)"><g clip-path="url(#d71733c891)"><path stroke-linecap="butt" transform="matrix(0.528489, 0.528489, -0.528489, 0.528489, 117.866573, 70.000089)" fill="none" stroke-linejoin="miter" d="M 7.384466 -0.000665592 L 74.860194 -0.000665592 C 78.940225 -0.000665592 82.244163 3.303272 82.244163 7.383303 C 82.240468 11.459639 78.936529 14.763577 74.860194 14.767272 L 7.384466 14.767272 C 3.304435 14.767272 0.0004965 11.463334 0.0004965 7.383303 C 0.0004965 3.303272 3.304435 -0.000665592 7.384466 -0.000665592 Z M 7.384466 -0.000665592 " stroke="#737373" stroke-width="80" stroke-opacity="1" stroke-miterlimit="4"/></g></g></g></g><g clip-path="url(#5260712f61)"><g clip-path="url(#c631dabce8)"><g transform="matrix(1, 0, 0, 1, 93, 124)"><g clip-path="url(#8c681a1983)"><g clip-path="url(#d4477e696d)"><g clip-path="url(#7ba10f540d)"><path fill="#d9d9d9" d="M 27.671875 0.429688 L 27.671875 27.683594 L 0.417969 27.683594 L 0.417969 0.429688 Z M 27.671875 0.429688 " fill-opacity="1" fill-rule="nonzero"/></g></g></g></g></g></g><g clip-path="url(#1862ce1116)"><g clip-path="url(#73118c3f78)"><path stroke-linecap="butt" transform="matrix(0, 0.747396, -0.747396, 0, 120.6703, 124.431488)" fill="none" stroke-linejoin="miter" d="M 18.227557 -0.00210712 C 8.161354 -0.00210712 -0.00240936 8.161656 -0.00240936 18.227859 C -0.00240936 28.294061 8.161354 36.452598 18.227557 36.452598 C 28.293759 36.452598 36.452296 28.294061 36.452296 18.227859 C 36.452296 8.161656 28.293759 -0.00210712 18.227557 -0.00210712 Z M 18.227557 -0.00210712 " stroke="#737373" stroke-width="16" stroke-opacity="1" stroke-miterlimit="4"/></g></g><g clip-path="url(#82c8bed772)"><g clip-path="url(#8ad79f52a6)"><g transform="matrix(1, 0, 0, 1, 101, 146)"><g clip-path="url(#60bf017bb7)"><g clip-path="url(#cc862ae8ed)"><g clip-path="url(#1bae7f0aef)"><path fill="#737373" d="M 11.566406 0.273438 L 11.566406 69.695312 L 0.53125 69.695312 L 0.53125 0.273438 Z M 11.566406 0.273438 " fill-opacity="1" fill-rule="nonzero"/></g></g></g></g></g></g><g clip-path="url(#95c397c6ac)"><g clip-path="url(#74bfc969d3)"><path stroke-linecap="butt" transform="matrix(0, 0.747396, -0.747396, 0, 112.567508, 146.281283)" fill="none" stroke-linejoin="miter" d="M 7.384974 0.00147467 L 85.473827 0.00147467 C 89.550482 0.00147467 92.858845 3.304611 92.858845 7.381266 C 92.858845 11.457921 89.550482 14.766284 85.473827 14.766284 L 7.384974 14.766284 C 3.303092 14.766284 -0.0000439435 11.457921 -0.0000439435 7.381266 C -0.0000439435 3.304611 3.303092 0.00147467 7.384974 0.00147467 Z M 7.384974 0.00147467 " stroke="#737373" stroke-width="80" stroke-opacity="1" stroke-miterlimit="4"/></g></g></svg>