<svg xmlns="http://www.w3.org/2000/svg" xmlns:xlink="http://www.w3.org/1999/xlink" width="82" zoomAndPan="magnify" viewBox="0 0 61.5 215.249995" height="287" preserveAspectRatio="xMidYMid meet" version="1.0"><defs><clipPath id="462a5bef3b"><path d="M 0 135.472656 L 20.539062 135.472656 L 20.539062 156.015625 L 0 156.015625 Z M 0 135.472656 " clip-rule="nonzero"/></clipPath><clipPath id="4a059f6fb0"><path d="M 20.539062 145.746094 C 20.539062 140.074219 15.941406 135.472656 10.269531 135.472656 C 4.597656 135.472656 -0.00390625 140.074219 -0.00390625 145.746094 C -0.00390625 151.417969 4.597656 156.015625 10.269531 156.015625 C 15.941406 156.015625 20.539062 151.417969 20.539062 145.746094 Z M 20.539062 145.746094 " clip-rule="nonzero"/></clipPath><clipPath id="b6e5c13218"><path d="M 0 0.472656 L 20.539062 0.472656 L 20.539062 21.015625 L 0 21.015625 Z M 0 0.472656 " clip-rule="nonzero"/></clipPath><clipPath id="a38b9bfacc"><path d="M 20.539062 10.746094 C 20.539062 5.074219 15.941406 0.472656 10.269531 0.472656 C 4.597656 0.472656 -0.00390625 5.074219 -0.00390625 10.746094 C -0.00390625 16.417969 4.597656 21.015625 10.269531 21.015625 C 15.941406 21.015625 20.539062 16.417969 20.539062 10.746094 Z M 20.539062 10.746094 " clip-rule="nonzero"/></clipPath><clipPath id="a5cf6b6c63"><rect x="0" width="21" y="0" height="22"/></clipPath><clipPath id="95203ab4fc"><path d="M 0 135.472656 L 20.539062 135.472656 L 20.539062 156.015625 L 0 156.015625 Z M 0 135.472656 " clip-rule="nonzero"/></clipPath><clipPath id="f95d92a53c"><path d="M 20.539062 145.742188 C 20.539062 140.070312 15.941406 135.472656 10.269531 135.472656 C 4.597656 135.472656 0 140.070312 0 145.742188 C 0 151.417969 4.597656 156.015625 10.269531 156.015625 C 15.941406 156.015625 20.539062 151.417969 20.539062 145.742188 Z M 20.539062 145.742188 " clip-rule="nonzero"/></clipPath><clipPath id="2a2476bb1a"><path d="M 0 57.671875 L 20.539062 57.671875 L 20.539062 78.214844 L 0 78.214844 Z M 0 57.671875 " clip-rule="nonzero"/></clipPath><clipPath id="4792d0fcf0"><path d="M 20.539062 67.945312 C 20.539062 62.269531 15.941406 57.671875 10.269531 57.671875 C 4.597656 57.671875 -0.00390625 62.269531 -0.00390625 67.945312 C -0.00390625 73.617188 4.597656 78.214844 10.269531 78.214844 C 15.941406 78.214844 20.539062 73.617188 20.539062 67.945312 Z M 20.539062 67.945312 " clip-rule="nonzero"/></clipPath><clipPath id="9d42386db8"><path d="M 0 0.671875 L 20.539062 0.671875 L 20.539062 21.214844 L 0 21.214844 Z M 0 0.671875 " clip-rule="nonzero"/></clipPath><clipPath id="12f8a896a3"><path d="M 20.539062 10.945312 C 20.539062 5.269531 15.941406 0.671875 10.269531 0.671875 C 4.597656 0.671875 -0.00390625 5.269531 -0.00390625 10.945312 C -0.00390625 16.617188 4.597656 21.214844 10.269531 21.214844 C 15.941406 21.214844 20.539062 16.617188 20.539062 10.945312 Z M 20.539062 10.945312 " clip-rule="nonzero"/></clipPath><clipPath id="33d08066f1"><rect x="0" width="21" y="0" height="22"/></clipPath><clipPath id="d4472e24a4"><path d="M 0 57.671875 L 20.539062 57.671875 L 20.539062 78.210938 L 0 78.210938 Z M 0 57.671875 " clip-rule="nonzero"/></clipPath><clipPath id="2daca15cc1"><path d="M 20.539062 67.941406 C 20.539062 62.269531 15.941406 57.671875 10.269531 57.671875 C 4.597656 57.671875 0 62.269531 0 67.941406 C 0 73.613281 4.597656 78.210938 10.269531 78.210938 C 15.941406 78.210938 20.539062 73.613281 20.539062 67.941406 Z M 20.539062 67.941406 " clip-rule="nonzero"/></clipPath><clipPath id="a7369a1655"><path d="M 15 72 L 60 72 L 60 117 L 15 117 Z M 15 72 " clip-rule="nonzero"/></clipPath><clipPath id="db3336af13"><path d="M 18.496094 71.792969 L 60.285156 113.582031 L 56.425781 117.441406 L 14.636719 75.652344 Z M 18.496094 71.792969 " clip-rule="nonzero"/></clipPath><clipPath id="8d09669e82"><path d="M 20.425781 73.722656 L 58.351562 111.648438 C 59.414062 112.710938 59.414062 114.441406 58.351562 115.507812 C 57.285156 116.570312 55.554688 116.570312 54.492188 115.507812 L 16.566406 77.582031 C 15.5 76.515625 15.5 74.789062 16.566406 73.722656 C 17.632812 72.65625 19.359375 72.65625 20.425781 73.722656 Z M 20.425781 73.722656 " clip-rule="nonzero"/></clipPath><clipPath id="195a12bdd1"><path d="M 0.472656 0.628906 L 44.515625 0.628906 L 44.515625 44.671875 L 0.472656 44.671875 Z M 0.472656 0.628906 " clip-rule="nonzero"/></clipPath><clipPath id="2d1a1202ad"><path d="M 3.496094 -0.207031 L 45.285156 41.582031 L 41.425781 45.441406 L -0.363281 3.652344 Z M 3.496094 -0.207031 " clip-rule="nonzero"/></clipPath><clipPath id="5d8499d8ea"><path d="M 5.425781 1.722656 L 43.351562 39.648438 C 44.414062 40.710938 44.414062 42.441406 43.351562 43.507812 C 42.285156 44.570312 40.554688 44.570312 39.492188 43.507812 L 1.566406 5.582031 C 0.5 4.515625 0.5 2.789062 1.566406 1.722656 C 2.632812 0.65625 4.359375 0.65625 5.425781 1.722656 Z M 5.425781 1.722656 " clip-rule="nonzero"/></clipPath><clipPath id="6b5089a930"><rect x="0" width="45" y="0" height="45"/></clipPath><clipPath id="643c9e1efa"><path d="M 15 72 L 60 72 L 60 117 L 15 117 Z M 15 72 " clip-rule="nonzero"/></clipPath><clipPath id="9beac641d0"><path d="M 18.496094 71.792969 L 60.054688 113.351562 L 56.371094 117.03125 L 14.8125 75.476562 Z M 18.496094 71.792969 " clip-rule="nonzero"/></clipPath><clipPath id="300b37ea69"><path d="M 18.519531 71.816406 L 62.90625 116.199219 L 56.5625 122.542969 L 12.175781 78.15625 Z M 18.519531 71.816406 " clip-rule="nonzero"/></clipPath><clipPath id="f36de86c5b"><path d="M 20.445312 73.742188 L 58.328125 111.621094 C 59.390625 112.6875 59.390625 114.414062 58.328125 115.476562 C 57.261719 116.542969 55.535156 116.542969 54.472656 115.476562 L 16.589844 77.597656 C 15.527344 76.53125 15.527344 74.804688 16.589844 73.742188 C 17.65625 72.675781 19.382812 72.675781 20.445312 73.742188 Z M 20.445312 73.742188 " clip-rule="nonzero"/></clipPath><clipPath id="da4c073c11"><path d="M 7.535156 154.371094 L 12.996094 154.371094 L 12.996094 213.46875 L 7.535156 213.46875 Z M 7.535156 154.371094 " clip-rule="nonzero"/></clipPath><clipPath id="fcd35330c9"><path d="M 12.996094 157.097656 L 12.996094 210.730469 C 12.996094 212.238281 11.773438 213.460938 10.265625 213.460938 C 8.757812 213.460938 7.535156 212.238281 7.535156 210.730469 L 7.535156 157.097656 C 7.535156 155.59375 8.757812 154.371094 10.265625 154.371094 C 11.773438 154.371094 12.996094 155.59375 12.996094 157.097656 Z M 12.996094 157.097656 " clip-rule="nonzero"/></clipPath><clipPath id="29f3d38d0a"><path d="M 0.535156 0.371094 L 5.996094 0.371094 L 5.996094 59.46875 L 0.535156 59.46875 Z M 0.535156 0.371094 " clip-rule="nonzero"/></clipPath><clipPath id="f9eb6fe332"><path d="M 5.996094 3.097656 L 5.996094 56.730469 C 5.996094 58.238281 4.773438 59.460938 3.265625 59.460938 C 1.757812 59.460938 0.535156 58.238281 0.535156 56.730469 L 0.535156 3.097656 C 0.535156 1.59375 1.757812 0.371094 3.265625 0.371094 C 4.773438 0.371094 5.996094 1.59375 5.996094 3.097656 Z M 5.996094 3.097656 " clip-rule="nonzero"/></clipPath><clipPath id="b817e3d5ca"><rect x="0" width="6" y="0" height="60"/></clipPath><clipPath id="61b8b845a8"><path d="M 7.785156 154.402344 L 12.996094 154.402344 L 12.996094 213.140625 L 7.785156 213.140625 Z M 7.785156 154.402344 " clip-rule="nonzero"/></clipPath><clipPath id="ddbd6fa433"><path d="M 12.996094 157.128906 L 12.996094 210.699219 C 12.996094 212.203125 11.773438 213.425781 10.269531 213.425781 C 8.761719 213.425781 7.542969 212.203125 7.542969 210.699219 L 7.542969 157.128906 C 7.542969 155.621094 8.761719 154.402344 10.269531 154.402344 C 11.773438 154.402344 12.996094 155.621094 12.996094 157.128906 Z M 12.996094 157.128906 " clip-rule="nonzero"/></clipPath><clipPath id="1012b70dd1"><path d="M 7.535156 0.496094 L 12.996094 0.496094 L 12.996094 59.59375 L 7.535156 59.59375 Z M 7.535156 0.496094 " clip-rule="nonzero"/></clipPath><clipPath id="a4ae024b9c"><path d="M 12.996094 3.222656 L 12.996094 56.859375 C 12.996094 58.363281 11.773438 59.585938 10.265625 59.585938 C 8.757812 59.585938 7.535156 58.363281 7.535156 56.859375 L 7.535156 3.222656 C 7.535156 1.71875 8.757812 0.496094 10.265625 0.496094 C 11.773438 0.496094 12.996094 1.71875 12.996094 3.222656 Z M 12.996094 3.222656 " clip-rule="nonzero"/></clipPath><clipPath id="a08ee25ad3"><path d="M 0.535156 0.496094 L 5.996094 0.496094 L 5.996094 59.59375 L 0.535156 59.59375 Z M 0.535156 0.496094 " clip-rule="nonzero"/></clipPath><clipPath id="7fc80b1b86"><path d="M 5.996094 3.222656 L 5.996094 56.859375 C 5.996094 58.363281 4.773438 59.585938 3.265625 59.585938 C 1.757812 59.585938 0.535156 58.363281 0.535156 56.859375 L 0.535156 3.222656 C 0.535156 1.71875 1.757812 0.496094 3.265625 0.496094 C 4.773438 0.496094 5.996094 1.71875 5.996094 3.222656 Z M 5.996094 3.222656 " clip-rule="nonzero"/></clipPath><clipPath id="29d30bde2a"><rect x="0" width="6" y="0" height="60"/></clipPath><clipPath id="4b50880d32"><path d="M 7.785156 0.527344 L 12.996094 0.527344 L 12.996094 59.269531 L 7.785156 59.269531 Z M 7.785156 0.527344 " clip-rule="nonzero"/></clipPath><clipPath id="7963df265e"><path d="M 12.996094 3.253906 L 12.996094 56.824219 C 12.996094 58.328125 11.773438 59.550781 10.269531 59.550781 C 8.761719 59.550781 7.542969 58.328125 7.542969 56.824219 L 7.542969 3.253906 C 7.542969 1.746094 8.761719 0.527344 10.269531 0.527344 C 11.773438 0.527344 12.996094 1.746094 12.996094 3.253906 Z M 12.996094 3.253906 " clip-rule="nonzero"/></clipPath></defs><g clip-path="url(#462a5bef3b)"><g clip-path="url(#4a059f6fb0)"><g transform="matrix(1, 0, 0, 1, 0, 135)"><g clip-path="url(#a5cf6b6c63)"><g clip-path="url(#b6e5c13218)"><g clip-path="url(#a38b9bfacc)"><path fill="#d9d9d9" d="M 20.539062 0.472656 L 20.539062 21.015625 L -0.00390625 21.015625 L -0.00390625 0.472656 Z M 20.539062 0.472656 " fill-opacity="1" fill-rule="nonzero"/></g></g></g></g></g></g><g clip-path="url(#95203ab4fc)"><g clip-path="url(#f95d92a53c)"><path stroke-linecap="butt" transform="matrix(0, 0.743952, -0.743952, 0, 20.540038, 135.474022)" fill="none" stroke-linejoin="miter" d="M 13.802196 0.00131156 C 6.178212 0.00131156 -0.00183553 6.181359 -0.00183553 13.805343 C -0.00183553 21.429327 6.178212 27.609375 13.802196 27.609375 C 21.431431 27.609375 27.611479 21.429327 27.611479 13.805343 C 27.611479 6.181359 21.431431 0.00131156 13.802196 0.00131156 Z M 13.802196 0.00131156 " stroke="#737373" stroke-width="16" stroke-opacity="1" stroke-miterlimit="4"/></g></g><g clip-path="url(#2a2476bb1a)"><g clip-path="url(#4792d0fcf0)"><g transform="matrix(1, 0, 0, 1, 0, 57)"><g clip-path="url(#33d08066f1)"><g clip-path="url(#9d42386db8)"><g clip-path="url(#12f8a896a3)"><path fill="#d9d9d9" d="M 20.539062 0.671875 L 20.539062 21.214844 L -0.00390625 21.214844 L -0.00390625 0.671875 Z M 20.539062 0.671875 " fill-opacity="1" fill-rule="nonzero"/></g></g></g></g></g></g><g clip-path="url(#d4472e24a4)"><g clip-path="url(#2daca15cc1)"><path stroke-linecap="butt" transform="matrix(0, 0.743952, -0.743952, 0, 20.540038, 57.672803)" fill="none" stroke-linejoin="miter" d="M 13.802784 0.00131156 C 6.1788 0.00131156 -0.00124779 6.181359 -0.00124779 13.805343 C -0.00124779 21.429327 6.1788 27.609375 13.802784 27.609375 C 21.426768 27.609375 27.606816 21.429327 27.606816 13.805343 C 27.606816 6.181359 21.426768 0.00131156 13.802784 0.00131156 Z M 13.802784 0.00131156 " stroke="#737373" stroke-width="16" stroke-opacity="1" stroke-miterlimit="4"/></g></g><g clip-path="url(#a7369a1655)"><g clip-path="url(#db3336af13)"><g clip-path="url(#8d09669e82)"><g transform="matrix(1, 0, 0, 1, 15, 72)"><g clip-path="url(#6b5089a930)"><g clip-path="url(#195a12bdd1)"><g clip-path="url(#2d1a1202ad)"><g clip-path="url(#5d8499d8ea)"><path fill="#737373" d="M 3.496094 -0.207031 L 45.285156 41.582031 L 41.425781 45.441406 L -0.363281 3.652344 Z M 3.496094 -0.207031 " fill-opacity="1" fill-rule="nonzero"/></g></g></g></g></g></g></g></g><g clip-path="url(#643c9e1efa)"><g clip-path="url(#9beac641d0)"><g clip-path="url(#300b37ea69)"><g clip-path="url(#f36de86c5b)"><path stroke-linecap="butt" transform="matrix(0.526053, 0.526053, -0.526053, 0.526053, 18.518074, 71.814485)" fill="none" stroke-linejoin="miter" d="M 3.664022 0.000440919 L 75.673581 -0.00327187 C 77.697051 0.000440919 79.338104 1.641494 79.338104 3.661252 C 79.338104 5.688435 77.697051 7.329488 75.673581 7.325775 L 3.664022 7.329488 C 1.640552 7.325775 -0.00050129 5.684722 -0.00050129 3.664964 C -0.00050129 1.637781 1.640552 -0.00327187 3.664022 0.000440919 Z M 3.664022 0.000440919 " stroke="#737373" stroke-width="40" stroke-opacity="1" stroke-miterlimit="4"/></g></g></g></g><g clip-path="url(#da4c073c11)"><g clip-path="url(#fcd35330c9)"><g transform="matrix(1, 0, 0, 1, 7, 154)"><g clip-path="url(#b817e3d5ca)"><g clip-path="url(#29f3d38d0a)"><g clip-path="url(#f9eb6fe332)"><path fill="#737373" d="M 5.996094 0.371094 L 5.996094 59.46875 L 0.535156 59.46875 L 0.535156 0.371094 Z M 5.996094 0.371094 " fill-opacity="1" fill-rule="nonzero"/></g></g></g></g></g></g><g clip-path="url(#61b8b845a8)"><g clip-path="url(#ddbd6fa433)"><path stroke-linecap="butt" transform="matrix(0, 0.743952, -0.743952, 0, 12.994502, 154.401326)" fill="none" stroke-linejoin="miter" d="M 3.666341 -0.00213951 L 75.67413 -0.00213951 C 77.695641 -0.00213951 79.339103 1.641323 79.339103 3.662833 C 79.339103 5.689595 77.695641 7.327806 75.67413 7.327806 L 3.666341 7.327806 C 1.639579 7.327806 0.00136792 5.689595 0.00136792 3.662833 C 0.00136792 1.641323 1.639579 -0.00213951 3.666341 -0.00213951 Z M 3.666341 -0.00213951 " stroke="#737373" stroke-width="40" stroke-opacity="1" stroke-miterlimit="4"/></g></g><g clip-path="url(#1012b70dd1)"><g clip-path="url(#a4ae024b9c)"><g transform="matrix(1, 0, 0, 1, 7, 0.00000000000001632)"><g clip-path="url(#29d30bde2a)"><g clip-path="url(#a08ee25ad3)"><g clip-path="url(#7fc80b1b86)"><path fill="#737373" d="M 5.996094 0.496094 L 5.996094 59.59375 L 0.535156 59.59375 L 0.535156 0.496094 Z M 5.996094 0.496094 " fill-opacity="1" fill-rule="nonzero"/></g></g></g></g></g></g><g clip-path="url(#4b50880d32)"><g clip-path="url(#7963df265e)"><path stroke-linecap="butt" transform="matrix(0, 0.743952, -0.743952, 0, 12.994502, 0.526654)" fill="none" stroke-linejoin="miter" d="M 3.665901 -0.00213951 L 75.67369 -0.00213951 C 77.695201 -0.00213951 79.338663 1.641323 79.338663 3.662833 C 79.338663 5.689595 77.695201 7.327806 75.67369 7.327806 L 3.665901 7.327806 C 1.639139 7.327806 0.000927782 5.689595 0.000927782 3.662833 C 0.000927782 1.641323 1.639139 -0.00213951 3.665901 -0.00213951 Z M 3.665901 -0.00213951 " stroke="#737373" stroke-width="40" stroke-opacity="1" stroke-miterlimit="4"/></g></g></svg>