<svg xmlns="http://www.w3.org/2000/svg" xmlns:xlink="http://www.w3.org/1999/xlink" width="600" zoomAndPan="magnify" viewBox="0 0 450 449.999984" height="600" preserveAspectRatio="xMidYMid meet" version="1.0"><defs><clipPath id="54b03035eb"><path d="M 23.25 0 L 426.75 0 C 439.589844 0 450 10.410156 450 23.25 L 450 426.75 C 450 439.589844 439.589844 450 426.75 450 L 23.25 450 C 10.410156 450 0 439.589844 0 426.75 L 0 23.25 C 0 10.410156 10.410156 0 23.25 0 Z M 23.25 0 " clip-rule="nonzero"/></clipPath><clipPath id="387f9b56f1"><path d="M 0 0 L 450 0 L 450 450 L 0 450 Z M 0 0 " clip-rule="nonzero"/></clipPath><clipPath id="2cdcc0dcee"><path d="M 23.25 0 L 426.75 0 C 439.589844 0 450 10.410156 450 23.25 L 450 426.75 C 450 439.589844 439.589844 450 426.75 450 L 23.25 450 C 10.410156 450 0 439.589844 0 426.75 L 0 23.25 C 0 10.410156 10.410156 0 23.25 0 Z M 23.25 0 " clip-rule="nonzero"/></clipPath><clipPath id="c32b393838"><rect x="0" width="450" y="0" height="450"/></clipPath><clipPath id="05cf0e4cac"><path d="M 12.878906 13.429688 L 129.117188 13.429688 L 129.117188 129.667969 L 12.878906 129.667969 Z M 12.878906 13.429688 " clip-rule="nonzero"/></clipPath><clipPath id="4acef9d4cd"><path d="M 70.996094 13.429688 C 38.898438 13.429688 12.878906 39.449219 12.878906 71.550781 C 12.878906 103.648438 38.898438 129.667969 70.996094 129.667969 C 103.09375 129.667969 129.117188 103.648438 129.117188 71.550781 C 129.117188 39.449219 103.09375 13.429688 70.996094 13.429688 Z M 70.996094 13.429688 " clip-rule="nonzero"/></clipPath><clipPath id="531789a471"><path d="M 51.570312 71.550781 L 90.457031 71.550781 L 90.457031 193.683594 L 51.570312 193.683594 Z M 51.570312 71.550781 " clip-rule="nonzero"/></clipPath><clipPath id="a68dc83959"><path d="M 71.015625 71.550781 C 76.171875 71.550781 81.117188 73.601562 84.761719 77.246094 C 88.410156 80.894531 90.457031 85.839844 90.457031 90.996094 L 90.457031 174.175781 C 90.457031 179.332031 88.410156 184.277344 84.761719 187.921875 C 81.117188 191.570312 76.171875 193.617188 71.015625 193.617188 C 65.855469 193.617188 60.910156 191.570312 57.265625 187.921875 C 53.617188 184.277344 51.570312 179.332031 51.570312 174.175781 L 51.570312 90.996094 C 51.570312 85.839844 53.617188 80.894531 57.265625 77.246094 C 60.910156 73.601562 65.855469 71.550781 71.015625 71.550781 Z M 71.015625 71.550781 " clip-rule="nonzero"/></clipPath><clipPath id="3881987abd"><path d="M 0.570312 0.550781 L 39.457031 0.550781 L 39.457031 122.683594 L 0.570312 122.683594 Z M 0.570312 0.550781 " clip-rule="nonzero"/></clipPath><clipPath id="b1a9a28ce8"><path d="M 20.015625 0.550781 C 25.171875 0.550781 30.117188 2.601562 33.761719 6.246094 C 37.410156 9.894531 39.457031 14.839844 39.457031 19.996094 L 39.457031 103.175781 C 39.457031 108.332031 37.410156 113.277344 33.761719 116.921875 C 30.117188 120.570312 25.171875 122.617188 20.015625 122.617188 C 14.855469 122.617188 9.910156 120.570312 6.265625 116.921875 C 2.617188 113.277344 0.570312 108.332031 0.570312 103.175781 L 0.570312 19.996094 C 0.570312 14.839844 2.617188 9.894531 6.265625 6.246094 C 9.910156 2.601562 14.855469 0.550781 20.015625 0.550781 Z M 20.015625 0.550781 " clip-rule="nonzero"/></clipPath><clipPath id="63fb81865a"><rect x="0" width="40" y="0" height="123"/></clipPath><clipPath id="e07d7cdfc5"><rect x="0" width="142" y="0" height="194"/></clipPath></defs><g clip-path="url(#54b03035eb)"><g transform="matrix(1, 0, 0, 1, 0, 0)"><g clip-path="url(#c32b393838)"><g clip-path="url(#387f9b56f1)"><g clip-path="url(#2cdcc0dcee)"><rect x="-99" width="648" fill="#d9d9d9" height="647.999977" y="-98.999996" fill-opacity="1"/></g></g></g></g><path stroke-linecap="butt" transform="matrix(0.75, 0, 0, 0.75, 0.00000815, 0)" fill="none" stroke-linejoin="miter" d="M 30.999992 0 L 569.000033 0 C 586.119826 0 600.000036 13.880209 600.000036 31.000002 L 600.000036 569.000044 C 600.000036 586.119837 586.119826 600.000047 569.000033 600.000047 L 30.999992 600.000047 C 13.880199 600.000047 -0.0000108667 586.119837 -0.0000108667 569.000044 L -0.0000108667 31.000002 C -0.0000108667 13.880209 13.880199 0 30.999992 0 Z M 30.999992 0 " stroke="#000000" stroke-width="8" stroke-opacity="1" stroke-miterlimit="4"/></g><g transform="matrix(1, 0, 0, 1, 154, 141)"><g clip-path="url(#e07d7cdfc5)"><g clip-path="url(#05cf0e4cac)"><g clip-path="url(#4acef9d4cd)"><path stroke-linecap="butt" transform="matrix(2.329129, 0, 0, 2.329129, 12.877793, 13.430335)" fill="none" stroke-linejoin="miter" d="M 24.952801 -0.000277868 C 11.171833 -0.000277868 0.000477937 11.171078 0.000477937 24.953723 C 0.000477937 38.73469 11.171833 49.906046 24.952801 49.906046 C 38.733769 49.906046 49.906802 38.73469 49.906802 24.953723 C 49.906802 11.171078 38.733769 -0.000277868 24.952801 -0.000277868 Z M 24.952801 -0.000277868 " stroke="#000000" stroke-width="2.57607" stroke-opacity="1" stroke-miterlimit="4"/></g></g><g clip-path="url(#531789a471)"><g clip-path="url(#a68dc83959)"><g transform="matrix(1, 0, 0, 1, 51, 71)"><g clip-path="url(#63fb81865a)"><g clip-path="url(#3881987abd)"><g clip-path="url(#b1a9a28ce8)"><path fill="#000000" d="M 0.570312 0.550781 L 39.457031 0.550781 L 39.457031 122.683594 L 0.570312 122.683594 Z M 0.570312 0.550781 " fill-opacity="1" fill-rule="nonzero"/></g></g></g></g></g></g></g></g></svg>