<svg xmlns="http://www.w3.org/2000/svg" xmlns:xlink="http://www.w3.org/1999/xlink" width="600" zoomAndPan="magnify" viewBox="0 0 450 449.999984" height="600" preserveAspectRatio="xMidYMid meet" version="1.0"><defs><clipPath id="9b0b7ecf89"><path d="M 23.25 0 L 426.75 0 C 439.589844 0 450 10.410156 450 23.25 L 450 426.75 C 450 439.589844 439.589844 450 426.75 450 L 23.25 450 C 10.410156 450 0 439.589844 0 426.75 L 0 23.25 C 0 10.410156 10.410156 0 23.25 0 Z M 23.25 0 " clip-rule="nonzero"/></clipPath><clipPath id="b743e5d1c0"><path d="M 0 0 L 450 0 L 450 450 L 0 450 Z M 0 0 " clip-rule="nonzero"/></clipPath><clipPath id="9213301128"><path d="M 23.25 0 L 426.75 0 C 439.589844 0 450 10.410156 450 23.25 L 450 426.75 C 450 439.589844 439.589844 450 426.75 450 L 23.25 450 C 10.410156 450 0 439.589844 0 426.75 L 0 23.25 C 0 10.410156 10.410156 0 23.25 0 Z M 23.25 0 " clip-rule="nonzero"/></clipPath><clipPath id="b1d55d34e7"><rect x="0" width="450" y="0" height="450"/></clipPath><clipPath id="70e427e512"><path d="M 187.238281 172.820312 L 262.761719 172.820312 L 262.761719 277.179688 L 187.238281 277.179688 Z M 187.238281 172.820312 " clip-rule="nonzero"/></clipPath><clipPath id="ae9e478be0"><path d="M 0.238281 0.820312 L 75.761719 0.820312 L 75.761719 105.179688 L 0.238281 105.179688 Z M 0.238281 0.820312 " clip-rule="nonzero"/></clipPath><clipPath id="abee0863d0"><rect x="0" width="76" y="0" height="106"/></clipPath></defs><g clip-path="url(#9b0b7ecf89)"><g transform="matrix(1, 0, 0, 1, 0, 0)"><g clip-path="url(#b1d55d34e7)"><g clip-path="url(#b743e5d1c0)"><g clip-path="url(#9213301128)"><rect x="-99" width="648" fill="#d9d9d9" height="647.999977" y="-98.999996" fill-opacity="1"/></g></g></g></g><path stroke-linecap="butt" transform="matrix(0.75, 0, 0, 0.75, 0.00000815, 0.000000000000085265)" fill="none" stroke-linejoin="miter" d="M 30.999992 -0.000000000000113687 L 569.000033 -0.000000000000113687 C 586.119826 -0.000000000000113687 600.000036 13.880209 600.000036 31.000002 L 600.000036 569.000044 C 600.000036 586.119837 586.119826 600.000047 569.000033 600.000047 L 30.999992 600.000047 C 13.880199 600.000047 -0.0000108667 586.119837 -0.0000108667 569.000044 L -0.0000108667 31.000002 C -0.0000108667 13.880209 13.880199 -0.000000000000113687 30.999992 -0.000000000000113687 Z M 30.999992 -0.000000000000113687 " stroke="#000000" stroke-width="40" stroke-opacity="1" stroke-miterlimit="4"/></g><g clip-path="url(#70e427e512)"><g transform="matrix(1, 0, 0, 1, 187, 172)"><g clip-path="url(#abee0863d0)"><g clip-path="url(#ae9e478be0)"><path fill="#a6a6a6" d="M 0.238281 0.820312 L 75.761719 0.820312 L 75.761719 105.257812 L 0.238281 105.257812 Z M 0.238281 0.820312 " fill-opacity="1" fill-rule="nonzero"/></g></g></g></g></svg>