<svg xmlns="http://www.w3.org/2000/svg" xmlns:xlink="http://www.w3.org/1999/xlink" width="600" zoomAndPan="magnify" viewBox="0 0 450 449.999984" height="600" preserveAspectRatio="xMidYMid meet" version="1.0"><defs><clipPath id="a8427e7d32"><path d="M 23.25 0 L 426.75 0 C 439.589844 0 450 10.410156 450 23.25 L 450 426.75 C 450 439.589844 439.589844 450 426.75 450 L 23.25 450 C 10.410156 450 0 439.589844 0 426.75 L 0 23.25 C 0 10.410156 10.410156 0 23.25 0 Z M 23.25 0 " clip-rule="nonzero"/></clipPath><clipPath id="d8518737e1"><path d="M 0 0 L 450 0 L 450 450 L 0 450 Z M 0 0 " clip-rule="nonzero"/></clipPath><clipPath id="befd1a11c1"><path d="M 23.25 0 L 426.75 0 C 439.589844 0 450 10.410156 450 23.25 L 450 426.75 C 450 439.589844 439.589844 450 426.75 450 L 23.25 450 C 10.410156 450 0 439.589844 0 426.75 L 0 23.25 C 0 10.410156 10.410156 0 23.25 0 Z M 23.25 0 " clip-rule="nonzero"/></clipPath><clipPath id="e515a84b0b"><rect x="0" width="450" y="0" height="450"/></clipPath><clipPath id="8ef1aca526"><path d="M 176.46875 176.46875 L 273.53125 176.46875 L 273.53125 273.53125 L 176.46875 273.53125 Z M 176.46875 176.46875 " clip-rule="nonzero"/></clipPath><clipPath id="c8408e2d2f"><path d="M 225 176.46875 C 198.199219 176.46875 176.46875 198.199219 176.46875 225 C 176.46875 251.800781 198.199219 273.53125 225 273.53125 C 251.800781 273.53125 273.53125 251.800781 273.53125 225 C 273.53125 198.199219 251.800781 176.46875 225 176.46875 Z M 225 176.46875 " clip-rule="nonzero"/></clipPath><clipPath id="71f7e133fe"><path d="M 0.46875 0.46875 L 97.53125 0.46875 L 97.53125 97.53125 L 0.46875 97.53125 Z M 0.46875 0.46875 " clip-rule="nonzero"/></clipPath><clipPath id="f0bad5e622"><path d="M 49 0.46875 C 22.199219 0.46875 0.46875 22.199219 0.46875 49 C 0.46875 75.800781 22.199219 97.53125 49 97.53125 C 75.800781 97.53125 97.53125 75.800781 97.53125 49 C 97.53125 22.199219 75.800781 0.46875 49 0.46875 Z M 49 0.46875 " clip-rule="nonzero"/></clipPath><clipPath id="abccdfaad0"><rect x="0" width="98" y="0" height="98"/></clipPath></defs><g clip-path="url(#a8427e7d32)"><g transform="matrix(1, 0, 0, 1, 0, 0)"><g clip-path="url(#e515a84b0b)"><g clip-path="url(#d8518737e1)"><g clip-path="url(#befd1a11c1)"><rect x="-99" width="648" fill="#d9d9d9" height="647.999977" y="-98.999996" fill-opacity="1"/></g></g></g></g><path stroke-linecap="butt" transform="matrix(0.75, 0, 0, 0.75, 0.00000815, 0.000000000000085265)" fill="none" stroke-linejoin="miter" d="M 30.999992 -0.000000000000113687 L 569.000033 -0.000000000000113687 C 586.119826 -0.000000000000113687 600.000036 13.880209 600.000036 31.000002 L 600.000036 569.000044 C 600.000036 586.119837 586.119826 600.000047 569.000033 600.000047 L 30.999992 600.000047 C 13.880199 600.000047 -0.0000108667 586.119837 -0.0000108667 569.000044 L -0.0000108667 31.000002 C -0.0000108667 13.880209 13.880199 -0.000000000000113687 30.999992 -0.000000000000113687 Z M 30.999992 -0.000000000000113687 " stroke="#000000" stroke-width="40" stroke-opacity="1" stroke-miterlimit="4"/></g><g clip-path="url(#8ef1aca526)"><g clip-path="url(#c8408e2d2f)"><g transform="matrix(1, 0, 0, 1, 176, 176)"><g clip-path="url(#abccdfaad0)"><g clip-path="url(#71f7e133fe)"><g clip-path="url(#f0bad5e622)"><path fill="#cfcfcf" d="M 0.46875 0.46875 L 97.53125 0.46875 L 97.53125 97.53125 L 0.46875 97.53125 Z M 0.46875 0.46875 " fill-opacity="1" fill-rule="nonzero"/></g></g></g></g></g></g></svg>