<svg xmlns="http://www.w3.org/2000/svg" xmlns:xlink="http://www.w3.org/1999/xlink" width="587" zoomAndPan="magnify" viewBox="0 0 440.25 440.249989" height="587" preserveAspectRatio="xMidYMid meet" version="1.0"><defs><clipPath id="fb992d82f9"><path d="M 0 0 L 439.40625 0 L 439.40625 439.40625 L 0 439.40625 Z M 0 0 " clip-rule="nonzero"/></clipPath><clipPath id="2879f79608"><path d="M 416.195312 439.40625 L 23.203125 439.40625 C 10.382812 439.40625 -0.0078125 429.015625 -0.0078125 416.195312 L -0.0078125 23.203125 C -0.0078125 10.382812 10.382812 -0.0078125 23.203125 -0.0078125 L 416.195312 -0.0078125 C 429.015625 -0.0078125 439.40625 10.382812 439.40625 23.203125 L 439.40625 416.195312 C 439.40625 429.015625 429.015625 439.40625 416.195312 439.40625 Z M 416.195312 439.40625 " clip-rule="nonzero"/></clipPath><clipPath id="aa9e0a9ab0"><path d="M 0 0 L 439.40625 0 L 439.40625 439.40625 L 0 439.40625 Z M 0 0 " clip-rule="nonzero"/></clipPath><clipPath id="0bb679fd92"><path d="M 416.195312 439.40625 L 23.203125 439.40625 C 10.382812 439.40625 -0.0078125 429.015625 -0.0078125 416.195312 L -0.0078125 23.203125 C -0.0078125 10.382812 10.382812 -0.0078125 23.203125 -0.0078125 L 416.195312 -0.0078125 C 429.015625 -0.0078125 439.40625 10.382812 439.40625 23.203125 L 439.40625 416.195312 C 439.40625 429.015625 429.015625 439.40625 416.195312 439.40625 Z M 416.195312 439.40625 " clip-rule="nonzero"/></clipPath><clipPath id="3499496e63"><rect x="0" width="440" y="0" height="440"/></clipPath><clipPath id="15d8553f38"><path d="M 0 0 L 439.40625 0 L 439.40625 439.40625 L 0 439.40625 Z M 0 0 " clip-rule="nonzero"/></clipPath><clipPath id="3d907f25a6"><path d="M 416.199219 439.40625 L 23.210938 439.40625 C 10.390625 439.40625 0 429.015625 0 416.199219 L 0 23.210938 C 0 10.390625 10.390625 0 23.210938 0 L 416.199219 0 C 429.015625 0 439.40625 10.390625 439.40625 23.210938 L 439.40625 416.199219 C 439.40625 429.015625 429.015625 439.40625 416.199219 439.40625 Z M 416.199219 439.40625 " clip-rule="nonzero"/></clipPath><clipPath id="9e21b41e7a"><path d="M 0 0 L 439.5 0 L 439.5 439.5 L 0 439.5 Z M 0 0 " clip-rule="nonzero"/></clipPath><clipPath id="e071ab49ed"><path d="M 313.050781 364.476562 L 407.164062 364.476562 L 407.164062 379.433594 L 313.050781 379.433594 Z M 313.050781 364.476562 " clip-rule="nonzero"/></clipPath><clipPath id="4578fa4cc7"><path d="M 0.0507812 0.476562 L 94.164062 0.476562 L 94.164062 15.433594 L 0.0507812 15.433594 Z M 0.0507812 0.476562 " clip-rule="nonzero"/></clipPath><clipPath id="8623d0a86f"><rect x="0" width="95" y="0" height="16"/></clipPath><clipPath id="0e4ccb8fba"><path d="M 313.050781 339 L 407.164062 339 L 407.164062 353.957031 L 313.050781 353.957031 Z M 313.050781 339 " clip-rule="nonzero"/></clipPath><clipPath id="ac268987b6"><path d="M 0.0507812 0 L 94.164062 0 L 94.164062 14.957031 L 0.0507812 14.957031 Z M 0.0507812 0 " clip-rule="nonzero"/></clipPath><clipPath id="13a2419c7d"><rect x="0" width="95" y="0" height="15"/></clipPath><clipPath id="b5038e5124"><path d="M 30.367188 42.582031 L 130.699219 42.582031 L 130.699219 80.015625 L 30.367188 80.015625 Z M 30.367188 42.582031 " clip-rule="nonzero"/></clipPath></defs><g clip-path="url(#fb992d82f9)"><g clip-path="url(#2879f79608)"><g><g clip-path="url(#3499496e63)"><g clip-path="url(#aa9e0a9ab0)"><g clip-path="url(#0bb679fd92)"><path fill="#d9d9d9" d="M 439.40625 439.40625 L -0.0078125 439.40625 L -0.0078125 -0.0078125 L 439.40625 -0.0078125 Z M 439.40625 439.40625 " fill-opacity="1" fill-rule="nonzero"/></g></g></g></g></g></g><g clip-path="url(#15d8553f38)"><g clip-path="url(#3d907f25a6)"><path stroke-linecap="butt" transform="matrix(-0.748724, 0, 0, -0.748724, 439.407667, 439.407662)" fill="none" stroke-linejoin="miter" d="M 30.997316 0.00188541 L 555.874374 0.00188541 C 572.997246 0.00188541 586.875015 13.879655 586.875015 30.997309 L 586.875015 555.874367 C 586.875015 572.997239 572.997246 586.875008 555.874374 586.875008 L 30.997316 586.875008 C 13.879662 586.875008 0.00189275 572.997239 0.00189275 555.874367 L 0.00189275 30.997309 C 0.00189275 13.879655 13.879662 0.00188541 30.997316 0.00188541 Z M 30.997316 0.00188541 " stroke="#000000" stroke-width="40" stroke-opacity="1" stroke-miterlimit="4"/></g></g><g clip-path="url(#9e21b41e7a)"><path stroke-linecap="butt" transform="matrix(-0.529428, 0.529428, -0.529428, -0.529428, 435.593533, 14.408776)" fill="none" stroke-linejoin="miter" d="M -0.00259032 9.999701 L 800.204877 9.999701 " stroke="#000000" stroke-width="20" stroke-opacity="1" stroke-miterlimit="4"/></g><g clip-path="url(#e071ab49ed)"><g transform="matrix(1, 0, 0, 1, 313, 364)"><g clip-path="url(#8623d0a86f)"><g clip-path="url(#4578fa4cc7)"><path fill="#000000" d="M 94.164062 15.433594 L 0.078125 15.433594 L 0.078125 0.476562 L 94.164062 0.476562 Z M 94.164062 15.433594 " fill-opacity="1" fill-rule="nonzero"/></g></g></g></g><g clip-path="url(#0e4ccb8fba)"><g transform="matrix(1, 0, 0, 1, 313, 339)"><g clip-path="url(#13a2419c7d)"><g clip-path="url(#ac268987b6)"><path fill="#000000" d="M 94.164062 14.957031 L 0.078125 14.957031 L 0.078125 0 L 94.164062 0 Z M 94.164062 14.957031 " fill-opacity="1" fill-rule="nonzero"/></g></g></g></g><g clip-path="url(#b5038e5124)"><path fill="#000000" d="M 130.695312 46.796875 C 130.695312 54.644531 129.484375 61.289062 126.769531 66.117188 C 124.050781 70.949219 120.429688 74.570312 115.898438 76.683594 C 111.371094 78.796875 106.84375 80.007812 102.011719 80.007812 C 97.183594 80.007812 92.652344 78.796875 88.425781 76.683594 C 84.199219 74.570312 79.671875 71.25 74.539062 66.722656 C 70.914062 63.703125 68.199219 61.589844 66.085938 60.082031 C 63.972656 58.871094 61.558594 58.269531 59.140625 58.269531 C 54.914062 58.269531 51.59375 59.777344 49.179688 62.796875 C 46.761719 65.816406 45.554688 70.042969 45.855469 75.78125 L 30.15625 75.78125 C 30.15625 67.929688 31.367188 61.289062 34.082031 56.457031 C 36.800781 51.625 40.421875 48.003906 44.953125 45.890625 C 49.480469 43.777344 54.007812 42.570312 58.839844 42.570312 C 63.667969 42.570312 68.199219 43.777344 72.125 45.890625 C 76.046875 48.003906 80.878906 51.324219 86.011719 55.851562 C 89.632812 58.871094 92.351562 60.984375 94.464844 62.496094 C 96.578125 63.703125 98.992188 64.308594 101.410156 64.308594 C 105.332031 64.308594 108.652344 62.796875 111.070312 60.082031 C 113.484375 57.363281 114.691406 52.835938 114.691406 46.496094 L 130.695312 46.496094 Z M 130.695312 46.796875 " fill-opacity="1" fill-rule="nonzero"/></g></svg>