<svg xmlns="http://www.w3.org/2000/svg" xmlns:xlink="http://www.w3.org/1999/xlink" width="587" zoomAndPan="magnify" viewBox="0 0 440.25 440.249989" height="587" preserveAspectRatio="xMidYMid meet" version="1.0"><defs><clipPath id="bc8b6cce1c"><path d="M 0 0 L 439.414062 0 L 439.414062 439.414062 L 0 439.414062 Z M 0 0 " clip-rule="nonzero"/></clipPath><clipPath id="b73eef94ba"><path d="M 23.210938 0 L 416.203125 0 C 429.023438 0 439.414062 10.390625 439.414062 23.210938 L 439.414062 416.203125 C 439.414062 429.023438 429.023438 439.414062 416.203125 439.414062 L 23.210938 439.414062 C 10.390625 439.414062 0 429.023438 0 416.203125 L 0 23.210938 C 0 10.390625 10.390625 0 23.210938 0 Z M 23.210938 0 " clip-rule="nonzero"/></clipPath><clipPath id="968f31cbf4"><path d="M 0 0 L 439.414062 0 L 439.414062 439.414062 L 0 439.414062 Z M 0 0 " clip-rule="nonzero"/></clipPath><clipPath id="8abefe8edd"><path d="M 23.210938 0 L 416.203125 0 C 429.023438 0 439.414062 10.390625 439.414062 23.210938 L 439.414062 416.203125 C 439.414062 429.023438 429.023438 439.414062 416.203125 439.414062 L 23.210938 439.414062 C 10.390625 439.414062 0 429.023438 0 416.203125 L 0 23.210938 C 0 10.390625 10.390625 0 23.210938 0 Z M 23.210938 0 " clip-rule="nonzero"/></clipPath><clipPath id="bf41d0d08f"><rect x="0" width="440" y="0" height="440"/></clipPath><clipPath id="77b3186e58"><path d="M 0 0 L 439.40625 0 L 439.40625 439.40625 L 0 439.40625 Z M 0 0 " clip-rule="nonzero"/></clipPath><clipPath id="dc1a1a6f95"><path d="M 23.210938 0 L 416.199219 0 C 429.015625 0 439.40625 10.390625 439.40625 23.210938 L 439.40625 416.199219 C 439.40625 429.015625 429.015625 439.40625 416.199219 439.40625 L 23.210938 439.40625 C 10.390625 439.40625 0 429.015625 0 416.199219 L 0 23.210938 C 0 10.390625 10.390625 0 23.210938 0 Z M 23.210938 0 " clip-rule="nonzero"/></clipPath><clipPath id="480f7a5bd7"><path d="M 0 0 L 439.5 0 L 439.5 439.5 L 0 439.5 Z M 0 0 " clip-rule="nonzero"/></clipPath><clipPath id="e49774f97a"><path d="M 32.242188 59.972656 L 126.355469 59.972656 L 126.355469 74.929688 L 32.242188 74.929688 Z M 32.242188 59.972656 " clip-rule="nonzero"/></clipPath><clipPath id="497e310121"><path d="M 0.242188 0.972656 L 94.355469 0.972656 L 94.355469 15.929688 L 0.242188 15.929688 Z M 0.242188 0.972656 " clip-rule="nonzero"/></clipPath><clipPath id="cab75ea00a"><rect x="0" width="95" y="0" height="16"/></clipPath><clipPath id="1283f217d4"><path d="M 32.242188 85.449219 L 126.355469 85.449219 L 126.355469 100.40625 L 32.242188 100.40625 Z M 32.242188 85.449219 " clip-rule="nonzero"/></clipPath><clipPath id="2ce7e1c7ac"><path d="M 0.242188 0.449219 L 94.355469 0.449219 L 94.355469 15.40625 L 0.242188 15.40625 Z M 0.242188 0.449219 " clip-rule="nonzero"/></clipPath><clipPath id="6c423a64d0"><rect x="0" width="95" y="0" height="16"/></clipPath><clipPath id="77f31d39be"><path d="M 308.707031 359.390625 L 409.035156 359.390625 L 409.035156 396.828125 L 308.707031 396.828125 Z M 308.707031 359.390625 " clip-rule="nonzero"/></clipPath></defs><g clip-path="url(#bc8b6cce1c)"><g clip-path="url(#b73eef94ba)"><g><g clip-path="url(#bf41d0d08f)"><g clip-path="url(#968f31cbf4)"><g clip-path="url(#8abefe8edd)"><path fill="#d9d9d9" d="M 0 0 L 439.414062 0 L 439.414062 439.414062 L 0 439.414062 Z M 0 0 " fill-opacity="1" fill-rule="nonzero"/></g></g></g></g></g></g><g clip-path="url(#77b3186e58)"><g clip-path="url(#dc1a1a6f95)"><path stroke-linecap="butt" transform="matrix(0.748724, 0, 0, 0.748724, 0.0000055, 0.00000000000004256)" fill="none" stroke-linejoin="miter" d="M 31.000634 -0.000000000000056843 L 555.877692 -0.000000000000056843 C 572.995346 -0.000000000000056843 586.873115 13.877769 586.873115 31.000641 L 586.873115 555.877699 C 586.873115 572.995353 572.995346 586.873123 555.877692 586.873123 L 31.000634 586.873123 C 13.877762 586.873123 -0.00000734583 572.995353 -0.00000734583 555.877699 L -0.00000734583 31.000641 C -0.00000734583 13.877769 13.877762 -0.000000000000056843 31.000634 -0.000000000000056843 Z M 31.000634 -0.000000000000056843 " stroke="#000000" stroke-width="40" stroke-opacity="1" stroke-miterlimit="4"/></g></g><g clip-path="url(#480f7a5bd7)"><path stroke-linecap="butt" transform="matrix(0.529428, -0.529428, 0.529428, 0.529428, 3.818825, 425.006324)" fill="none" stroke-linejoin="miter" d="M -0.000000181063 10.000331 L 800.207467 10.000331 " stroke="#000000" stroke-width="20" stroke-opacity="1" stroke-miterlimit="4"/></g><g clip-path="url(#e49774f97a)"><g transform="matrix(1, 0, 0, 1, 32, 59)"><g clip-path="url(#cab75ea00a)"><g clip-path="url(#497e310121)"><path fill="#000000" d="M 0.242188 0.972656 L 94.328125 0.972656 L 94.328125 15.929688 L 0.242188 15.929688 Z M 0.242188 0.972656 " fill-opacity="1" fill-rule="nonzero"/></g></g></g></g><g clip-path="url(#1283f217d4)"><g transform="matrix(1, 0, 0, 1, 32, 85)"><g clip-path="url(#6c423a64d0)"><g clip-path="url(#2ce7e1c7ac)"><path fill="#000000" d="M 0.242188 0.449219 L 94.328125 0.449219 L 94.328125 15.40625 L 0.242188 15.40625 Z M 0.242188 0.449219 " fill-opacity="1" fill-rule="nonzero"/></g></g></g></g><g clip-path="url(#77f31d39be)"><path fill="#000000" d="M 308.710938 392.613281 C 308.710938 384.761719 309.917969 378.121094 312.636719 373.289062 C 315.355469 368.460938 318.976562 364.835938 323.503906 362.722656 C 328.035156 360.609375 332.5625 359.402344 337.394531 359.402344 C 342.222656 359.402344 346.753906 360.609375 350.980469 362.722656 C 355.207031 364.835938 359.734375 368.15625 364.867188 372.6875 C 368.488281 375.707031 371.207031 377.820312 373.320312 379.328125 C 375.433594 380.535156 377.847656 381.140625 380.265625 381.140625 C 384.492188 381.140625 387.8125 379.628906 390.226562 376.609375 C 392.640625 373.59375 393.851562 369.363281 393.546875 363.628906 L 409.246094 363.628906 C 409.246094 371.480469 408.039062 378.121094 405.320312 382.949219 C 402.605469 387.78125 398.980469 391.40625 394.453125 393.519531 C 389.925781 395.632812 385.394531 396.839844 380.566406 396.839844 C 375.734375 396.839844 371.207031 395.632812 367.28125 393.519531 C 363.355469 391.40625 358.527344 388.082031 353.394531 383.554688 C 349.769531 380.535156 347.054688 378.421875 344.941406 376.914062 C 342.828125 375.707031 340.410156 375.101562 337.996094 375.101562 C 334.070312 375.101562 330.75 376.609375 328.335938 379.328125 C 325.921875 382.046875 324.714844 386.574219 324.714844 392.914062 L 308.710938 392.914062 Z M 308.710938 392.613281 " fill-opacity="1" fill-rule="nonzero"/></g></svg>