<svg xmlns="http://www.w3.org/2000/svg" xmlns:xlink="http://www.w3.org/1999/xlink" width="611" zoomAndPan="magnify" viewBox="0 0 458.25 458.249989" height="611" preserveAspectRatio="xMidYMid meet" version="1.0"><defs><clipPath id="31f506b227"><path d="M 3 3 L 454 3 L 454 454 L 3 454 Z M 3 3 " clip-rule="nonzero"/></clipPath><clipPath id="f5b7579d60"><path d="M 7.996094 0 L 457.191406 7.996094 L 449.195312 457.191406 L 0 449.195312 Z M 7.996094 0 " clip-rule="nonzero"/></clipPath><clipPath id="3d4142ab07"><path d="M 7.996094 0 L 457.191406 7.996094 L 449.195312 457.191406 L 0 449.195312 Z M 7.996094 0 " clip-rule="nonzero"/></clipPath><clipPath id="2fe16bc18f"><path d="M 232.59375 4 C 108.554688 1.789062 6.207031 100.554688 4 224.597656 C 1.789062 348.636719 100.554688 450.984375 224.597656 453.191406 C 348.636719 455.402344 450.984375 356.636719 453.191406 232.59375 C 455.402344 108.554688 356.636719 6.207031 232.59375 4 Z M 232.59375 4 " clip-rule="nonzero"/></clipPath><clipPath id="d3d89e8e0e"><path d="M 217 217 L 240 217 L 240 240 L 217 240 Z M 217 217 " clip-rule="nonzero"/></clipPath><clipPath id="1344da8a33"><path d="M 217.199219 217.425781 L 239.765625 217.199219 L 239.992188 239.765625 L 217.425781 239.992188 Z M 217.199219 217.425781 " clip-rule="nonzero"/></clipPath><clipPath id="b64c17936e"><path d="M 228.480469 217.3125 C 222.25 217.375 217.25 222.476562 217.3125 228.710938 C 217.375 234.941406 222.476562 239.941406 228.710938 239.878906 C 234.941406 239.816406 239.941406 234.710938 239.878906 228.480469 C 239.816406 222.25 234.710938 217.25 228.480469 217.3125 Z M 228.480469 217.3125 " clip-rule="nonzero"/></clipPath><clipPath id="0012028cf2"><path d="M 0.0859375 0.0859375 L 23 0.0859375 L 23 23 L 0.0859375 23 Z M 0.0859375 0.0859375 " clip-rule="nonzero"/></clipPath><clipPath id="563f379bcb"><path d="M 0.199219 0.425781 L 22.765625 0.199219 L 22.992188 22.765625 L 0.425781 22.992188 Z M 0.199219 0.425781 " clip-rule="nonzero"/></clipPath><clipPath id="1d1fb8ea26"><path d="M 11.480469 0.3125 C 5.25 0.375 0.25 5.476562 0.3125 11.710938 C 0.375 17.941406 5.476562 22.941406 11.710938 22.878906 C 17.941406 22.816406 22.941406 17.710938 22.878906 11.480469 C 22.816406 5.25 17.710938 0.25 11.480469 0.3125 Z M 11.480469 0.3125 " clip-rule="nonzero"/></clipPath><clipPath id="e88f2d5c77"><rect x="0" width="23" y="0" height="23"/></clipPath><clipPath id="73b68ccfb3"><path d="M 229 209 L 454 209 L 454 247 L 229 247 Z M 229 209 " clip-rule="nonzero"/></clipPath><clipPath id="7c7ddc0282"><path d="M 229.203125 211.101562 L 452.957031 208.847656 L 453.335938 246.53125 L 229.585938 248.785156 Z M 229.203125 211.101562 " clip-rule="nonzero"/></clipPath><clipPath id="a55b008efb"><path d="M 453.039062 227.6875 L 422.097656 209.15625 L 422.25 224.53125 L 229.359375 226.476562 L 229.429688 233.410156 L 422.320312 231.464844 L 422.476562 246.839844 Z M 453.039062 227.6875 " clip-rule="nonzero"/></clipPath><clipPath id="dcd7373411"><path d="M 0.304688 0 L 224.097656 0 L 224.097656 38 L 0.304688 38 Z M 0.304688 0 " clip-rule="nonzero"/></clipPath><clipPath id="cb6605ea26"><path d="M 0.203125 2.101562 L 223.957031 -0.152344 L 224.335938 37.53125 L 0.585938 39.785156 Z M 0.203125 2.101562 " clip-rule="nonzero"/></clipPath><clipPath id="40eb5575d2"><path d="M 224.039062 18.6875 L 193.097656 0.15625 L 193.25 15.53125 L 0.359375 17.476562 L 0.429688 24.410156 L 193.320312 22.464844 L 193.476562 37.839844 Z M 224.039062 18.6875 " clip-rule="nonzero"/></clipPath><clipPath id="367e439640"><rect x="0" width="225" y="0" height="38"/></clipPath><clipPath id="a9d4d6ad17"><path d="M 259 232 L 270 232 L 270 250 L 259 250 Z M 259 232 " clip-rule="nonzero"/></clipPath><clipPath id="b2ebd202f8"><path d="M 259.6875 232.207031 L 269.667969 232.105469 L 269.84375 249.644531 L 259.863281 249.746094 Z M 259.6875 232.207031 " clip-rule="nonzero"/></clipPath><clipPath id="531a1db7a2"><path d="M 0.496094 0 L 11 0 L 11 17.910156 L 0.496094 17.910156 Z M 0.496094 0 " clip-rule="nonzero"/></clipPath><clipPath id="814f9624d5"><path d="M 0.6875 0.207031 L 10.667969 0.105469 L 10.84375 17.644531 L 0.863281 17.746094 Z M 0.6875 0.207031 " clip-rule="nonzero"/></clipPath><clipPath id="594994a522"><rect x="0" width="11" y="0" height="18"/></clipPath><clipPath id="4004b60bcc"><path d="M 259 232 L 270 232 L 270 250 L 259 250 Z M 259 232 " clip-rule="nonzero"/></clipPath><clipPath id="5443b06045"><path d="M 259.6875 232.207031 L 269.421875 232.109375 L 269.59375 249.328125 L 259.863281 249.425781 Z M 259.6875 232.207031 " clip-rule="nonzero"/></clipPath><clipPath id="875473fd64"><path d="M 259.6875 232.214844 L 269.65625 232.113281 L 269.832031 249.632812 L 259.863281 249.734375 Z M 259.6875 232.214844 " clip-rule="nonzero"/></clipPath><clipPath id="4efbeadc77"><path d="M 254 249 L 276 249 L 276 263 L 254 263 Z M 254 249 " clip-rule="nonzero"/></clipPath><clipPath id="402c8f0315"><path d="M 254.492188 249.800781 L 275.261719 249.589844 L 275.390625 262.464844 L 254.621094 262.671875 Z M 254.492188 249.800781 " clip-rule="nonzero"/></clipPath><clipPath id="605e9f03c4"><path d="M 259.953125 249.746094 L 269.757812 249.644531 L 275.347656 262.464844 L 254.621094 262.671875 Z M 259.953125 249.746094 " clip-rule="nonzero"/></clipPath><clipPath id="25e4e4fc2e"><path d="M 0.464844 0.433594 L 21.550781 0.433594 L 21.550781 13.851562 L 0.464844 13.851562 Z M 0.464844 0.433594 " clip-rule="nonzero"/></clipPath><clipPath id="f5ee12979a"><path d="M 0.492188 0.800781 L 21.261719 0.589844 L 21.390625 13.464844 L 0.621094 13.671875 Z M 0.492188 0.800781 " clip-rule="nonzero"/></clipPath><clipPath id="fe58d65e2a"><path d="M 5.953125 0.746094 L 15.757812 0.644531 L 21.347656 13.464844 L 0.621094 13.671875 Z M 5.953125 0.746094 " clip-rule="nonzero"/></clipPath><clipPath id="78a92384f9"><rect x="0" width="22" y="0" height="14"/></clipPath><clipPath id="c761f01f4d"><path d="M 330 231 L 341 231 L 341 250 L 330 250 Z M 330 231 " clip-rule="nonzero"/></clipPath><clipPath id="3a47c66092"><path d="M 330.386719 231.492188 L 340.367188 231.390625 L 340.542969 248.929688 L 330.5625 249.03125 Z M 330.386719 231.492188 " clip-rule="nonzero"/></clipPath><clipPath id="50e7dc9c5d"><path d="M 0.179688 0.222656 L 10.722656 0.222656 L 10.722656 18.191406 L 0.179688 18.191406 Z M 0.179688 0.222656 " clip-rule="nonzero"/></clipPath><clipPath id="92c67bf895"><path d="M 0.386719 0.492188 L 10.367188 0.390625 L 10.542969 17.929688 L 0.5625 18.03125 Z M 0.386719 0.492188 " clip-rule="nonzero"/></clipPath><clipPath id="1ff2142179"><rect x="0" width="11" y="0" height="19"/></clipPath><clipPath id="7fb15a2483"><path d="M 330 231 L 341 231 L 341 249 L 330 249 Z M 330 231 " clip-rule="nonzero"/></clipPath><clipPath id="e651d3c747"><path d="M 330.386719 231.492188 L 340.121094 231.394531 L 340.292969 248.617188 L 330.5625 248.714844 Z M 330.386719 231.492188 " clip-rule="nonzero"/></clipPath><clipPath id="7705090ee4"><path d="M 330.386719 231.5 L 340.355469 231.398438 L 340.53125 248.921875 L 330.5625 249.023438 Z M 330.386719 231.5 " clip-rule="nonzero"/></clipPath><clipPath id="cf537191e3"><path d="M 325 248 L 347 248 L 347 262 L 325 262 Z M 325 248 " clip-rule="nonzero"/></clipPath><clipPath id="8e89fe865f"><path d="M 325.191406 249.085938 L 345.960938 248.878906 L 346.089844 261.75 L 325.320312 261.960938 Z M 325.191406 249.085938 " clip-rule="nonzero"/></clipPath><clipPath id="3c3575efaf"><path d="M 330.652344 249.03125 L 340.457031 248.933594 L 346.046875 261.75 L 325.320312 261.960938 Z M 330.652344 249.03125 " clip-rule="nonzero"/></clipPath><clipPath id="11f23bc96e"><path d="M 0.148438 0.714844 L 21.234375 0.714844 L 21.234375 14 L 0.148438 14 Z M 0.148438 0.714844 " clip-rule="nonzero"/></clipPath><clipPath id="feedfe7941"><path d="M 0.191406 1.085938 L 20.960938 0.878906 L 21.089844 13.75 L 0.320312 13.960938 Z M 0.191406 1.085938 " clip-rule="nonzero"/></clipPath><clipPath id="1fc94e9071"><path d="M 5.652344 1.03125 L 15.457031 0.933594 L 21.046875 13.75 L 0.320312 13.960938 Z M 5.652344 1.03125 " clip-rule="nonzero"/></clipPath><clipPath id="0d5b29e908"><rect x="0" width="22" y="0" height="14"/></clipPath><clipPath id="11a747e811"><path d="M 392 230 L 404 230 L 404 249 L 392 249 Z M 392 230 " clip-rule="nonzero"/></clipPath><clipPath id="9e78df4761"><path d="M 392.910156 230.863281 L 402.886719 230.761719 L 403.066406 248.300781 L 393.085938 248.402344 Z M 392.910156 230.863281 " clip-rule="nonzero"/></clipPath><clipPath id="622a142d95"><path d="M 0.71875 0.742188 L 11.261719 0.742188 L 11.261719 18.472656 L 0.71875 18.472656 Z M 0.71875 0.742188 " clip-rule="nonzero"/></clipPath><clipPath id="e3bae410d2"><path d="M 0.910156 0.863281 L 10.886719 0.761719 L 11.066406 18.300781 L 1.085938 18.402344 Z M 0.910156 0.863281 " clip-rule="nonzero"/></clipPath><clipPath id="5b43824cf0"><rect x="0" width="12" y="0" height="19"/></clipPath><clipPath id="7b3e814204"><path d="M 392 230 L 403 230 L 403 249 L 392 249 Z M 392 230 " clip-rule="nonzero"/></clipPath><clipPath id="0b7c919499"><path d="M 392.910156 230.863281 L 402.644531 230.765625 L 402.816406 247.984375 L 393.082031 248.082031 Z M 392.910156 230.863281 " clip-rule="nonzero"/></clipPath><clipPath id="100fb5f221"><path d="M 392.910156 230.871094 L 402.878906 230.769531 L 403.054688 248.292969 L 393.085938 248.390625 Z M 392.910156 230.871094 " clip-rule="nonzero"/></clipPath><clipPath id="33fc7fd679"><path d="M 387 248 L 409 248 L 409 262 L 387 262 Z M 387 248 " clip-rule="nonzero"/></clipPath><clipPath id="e282e9d8aa"><path d="M 387.714844 248.457031 L 408.480469 248.246094 L 408.613281 261.121094 L 387.84375 261.328125 Z M 387.714844 248.457031 " clip-rule="nonzero"/></clipPath><clipPath id="460dc4f2dd"><path d="M 393.171875 248.402344 L 402.976562 248.300781 L 408.566406 261.121094 L 387.84375 261.328125 Z M 393.171875 248.402344 " clip-rule="nonzero"/></clipPath><clipPath id="e77a5834b7"><path d="M 0.683594 0.234375 L 21.769531 0.234375 L 21.769531 13.414062 L 0.683594 13.414062 Z M 0.683594 0.234375 " clip-rule="nonzero"/></clipPath><clipPath id="6cf6bf9d35"><path d="M 0.714844 0.457031 L 21.480469 0.246094 L 21.613281 13.121094 L 0.84375 13.328125 Z M 0.714844 0.457031 " clip-rule="nonzero"/></clipPath><clipPath id="f17224fe0d"><path d="M 6.171875 0.402344 L 15.976562 0.300781 L 21.566406 13.121094 L 0.84375 13.328125 Z M 6.171875 0.402344 " clip-rule="nonzero"/></clipPath><clipPath id="87d721779a"><rect x="0" width="22" y="0" height="14"/></clipPath><clipPath id="d590878ecb"><path d="M 330 262 L 335 262 L 335 269 L 330 269 Z M 330 262 " clip-rule="nonzero"/></clipPath><clipPath id="85398095b5"><path d="M 329.882812 262.664062 L 341.863281 262.542969 L 342.027344 279.015625 L 330.046875 279.132812 Z M 329.882812 262.664062 " clip-rule="nonzero"/></clipPath><clipPath id="c38bf0b924"><path d="M 329.882812 262.664062 L 341.863281 262.542969 L 342.027344 279.015625 L 330.046875 279.132812 Z M 329.882812 262.664062 " clip-rule="nonzero"/></clipPath><clipPath id="6bd9b285ea"><path d="M 329.882812 262.664062 L 341.863281 262.542969 L 342.027344 279.015625 L 330.046875 279.132812 Z M 329.882812 262.664062 " clip-rule="nonzero"/></clipPath><clipPath id="d9bb2195c9"><path d="M 332 264 L 335 264 L 335 269 L 332 269 Z M 332 264 " clip-rule="nonzero"/></clipPath><clipPath id="583acbc695"><path d="M 329.882812 262.664062 L 341.863281 262.542969 L 342.027344 279.015625 L 330.046875 279.132812 Z M 329.882812 262.664062 " clip-rule="nonzero"/></clipPath><clipPath id="eabde97801"><path d="M 329.882812 262.664062 L 341.863281 262.542969 L 342.027344 279.015625 L 330.046875 279.132812 Z M 329.882812 262.664062 " clip-rule="nonzero"/></clipPath><clipPath id="9edc10a4d1"><path d="M 329.882812 262.664062 L 341.863281 262.542969 L 342.027344 279.015625 L 330.046875 279.132812 Z M 329.882812 262.664062 " clip-rule="nonzero"/></clipPath><clipPath id="ae2e9dce19"><path d="M 330 266 L 332 266 L 332 269 L 330 269 Z M 330 266 " clip-rule="nonzero"/></clipPath><clipPath id="910db95868"><path d="M 329.882812 262.664062 L 341.863281 262.542969 L 342.027344 279.015625 L 330.046875 279.132812 Z M 329.882812 262.664062 " clip-rule="nonzero"/></clipPath><clipPath id="6b88625808"><path d="M 329.882812 262.664062 L 341.863281 262.542969 L 342.027344 279.015625 L 330.046875 279.132812 Z M 329.882812 262.664062 " clip-rule="nonzero"/></clipPath><clipPath id="283df329d6"><path d="M 329.882812 262.664062 L 341.863281 262.542969 L 342.027344 279.015625 L 330.046875 279.132812 Z M 329.882812 262.664062 " clip-rule="nonzero"/></clipPath><clipPath id="bf3de42d7b"><path d="M 337 264 L 342 264 L 342 272 L 337 272 Z M 337 264 " clip-rule="nonzero"/></clipPath><clipPath id="27b41dcf9d"><path d="M 329.882812 262.664062 L 341.863281 262.542969 L 342.027344 279.015625 L 330.046875 279.132812 Z M 329.882812 262.664062 " clip-rule="nonzero"/></clipPath><clipPath id="8e6bcc9122"><path d="M 329.882812 262.664062 L 341.863281 262.542969 L 342.027344 279.015625 L 330.046875 279.132812 Z M 329.882812 262.664062 " clip-rule="nonzero"/></clipPath><clipPath id="66eb249ee2"><path d="M 329.882812 262.664062 L 341.863281 262.542969 L 342.027344 279.015625 L 330.046875 279.132812 Z M 329.882812 262.664062 " clip-rule="nonzero"/></clipPath><clipPath id="1499bd6a62"><path d="M 338 268 L 340 268 L 340 271 L 338 271 Z M 338 268 " clip-rule="nonzero"/></clipPath><clipPath id="0b4ed9fdda"><path d="M 329.882812 262.664062 L 341.863281 262.542969 L 342.027344 279.015625 L 330.046875 279.132812 Z M 329.882812 262.664062 " clip-rule="nonzero"/></clipPath><clipPath id="3ab1134e76"><path d="M 329.882812 262.664062 L 341.863281 262.542969 L 342.027344 279.015625 L 330.046875 279.132812 Z M 329.882812 262.664062 " clip-rule="nonzero"/></clipPath><clipPath id="c9386e1253"><path d="M 329.882812 262.664062 L 341.863281 262.542969 L 342.027344 279.015625 L 330.046875 279.132812 Z M 329.882812 262.664062 " clip-rule="nonzero"/></clipPath><clipPath id="def6b31f3c"><path d="M 332 270 L 338 270 L 338 279 L 332 279 Z M 332 270 " clip-rule="nonzero"/></clipPath><clipPath id="548fcf76aa"><path d="M 329.882812 262.664062 L 341.863281 262.542969 L 342.027344 279.015625 L 330.046875 279.132812 Z M 329.882812 262.664062 " clip-rule="nonzero"/></clipPath><clipPath id="95c98f4741"><path d="M 329.882812 262.664062 L 341.863281 262.542969 L 342.027344 279.015625 L 330.046875 279.132812 Z M 329.882812 262.664062 " clip-rule="nonzero"/></clipPath><clipPath id="54bc13c513"><path d="M 329.882812 262.664062 L 341.863281 262.542969 L 342.027344 279.015625 L 330.046875 279.132812 Z M 329.882812 262.664062 " clip-rule="nonzero"/></clipPath><clipPath id="afa8cc762b"><path d="M 335 271 L 338 271 L 338 279 L 335 279 Z M 335 271 " clip-rule="nonzero"/></clipPath><clipPath id="1a6878a1c2"><path d="M 329.882812 262.664062 L 341.863281 262.542969 L 342.027344 279.015625 L 330.046875 279.132812 Z M 329.882812 262.664062 " clip-rule="nonzero"/></clipPath><clipPath id="057d7c1837"><path d="M 329.882812 262.664062 L 341.863281 262.542969 L 342.027344 279.015625 L 330.046875 279.132812 Z M 329.882812 262.664062 " clip-rule="nonzero"/></clipPath><clipPath id="75acd0ac6a"><path d="M 329.882812 262.664062 L 341.863281 262.542969 L 342.027344 279.015625 L 330.046875 279.132812 Z M 329.882812 262.664062 " clip-rule="nonzero"/></clipPath><clipPath id="8596460a18"><path d="M 333 275 L 335 275 L 335 279 L 333 279 Z M 333 275 " clip-rule="nonzero"/></clipPath><clipPath id="4346fc8479"><path d="M 329.882812 262.664062 L 341.863281 262.542969 L 342.027344 279.015625 L 330.046875 279.132812 Z M 329.882812 262.664062 " clip-rule="nonzero"/></clipPath><clipPath id="b6c594b478"><path d="M 329.882812 262.664062 L 341.863281 262.542969 L 342.027344 279.015625 L 330.046875 279.132812 Z M 329.882812 262.664062 " clip-rule="nonzero"/></clipPath><clipPath id="bdffa62dc9"><path d="M 329.882812 262.664062 L 341.863281 262.542969 L 342.027344 279.015625 L 330.046875 279.132812 Z M 329.882812 262.664062 " clip-rule="nonzero"/></clipPath><clipPath id="8941460013"><path d="M 259 263 L 264 263 L 264 270 L 259 270 Z M 259 263 " clip-rule="nonzero"/></clipPath><clipPath id="b0e1854811"><path d="M 259.183594 263.375 L 271.164062 263.253906 L 271.328125 279.726562 L 259.347656 279.847656 Z M 259.183594 263.375 " clip-rule="nonzero"/></clipPath><clipPath id="17a90fafca"><path d="M 259.183594 263.375 L 271.164062 263.253906 L 271.328125 279.726562 L 259.347656 279.847656 Z M 259.183594 263.375 " clip-rule="nonzero"/></clipPath><clipPath id="a6ed31f01f"><path d="M 259.183594 263.375 L 271.164062 263.253906 L 271.328125 279.726562 L 259.347656 279.847656 Z M 259.183594 263.375 " clip-rule="nonzero"/></clipPath><clipPath id="dfaf471a7a"><path d="M 262 264 L 264 264 L 264 270 L 262 270 Z M 262 264 " clip-rule="nonzero"/></clipPath><clipPath id="1aee607793"><path d="M 259.183594 263.375 L 271.164062 263.253906 L 271.328125 279.726562 L 259.347656 279.847656 Z M 259.183594 263.375 " clip-rule="nonzero"/></clipPath><clipPath id="ae8eb9c264"><path d="M 259.183594 263.375 L 271.164062 263.253906 L 271.328125 279.726562 L 259.347656 279.847656 Z M 259.183594 263.375 " clip-rule="nonzero"/></clipPath><clipPath id="6e618331e6"><path d="M 259.183594 263.375 L 271.164062 263.253906 L 271.328125 279.726562 L 259.347656 279.847656 Z M 259.183594 263.375 " clip-rule="nonzero"/></clipPath><clipPath id="dab1fcf2df"><path d="M 260 267 L 261 267 L 261 269 L 260 269 Z M 260 267 " clip-rule="nonzero"/></clipPath><clipPath id="8746b734fb"><path d="M 259.183594 263.375 L 271.164062 263.253906 L 271.328125 279.726562 L 259.347656 279.847656 Z M 259.183594 263.375 " clip-rule="nonzero"/></clipPath><clipPath id="758b537804"><path d="M 259.183594 263.375 L 271.164062 263.253906 L 271.328125 279.726562 L 259.347656 279.847656 Z M 259.183594 263.375 " clip-rule="nonzero"/></clipPath><clipPath id="0591cd0fb9"><path d="M 259.183594 263.375 L 271.164062 263.253906 L 271.328125 279.726562 L 259.347656 279.847656 Z M 259.183594 263.375 " clip-rule="nonzero"/></clipPath><clipPath id="3e4c1a8a2e"><path d="M 266 265 L 272 265 L 272 273 L 266 273 Z M 266 265 " clip-rule="nonzero"/></clipPath><clipPath id="e042c062cf"><path d="M 259.183594 263.375 L 271.164062 263.253906 L 271.328125 279.726562 L 259.347656 279.847656 Z M 259.183594 263.375 " clip-rule="nonzero"/></clipPath><clipPath id="0885bb4253"><path d="M 259.183594 263.375 L 271.164062 263.253906 L 271.328125 279.726562 L 259.347656 279.847656 Z M 259.183594 263.375 " clip-rule="nonzero"/></clipPath><clipPath id="18b250d313"><path d="M 259.183594 263.375 L 271.164062 263.253906 L 271.328125 279.726562 L 259.347656 279.847656 Z M 259.183594 263.375 " clip-rule="nonzero"/></clipPath><clipPath id="2c4e644901"><path d="M 267 269 L 269 269 L 269 272 L 267 272 Z M 267 269 " clip-rule="nonzero"/></clipPath><clipPath id="8f9b180bb9"><path d="M 259.183594 263.375 L 271.164062 263.253906 L 271.328125 279.726562 L 259.347656 279.847656 Z M 259.183594 263.375 " clip-rule="nonzero"/></clipPath><clipPath id="b9d699a74c"><path d="M 259.183594 263.375 L 271.164062 263.253906 L 271.328125 279.726562 L 259.347656 279.847656 Z M 259.183594 263.375 " clip-rule="nonzero"/></clipPath><clipPath id="488d93031f"><path d="M 259.183594 263.375 L 271.164062 263.253906 L 271.328125 279.726562 L 259.347656 279.847656 Z M 259.183594 263.375 " clip-rule="nonzero"/></clipPath><clipPath id="8b88eb8b8f"><path d="M 262 271 L 267 271 L 267 280 L 262 280 Z M 262 271 " clip-rule="nonzero"/></clipPath><clipPath id="f97eef9ee3"><path d="M 259.183594 263.375 L 271.164062 263.253906 L 271.328125 279.726562 L 259.347656 279.847656 Z M 259.183594 263.375 " clip-rule="nonzero"/></clipPath><clipPath id="8842219bc6"><path d="M 259.183594 263.375 L 271.164062 263.253906 L 271.328125 279.726562 L 259.347656 279.847656 Z M 259.183594 263.375 " clip-rule="nonzero"/></clipPath><clipPath id="2b3750d5a7"><path d="M 259.183594 263.375 L 271.164062 263.253906 L 271.328125 279.726562 L 259.347656 279.847656 Z M 259.183594 263.375 " clip-rule="nonzero"/></clipPath><clipPath id="a5c5336189"><path d="M 264 272 L 267 272 L 267 280 L 264 280 Z M 264 272 " clip-rule="nonzero"/></clipPath><clipPath id="f1b059847d"><path d="M 259.183594 263.375 L 271.164062 263.253906 L 271.328125 279.726562 L 259.347656 279.847656 Z M 259.183594 263.375 " clip-rule="nonzero"/></clipPath><clipPath id="7981629b2b"><path d="M 259.183594 263.375 L 271.164062 263.253906 L 271.328125 279.726562 L 259.347656 279.847656 Z M 259.183594 263.375 " clip-rule="nonzero"/></clipPath><clipPath id="03520b15df"><path d="M 259.183594 263.375 L 271.164062 263.253906 L 271.328125 279.726562 L 259.347656 279.847656 Z M 259.183594 263.375 " clip-rule="nonzero"/></clipPath><clipPath id="4daa6ac7c1"><path d="M 262 276 L 264 276 L 264 279 L 262 279 Z M 262 276 " clip-rule="nonzero"/></clipPath><clipPath id="1b04009ab1"><path d="M 259.183594 263.375 L 271.164062 263.253906 L 271.328125 279.726562 L 259.347656 279.847656 Z M 259.183594 263.375 " clip-rule="nonzero"/></clipPath><clipPath id="5cc01078eb"><path d="M 259.183594 263.375 L 271.164062 263.253906 L 271.328125 279.726562 L 259.347656 279.847656 Z M 259.183594 263.375 " clip-rule="nonzero"/></clipPath><clipPath id="ce7cd03935"><path d="M 259.183594 263.375 L 271.164062 263.253906 L 271.328125 279.726562 L 259.347656 279.847656 Z M 259.183594 263.375 " clip-rule="nonzero"/></clipPath><clipPath id="969ba18ecb"><path d="M 392 262 L 397 262 L 397 269 L 392 269 Z M 392 262 " clip-rule="nonzero"/></clipPath><clipPath id="e0022c8e33"><path d="M 392.40625 262.03125 L 404.382812 261.910156 L 404.550781 278.382812 L 392.570312 278.503906 Z M 392.40625 262.03125 " clip-rule="nonzero"/></clipPath><clipPath id="3e3bc43b76"><path d="M 392.40625 262.03125 L 404.382812 261.910156 L 404.550781 278.382812 L 392.570312 278.503906 Z M 392.40625 262.03125 " clip-rule="nonzero"/></clipPath><clipPath id="e6d9987bf5"><path d="M 392.40625 262.03125 L 404.382812 261.910156 L 404.550781 278.382812 L 392.570312 278.503906 Z M 392.40625 262.03125 " clip-rule="nonzero"/></clipPath><clipPath id="09e02b8ea6"><path d="M 395 263 L 397 263 L 397 268 L 395 268 Z M 395 263 " clip-rule="nonzero"/></clipPath><clipPath id="3c43823d7d"><path d="M 392.40625 262.03125 L 404.382812 261.910156 L 404.550781 278.382812 L 392.570312 278.503906 Z M 392.40625 262.03125 " clip-rule="nonzero"/></clipPath><clipPath id="bccac75b3b"><path d="M 392.40625 262.03125 L 404.382812 261.910156 L 404.550781 278.382812 L 392.570312 278.503906 Z M 392.40625 262.03125 " clip-rule="nonzero"/></clipPath><clipPath id="7649c14cd5"><path d="M 392.40625 262.03125 L 404.382812 261.910156 L 404.550781 278.382812 L 392.570312 278.503906 Z M 392.40625 262.03125 " clip-rule="nonzero"/></clipPath><clipPath id="f5df2b84f7"><path d="M 393 265 L 395 265 L 395 268 L 393 268 Z M 393 265 " clip-rule="nonzero"/></clipPath><clipPath id="146b05d0e2"><path d="M 392.40625 262.03125 L 404.382812 261.910156 L 404.550781 278.382812 L 392.570312 278.503906 Z M 392.40625 262.03125 " clip-rule="nonzero"/></clipPath><clipPath id="920c4da82f"><path d="M 392.40625 262.03125 L 404.382812 261.910156 L 404.550781 278.382812 L 392.570312 278.503906 Z M 392.40625 262.03125 " clip-rule="nonzero"/></clipPath><clipPath id="3739fd7a56"><path d="M 392.40625 262.03125 L 404.382812 261.910156 L 404.550781 278.382812 L 392.570312 278.503906 Z M 392.40625 262.03125 " clip-rule="nonzero"/></clipPath><clipPath id="a8a31cd531"><path d="M 400 263 L 405 263 L 405 271 L 400 271 Z M 400 263 " clip-rule="nonzero"/></clipPath><clipPath id="e4d4a3b4e1"><path d="M 392.40625 262.03125 L 404.382812 261.910156 L 404.550781 278.382812 L 392.570312 278.503906 Z M 392.40625 262.03125 " clip-rule="nonzero"/></clipPath><clipPath id="73aad0b3fa"><path d="M 392.40625 262.03125 L 404.382812 261.910156 L 404.550781 278.382812 L 392.570312 278.503906 Z M 392.40625 262.03125 " clip-rule="nonzero"/></clipPath><clipPath id="d5d648851a"><path d="M 392.40625 262.03125 L 404.382812 261.910156 L 404.550781 278.382812 L 392.570312 278.503906 Z M 392.40625 262.03125 " clip-rule="nonzero"/></clipPath><clipPath id="6c9e36321f"><path d="M 400 268 L 402 268 L 402 271 L 400 271 Z M 400 268 " clip-rule="nonzero"/></clipPath><clipPath id="5cd4fed163"><path d="M 392.40625 262.03125 L 404.382812 261.910156 L 404.550781 278.382812 L 392.570312 278.503906 Z M 392.40625 262.03125 " clip-rule="nonzero"/></clipPath><clipPath id="ec7ce8693e"><path d="M 392.40625 262.03125 L 404.382812 261.910156 L 404.550781 278.382812 L 392.570312 278.503906 Z M 392.40625 262.03125 " clip-rule="nonzero"/></clipPath><clipPath id="6cf3326e59"><path d="M 392.40625 262.03125 L 404.382812 261.910156 L 404.550781 278.382812 L 392.570312 278.503906 Z M 392.40625 262.03125 " clip-rule="nonzero"/></clipPath><clipPath id="4929295a1f"><path d="M 395 270 L 401 270 L 401 279 L 395 279 Z M 395 270 " clip-rule="nonzero"/></clipPath><clipPath id="2015e7b15c"><path d="M 392.40625 262.03125 L 404.382812 261.910156 L 404.550781 278.382812 L 392.570312 278.503906 Z M 392.40625 262.03125 " clip-rule="nonzero"/></clipPath><clipPath id="1017bd51c3"><path d="M 392.40625 262.03125 L 404.382812 261.910156 L 404.550781 278.382812 L 392.570312 278.503906 Z M 392.40625 262.03125 " clip-rule="nonzero"/></clipPath><clipPath id="67295cd67d"><path d="M 392.40625 262.03125 L 404.382812 261.910156 L 404.550781 278.382812 L 392.570312 278.503906 Z M 392.40625 262.03125 " clip-rule="nonzero"/></clipPath><clipPath id="ee2bf36e4f"><path d="M 398 271 L 401 271 L 401 278 L 398 278 Z M 398 271 " clip-rule="nonzero"/></clipPath><clipPath id="fe7f80aa80"><path d="M 392.40625 262.03125 L 404.382812 261.910156 L 404.550781 278.382812 L 392.570312 278.503906 Z M 392.40625 262.03125 " clip-rule="nonzero"/></clipPath><clipPath id="3f7d2cdff8"><path d="M 392.40625 262.03125 L 404.382812 261.910156 L 404.550781 278.382812 L 392.570312 278.503906 Z M 392.40625 262.03125 " clip-rule="nonzero"/></clipPath><clipPath id="04fe570bf6"><path d="M 392.40625 262.03125 L 404.382812 261.910156 L 404.550781 278.382812 L 392.570312 278.503906 Z M 392.40625 262.03125 " clip-rule="nonzero"/></clipPath><clipPath id="a1e8f847ec"><path d="M 395 275 L 397 275 L 397 278 L 395 278 Z M 395 275 " clip-rule="nonzero"/></clipPath><clipPath id="f6606c3c5e"><path d="M 392.40625 262.03125 L 404.382812 261.910156 L 404.550781 278.382812 L 392.570312 278.503906 Z M 392.40625 262.03125 " clip-rule="nonzero"/></clipPath><clipPath id="24dbf279e3"><path d="M 392.40625 262.03125 L 404.382812 261.910156 L 404.550781 278.382812 L 392.570312 278.503906 Z M 392.40625 262.03125 " clip-rule="nonzero"/></clipPath><clipPath id="1c0e9008d4"><path d="M 392.40625 262.03125 L 404.382812 261.910156 L 404.550781 278.382812 L 392.570312 278.503906 Z M 392.40625 262.03125 " clip-rule="nonzero"/></clipPath><clipPath id="234b938fd6"><path d="M 361 207 L 372 207 L 372 226 L 361 226 Z M 361 207 " clip-rule="nonzero"/></clipPath><clipPath id="cd73130c40"><path d="M 371.285156 224.984375 L 361.304688 225.082031 L 361.128906 207.542969 L 371.105469 207.445312 Z M 371.285156 224.984375 " clip-rule="nonzero"/></clipPath><clipPath id="448560aaa1"><path d="M 0.0898438 0.261719 L 10.390625 0.261719 L 10.390625 18.230469 L 0.0898438 18.230469 Z M 0.0898438 0.261719 " clip-rule="nonzero"/></clipPath><clipPath id="c7a1691a99"><path d="M 10.285156 17.984375 L 0.304688 18.082031 L 0.128906 0.542969 L 10.105469 0.445312 Z M 10.285156 17.984375 " clip-rule="nonzero"/></clipPath><clipPath id="928009b232"><rect x="0" width="11" y="0" height="19"/></clipPath><clipPath id="caf3f3e0e1"><path d="M 361 207 L 372 207 L 372 226 L 361 226 Z M 361 207 " clip-rule="nonzero"/></clipPath><clipPath id="ec9ba30dcd"><path d="M 371.285156 224.984375 L 361.550781 225.082031 L 361.375 207.859375 L 371.109375 207.761719 Z M 371.285156 224.984375 " clip-rule="nonzero"/></clipPath><clipPath id="01d86ea406"><path d="M 371.285156 224.976562 L 361.316406 225.074219 L 361.140625 207.554688 L 371.105469 207.453125 Z M 371.285156 224.976562 " clip-rule="nonzero"/></clipPath><clipPath id="0f1ef48410"><path d="M 355 194 L 377 194 L 377 208 L 355 208 Z M 355 194 " clip-rule="nonzero"/></clipPath><clipPath id="059858cf54"><path d="M 376.484375 207.386719 L 355.71875 207.597656 L 355.585938 194.722656 L 376.355469 194.515625 Z M 376.484375 207.386719 " clip-rule="nonzero"/></clipPath><clipPath id="ee73dfc66d"><path d="M 371.027344 207.441406 L 361.222656 207.542969 L 355.632812 194.722656 L 376.355469 194.515625 Z M 371.027344 207.441406 " clip-rule="nonzero"/></clipPath><clipPath id="06943087ca"><path d="M 0.578125 0.320312 L 21.425781 0.320312 L 21.425781 13.738281 L 0.578125 13.738281 Z M 0.578125 0.320312 " clip-rule="nonzero"/></clipPath><clipPath id="6b16b3f8a1"><path d="M 21.484375 13.386719 L 0.71875 13.597656 L 0.585938 0.722656 L 21.355469 0.515625 Z M 21.484375 13.386719 " clip-rule="nonzero"/></clipPath><clipPath id="6022989405"><path d="M 16.027344 13.441406 L 6.222656 13.542969 L 0.632812 0.722656 L 21.355469 0.515625 Z M 16.027344 13.441406 " clip-rule="nonzero"/></clipPath><clipPath id="052e435c71"><rect x="0" width="22" y="0" height="14"/></clipPath><clipPath id="ef11cfaae5"><path d="M 367 187 L 372 187 L 372 194 L 367 194 Z M 367 187 " clip-rule="nonzero"/></clipPath><clipPath id="48e7438903"><path d="M 371.789062 193.804688 L 359.808594 193.925781 L 359.644531 177.453125 L 371.621094 177.332031 Z M 371.789062 193.804688 " clip-rule="nonzero"/></clipPath><clipPath id="b6e0981564"><path d="M 371.789062 193.804688 L 359.808594 193.925781 L 359.644531 177.453125 L 371.621094 177.332031 Z M 371.789062 193.804688 " clip-rule="nonzero"/></clipPath><clipPath id="384d2c66ef"><path d="M 371.789062 193.804688 L 359.808594 193.925781 L 359.644531 177.453125 L 371.621094 177.332031 Z M 371.789062 193.804688 " clip-rule="nonzero"/></clipPath><clipPath id="db7d85c4b7"><path d="M 367 187 L 369 187 L 369 193 L 367 193 Z M 367 187 " clip-rule="nonzero"/></clipPath><clipPath id="4117d8d804"><path d="M 371.789062 193.804688 L 359.808594 193.925781 L 359.644531 177.453125 L 371.621094 177.332031 Z M 371.789062 193.804688 " clip-rule="nonzero"/></clipPath><clipPath id="baddd46320"><path d="M 371.789062 193.804688 L 359.808594 193.925781 L 359.644531 177.453125 L 371.621094 177.332031 Z M 371.789062 193.804688 " clip-rule="nonzero"/></clipPath><clipPath id="13a036e9e3"><path d="M 371.789062 193.804688 L 359.808594 193.925781 L 359.644531 177.453125 L 371.621094 177.332031 Z M 371.789062 193.804688 " clip-rule="nonzero"/></clipPath><clipPath id="579a666ba8"><path d="M 370 188 L 371 188 L 371 190 L 370 190 Z M 370 188 " clip-rule="nonzero"/></clipPath><clipPath id="0f348e4c7f"><path d="M 371.789062 193.804688 L 359.808594 193.925781 L 359.644531 177.453125 L 371.621094 177.332031 Z M 371.789062 193.804688 " clip-rule="nonzero"/></clipPath><clipPath id="09d65c579b"><path d="M 371.789062 193.804688 L 359.808594 193.925781 L 359.644531 177.453125 L 371.621094 177.332031 Z M 371.789062 193.804688 " clip-rule="nonzero"/></clipPath><clipPath id="cd43a3b2a2"><path d="M 371.789062 193.804688 L 359.808594 193.925781 L 359.644531 177.453125 L 371.621094 177.332031 Z M 371.789062 193.804688 " clip-rule="nonzero"/></clipPath><clipPath id="bd6c0a637c"><path d="M 359 185 L 365 185 L 365 192 L 359 192 Z M 359 185 " clip-rule="nonzero"/></clipPath><clipPath id="ca59639c47"><path d="M 371.789062 193.804688 L 359.808594 193.925781 L 359.644531 177.453125 L 371.621094 177.332031 Z M 371.789062 193.804688 " clip-rule="nonzero"/></clipPath><clipPath id="db5d73f001"><path d="M 371.789062 193.804688 L 359.808594 193.925781 L 359.644531 177.453125 L 371.621094 177.332031 Z M 371.789062 193.804688 " clip-rule="nonzero"/></clipPath><clipPath id="04673d63bf"><path d="M 371.789062 193.804688 L 359.808594 193.925781 L 359.644531 177.453125 L 371.621094 177.332031 Z M 371.789062 193.804688 " clip-rule="nonzero"/></clipPath><clipPath id="da3e5c5e50"><path d="M 362 185 L 364 185 L 364 188 L 362 188 Z M 362 185 " clip-rule="nonzero"/></clipPath><clipPath id="534a5782cf"><path d="M 371.789062 193.804688 L 359.808594 193.925781 L 359.644531 177.453125 L 371.621094 177.332031 Z M 371.789062 193.804688 " clip-rule="nonzero"/></clipPath><clipPath id="62c1ae80b8"><path d="M 371.789062 193.804688 L 359.808594 193.925781 L 359.644531 177.453125 L 371.621094 177.332031 Z M 371.789062 193.804688 " clip-rule="nonzero"/></clipPath><clipPath id="3f35c49bf8"><path d="M 371.789062 193.804688 L 359.808594 193.925781 L 359.644531 177.453125 L 371.621094 177.332031 Z M 371.789062 193.804688 " clip-rule="nonzero"/></clipPath><clipPath id="a3e3b3d159"><path d="M 364 177 L 369 177 L 369 186 L 364 186 Z M 364 177 " clip-rule="nonzero"/></clipPath><clipPath id="d50f23f9ed"><path d="M 371.789062 193.804688 L 359.808594 193.925781 L 359.644531 177.453125 L 371.621094 177.332031 Z M 371.789062 193.804688 " clip-rule="nonzero"/></clipPath><clipPath id="d5172389c1"><path d="M 371.789062 193.804688 L 359.808594 193.925781 L 359.644531 177.453125 L 371.621094 177.332031 Z M 371.789062 193.804688 " clip-rule="nonzero"/></clipPath><clipPath id="99fe7ee966"><path d="M 371.789062 193.804688 L 359.808594 193.925781 L 359.644531 177.453125 L 371.621094 177.332031 Z M 371.789062 193.804688 " clip-rule="nonzero"/></clipPath><clipPath id="83cacf2ac6"><path d="M 364 177 L 367 177 L 367 185 L 364 185 Z M 364 177 " clip-rule="nonzero"/></clipPath><clipPath id="51d4873345"><path d="M 371.789062 193.804688 L 359.808594 193.925781 L 359.644531 177.453125 L 371.621094 177.332031 Z M 371.789062 193.804688 " clip-rule="nonzero"/></clipPath><clipPath id="d1b570b805"><path d="M 371.789062 193.804688 L 359.808594 193.925781 L 359.644531 177.453125 L 371.621094 177.332031 Z M 371.789062 193.804688 " clip-rule="nonzero"/></clipPath><clipPath id="0413f8a398"><path d="M 371.789062 193.804688 L 359.808594 193.925781 L 359.644531 177.453125 L 371.621094 177.332031 Z M 371.789062 193.804688 " clip-rule="nonzero"/></clipPath><clipPath id="2f96b88d96"><path d="M 367 178 L 369 178 L 369 181 L 367 181 Z M 367 178 " clip-rule="nonzero"/></clipPath><clipPath id="2827a0b3be"><path d="M 371.789062 193.804688 L 359.808594 193.925781 L 359.644531 177.453125 L 371.621094 177.332031 Z M 371.789062 193.804688 " clip-rule="nonzero"/></clipPath><clipPath id="0aae358c94"><path d="M 371.789062 193.804688 L 359.808594 193.925781 L 359.644531 177.453125 L 371.621094 177.332031 Z M 371.789062 193.804688 " clip-rule="nonzero"/></clipPath><clipPath id="1406090239"><path d="M 371.789062 193.804688 L 359.808594 193.925781 L 359.644531 177.453125 L 371.621094 177.332031 Z M 371.789062 193.804688 " clip-rule="nonzero"/></clipPath><clipPath id="897553b1e3"><path d="M 293 208 L 304 208 L 304 226 L 293 226 Z M 293 208 " clip-rule="nonzero"/></clipPath><clipPath id="0f4c315bc4"><path d="M 303.390625 225.667969 L 293.410156 225.769531 L 293.234375 208.230469 L 303.210938 208.128906 Z M 303.390625 225.667969 " clip-rule="nonzero"/></clipPath><clipPath id="ec5cbe22e5"><path d="M 0.0390625 0 L 10.582031 0 L 10.582031 17.949219 L 0.0390625 17.949219 Z M 0.0390625 0 " clip-rule="nonzero"/></clipPath><clipPath id="6f84f2ca08"><path d="M 10.390625 17.667969 L 0.410156 17.769531 L 0.234375 0.230469 L 10.210938 0.128906 Z M 10.390625 17.667969 " clip-rule="nonzero"/></clipPath><clipPath id="722492b175"><rect x="0" width="11" y="0" height="18"/></clipPath><clipPath id="190495126a"><path d="M 293 208 L 304 208 L 304 226 L 293 226 Z M 293 208 " clip-rule="nonzero"/></clipPath><clipPath id="632e239f3f"><path d="M 303.390625 225.667969 L 293.65625 225.765625 L 293.484375 208.542969 L 303.214844 208.445312 Z M 303.390625 225.667969 " clip-rule="nonzero"/></clipPath><clipPath id="0ac2403935"><path d="M 303.390625 225.660156 L 293.421875 225.761719 L 293.246094 208.238281 L 303.214844 208.136719 Z M 303.390625 225.660156 " clip-rule="nonzero"/></clipPath><clipPath id="0f215d84f4"><path d="M 287 195 L 309 195 L 309 209 L 287 209 Z M 287 195 " clip-rule="nonzero"/></clipPath><clipPath id="4cb1c9863e"><path d="M 308.589844 208.070312 L 287.824219 208.28125 L 287.691406 195.410156 L 308.460938 195.199219 Z M 308.589844 208.070312 " clip-rule="nonzero"/></clipPath><clipPath id="ca55f896b3"><path d="M 303.132812 208.128906 L 293.328125 208.226562 L 287.738281 195.40625 L 308.460938 195.199219 Z M 303.132812 208.128906 " clip-rule="nonzero"/></clipPath><clipPath id="ca27928e13"><path d="M 0.53125 0.0390625 L 21.613281 0.0390625 L 21.613281 13.457031 L 0.53125 13.457031 Z M 0.53125 0.0390625 " clip-rule="nonzero"/></clipPath><clipPath id="aeac052ac3"><path d="M 21.589844 13.070312 L 0.824219 13.28125 L 0.691406 0.410156 L 21.460938 0.199219 Z M 21.589844 13.070312 " clip-rule="nonzero"/></clipPath><clipPath id="8969887a6f"><path d="M 16.132812 13.128906 L 6.328125 13.226562 L 0.738281 0.40625 L 21.460938 0.199219 Z M 16.132812 13.128906 " clip-rule="nonzero"/></clipPath><clipPath id="8f80efdadf"><rect x="0" width="22" y="0" height="14"/></clipPath><clipPath id="bb757e83c2"><path d="M 299 188 L 304 188 L 304 195 L 299 195 Z M 299 188 " clip-rule="nonzero"/></clipPath><clipPath id="40b763f188"><path d="M 303.894531 194.488281 L 291.914062 194.609375 L 291.75 178.140625 L 303.726562 178.019531 Z M 303.894531 194.488281 " clip-rule="nonzero"/></clipPath><clipPath id="de416e468f"><path d="M 303.894531 194.488281 L 291.914062 194.609375 L 291.75 178.140625 L 303.726562 178.019531 Z M 303.894531 194.488281 " clip-rule="nonzero"/></clipPath><clipPath id="91998fb290"><path d="M 303.894531 194.488281 L 291.914062 194.609375 L 291.75 178.140625 L 303.726562 178.019531 Z M 303.894531 194.488281 " clip-rule="nonzero"/></clipPath><clipPath id="b9a49c9e86"><path d="M 299 188 L 301 188 L 301 193 L 299 193 Z M 299 188 " clip-rule="nonzero"/></clipPath><clipPath id="6e55e06b9f"><path d="M 303.894531 194.488281 L 291.914062 194.609375 L 291.75 178.140625 L 303.726562 178.019531 Z M 303.894531 194.488281 " clip-rule="nonzero"/></clipPath><clipPath id="bc73df1d4a"><path d="M 303.894531 194.488281 L 291.914062 194.609375 L 291.75 178.140625 L 303.726562 178.019531 Z M 303.894531 194.488281 " clip-rule="nonzero"/></clipPath><clipPath id="017c8de3c1"><path d="M 303.894531 194.488281 L 291.914062 194.609375 L 291.75 178.140625 L 303.726562 178.019531 Z M 303.894531 194.488281 " clip-rule="nonzero"/></clipPath><clipPath id="4d7fdba44f"><path d="M 302 188 L 304 188 L 304 191 L 302 191 Z M 302 188 " clip-rule="nonzero"/></clipPath><clipPath id="11f3dfc786"><path d="M 303.894531 194.488281 L 291.914062 194.609375 L 291.75 178.140625 L 303.726562 178.019531 Z M 303.894531 194.488281 " clip-rule="nonzero"/></clipPath><clipPath id="026f573e6f"><path d="M 303.894531 194.488281 L 291.914062 194.609375 L 291.75 178.140625 L 303.726562 178.019531 Z M 303.894531 194.488281 " clip-rule="nonzero"/></clipPath><clipPath id="4c50e3db6c"><path d="M 303.894531 194.488281 L 291.914062 194.609375 L 291.75 178.140625 L 303.726562 178.019531 Z M 303.894531 194.488281 " clip-rule="nonzero"/></clipPath><clipPath id="96e6e49fad"><path d="M 292 185 L 297 185 L 297 193 L 292 193 Z M 292 185 " clip-rule="nonzero"/></clipPath><clipPath id="4a4adaa22b"><path d="M 303.894531 194.488281 L 291.914062 194.609375 L 291.75 178.140625 L 303.726562 178.019531 Z M 303.894531 194.488281 " clip-rule="nonzero"/></clipPath><clipPath id="f68c8433df"><path d="M 303.894531 194.488281 L 291.914062 194.609375 L 291.75 178.140625 L 303.726562 178.019531 Z M 303.894531 194.488281 " clip-rule="nonzero"/></clipPath><clipPath id="439ff0b56d"><path d="M 303.894531 194.488281 L 291.914062 194.609375 L 291.75 178.140625 L 303.726562 178.019531 Z M 303.894531 194.488281 " clip-rule="nonzero"/></clipPath><clipPath id="1c76bf5a6c"><path d="M 294 186 L 296 186 L 296 189 L 294 189 Z M 294 186 " clip-rule="nonzero"/></clipPath><clipPath id="81551ee0d4"><path d="M 303.894531 194.488281 L 291.914062 194.609375 L 291.75 178.140625 L 303.726562 178.019531 Z M 303.894531 194.488281 " clip-rule="nonzero"/></clipPath><clipPath id="bcfa0882ec"><path d="M 303.894531 194.488281 L 291.914062 194.609375 L 291.75 178.140625 L 303.726562 178.019531 Z M 303.894531 194.488281 " clip-rule="nonzero"/></clipPath><clipPath id="61e8a6f42a"><path d="M 303.894531 194.488281 L 291.914062 194.609375 L 291.75 178.140625 L 303.726562 178.019531 Z M 303.894531 194.488281 " clip-rule="nonzero"/></clipPath><clipPath id="0fcda13337"><path d="M 296 178 L 302 178 L 302 187 L 296 187 Z M 296 178 " clip-rule="nonzero"/></clipPath><clipPath id="d3960f64ab"><path d="M 303.894531 194.488281 L 291.914062 194.609375 L 291.75 178.140625 L 303.726562 178.019531 Z M 303.894531 194.488281 " clip-rule="nonzero"/></clipPath><clipPath id="e58cb4b960"><path d="M 303.894531 194.488281 L 291.914062 194.609375 L 291.75 178.140625 L 303.726562 178.019531 Z M 303.894531 194.488281 " clip-rule="nonzero"/></clipPath><clipPath id="bdcf7bf8f9"><path d="M 303.894531 194.488281 L 291.914062 194.609375 L 291.75 178.140625 L 303.726562 178.019531 Z M 303.894531 194.488281 " clip-rule="nonzero"/></clipPath><clipPath id="3783683cb0"><path d="M 296 178 L 299 178 L 299 186 L 296 186 Z M 296 178 " clip-rule="nonzero"/></clipPath><clipPath id="9f27f418b9"><path d="M 303.894531 194.488281 L 291.914062 194.609375 L 291.75 178.140625 L 303.726562 178.019531 Z M 303.894531 194.488281 " clip-rule="nonzero"/></clipPath><clipPath id="0d93889606"><path d="M 303.894531 194.488281 L 291.914062 194.609375 L 291.75 178.140625 L 303.726562 178.019531 Z M 303.894531 194.488281 " clip-rule="nonzero"/></clipPath><clipPath id="fab61c8835"><path d="M 303.894531 194.488281 L 291.914062 194.609375 L 291.75 178.140625 L 303.726562 178.019531 Z M 303.894531 194.488281 " clip-rule="nonzero"/></clipPath><clipPath id="1d374700d9"><path d="M 299 179 L 301 179 L 301 182 L 299 182 Z M 299 179 " clip-rule="nonzero"/></clipPath><clipPath id="2a6d02acd1"><path d="M 303.894531 194.488281 L 291.914062 194.609375 L 291.75 178.140625 L 303.726562 178.019531 Z M 303.894531 194.488281 " clip-rule="nonzero"/></clipPath><clipPath id="e47f94fde1"><path d="M 303.894531 194.488281 L 291.914062 194.609375 L 291.75 178.140625 L 303.726562 178.019531 Z M 303.894531 194.488281 " clip-rule="nonzero"/></clipPath><clipPath id="67b281768b"><path d="M 303.894531 194.488281 L 291.914062 194.609375 L 291.75 178.140625 L 303.726562 178.019531 Z M 303.894531 194.488281 " clip-rule="nonzero"/></clipPath></defs><g clip-path="url(#31f506b227)"><g clip-path="url(#f5b7579d60)"><g clip-path="url(#3d4142ab07)"><g clip-path="url(#2fe16bc18f)"><path fill="#000000" d="M 209.171875 10.800781 C 203.347656 11.3125 197.558594 12.054688 191.804688 13.03125 L 189.804688 1.21875 C 195.871094 0.191406 201.976562 -0.59375 208.125 -1.136719 Z M 186.078125 14.078125 C 180.355469 15.207031 174.683594 16.566406 169.074219 18.148438 L 165.816406 6.621094 C 171.738281 4.949219 177.722656 3.515625 183.761719 2.324219 Z M 163.476562 19.8125 C 157.914062 21.546875 152.425781 23.503906 147.019531 25.679688 L 142.542969 14.566406 C 148.25 12.269531 154.042969 10.203125 159.910156 8.375 Z M 141.625 27.9375 C 136.277344 30.257812 131.03125 32.789062 125.882812 35.535156 L 120.242188 24.964844 C 125.675781 22.066406 131.210938 19.394531 136.851562 16.945312 Z M 120.765625 38.351562 C 115.695312 41.230469 110.746094 44.3125 105.917969 47.589844 L 99.1875 37.679688 C 104.28125 34.222656 109.5 30.972656 114.847656 27.933594 Z M 101.136719 50.933594 C 96.398438 54.335938 91.804688 57.925781 87.347656 61.699219 L 79.605469 52.554688 C 84.300781 48.578125 89.148438 44.792969 94.144531 41.203125 Z M 82.949219 65.527344 C 78.597656 69.414062 74.40625 73.46875 70.378906 77.691406 L 61.710938 69.421875 C 65.960938 64.96875 70.378906 60.691406 74.964844 56.59375 Z M 66.40625 81.964844 C 62.492188 86.292969 58.753906 90.769531 55.195312 95.390625 L 45.703125 88.085938 C 49.453125 83.210938 53.394531 78.488281 57.523438 73.925781 Z M 51.699219 100.0625 C 48.265625 104.78125 45.023438 109.628906 41.980469 114.597656 L 31.761719 108.34375 C 34.972656 103.097656 38.390625 97.988281 42.015625 93.011719 Z M 39 119.621094 C 36.085938 124.675781 33.382812 129.839844 30.886719 135.105469 L 20.058594 129.976562 C 22.691406 124.421875 25.542969 118.976562 28.617188 113.640625 Z M 28.457031 140.421875 C 26.105469 145.757812 23.96875 151.179688 22.054688 156.683594 L 10.738281 152.746094 C 12.761719 146.9375 15.011719 141.214844 17.496094 135.585938 Z M 20.210938 162.214844 C 18.441406 167.777344 16.902344 173.398438 15.585938 179.085938 L 3.914062 176.386719 C 5.300781 170.386719 6.929688 164.453125 8.792969 158.585938 Z M 14.351562 184.769531 C 13.1875 190.488281 12.253906 196.253906 11.550781 202.0625 L -0.34375 200.625 C 0.398438 194.496094 1.382812 188.414062 2.609375 182.382812 Z M 10.929688 207.851562 C 10.402344 213.441406 10.089844 219.058594 9.988281 224.703125 L 9.976562 225.347656 L -2 225.148438 L -1.992188 224.488281 C -1.882812 218.542969 -1.554688 212.621094 -1 206.726562 Z M 9.96875 231.183594 C 10.03125 237.03125 10.328125 242.851562 10.855469 248.652344 L -1.074219 249.734375 C -1.628906 243.621094 -1.941406 237.480469 -2.011719 231.316406 Z M 11.464844 254.480469 C 12.148438 260.273438 13.058594 266.023438 14.203125 271.734375 L 2.457031 274.085938 C 1.25 268.0625 0.285156 261.996094 -0.433594 255.882812 Z M 15.429688 277.453125 C 16.726562 283.136719 18.25 288.757812 20 294.316406 L 8.574219 297.914062 C 6.726562 292.050781 5.117188 286.117188 3.75 280.121094 Z M 21.828125 299.863281 C 23.730469 305.375 25.847656 310.800781 28.1875 316.144531 L 17.210938 320.949219 C 14.746094 315.308594 12.507812 309.582031 10.503906 303.769531 Z M 30.597656 321.457031 C 33.078125 326.734375 35.765625 331.90625 38.664062 336.972656 L 28.265625 342.921875 C 25.207031 337.574219 22.371094 332.121094 19.753906 326.554688 Z M 41.625 341.996094 C 44.65625 346.980469 47.878906 351.835938 51.300781 356.566406 L 41.59375 363.585938 C 37.984375 358.597656 34.582031 353.476562 31.390625 348.21875 Z M 54.78125 361.246094 C 58.324219 365.882812 62.042969 370.371094 65.945312 374.710938 L 57.035156 382.722656 C 52.921875 378.144531 48.996094 373.410156 45.261719 368.523438 Z M 69.902344 379 C 73.917969 383.234375 78.09375 387.304688 82.433594 391.207031 L 74.417969 400.113281 C 69.84375 395.996094 65.441406 391.707031 61.207031 387.238281 Z M 86.820312 395.050781 C 91.261719 398.839844 95.847656 402.441406 100.574219 405.863281 L 93.550781 415.566406 C 88.566406 411.960938 83.734375 408.160156 79.046875 404.167969 Z M 105.34375 409.21875 C 110.164062 412.511719 115.105469 415.609375 120.167969 418.507812 L 114.21875 428.90625 C 108.878906 425.851562 103.664062 422.582031 98.582031 419.105469 Z M 125.261719 421.332031 C 130.40625 424.09375 135.648438 426.644531 140.996094 428.984375 L 136.191406 439.960938 C 130.554688 437.492188 125.019531 434.800781 119.589844 431.882812 Z M 146.351562 431.246094 C 151.761719 433.441406 157.25 435.417969 162.816406 437.167969 L 159.214844 448.597656 C 153.34375 446.746094 147.550781 444.664062 141.84375 442.34375 Z M 168.382812 438.839844 C 173.992188 440.445312 179.660156 441.816406 185.382812 442.964844 L 183.03125 454.710938 C 176.988281 453.5 171.011719 452.050781 165.09375 450.359375 Z M 191.101562 444.03125 C 196.855469 445.023438 202.648438 445.789062 208.476562 446.320312 L 207.390625 458.25 C 201.238281 457.691406 195.128906 456.886719 189.0625 455.835938 Z M 214.300781 446.773438 C 217.761719 447 221.226562 447.140625 224.703125 447.203125 C 227.074219 447.246094 229.445312 447.25 231.8125 447.214844 L 231.980469 459.195312 C 229.488281 459.230469 226.988281 459.226562 224.488281 459.179688 C 220.828125 459.117188 217.171875 458.964844 213.527344 458.730469 Z M 237.636719 447.058594 C 243.488281 446.820312 249.3125 446.351562 255.109375 445.652344 L 256.546875 457.546875 C 250.433594 458.285156 244.292969 458.777344 238.121094 459.027344 Z M 260.890625 444.875 C 266.664062 444.019531 272.390625 442.9375 278.066406 441.621094 L 280.769531 453.292969 C 274.777344 454.679688 268.734375 455.824219 262.644531 456.726562 Z M 283.726562 440.234375 C 289.371094 438.765625 294.949219 437.074219 300.457031 435.15625 L 304.394531 446.46875 C 298.582031 448.492188 292.695312 450.28125 286.738281 451.828125 Z M 305.929688 433.167969 C 311.386719 431.105469 316.75 428.824219 322.027344 426.324219 L 327.15625 437.152344 C 321.589844 439.789062 315.925781 442.195312 310.171875 444.371094 Z M 327.257812 423.761719 C 332.460938 421.125 337.550781 418.285156 342.535156 415.238281 L 348.785156 425.457031 C 343.53125 428.671875 338.160156 431.667969 332.671875 434.449219 Z M 347.460938 412.132812 C 352.355469 408.957031 357.117188 405.585938 361.746094 402.027344 L 369.050781 411.527344 C 364.167969 415.28125 359.144531 418.832031 353.980469 422.179688 Z M 366.320312 398.414062 C 370.851562 394.734375 375.230469 390.882812 379.457031 386.855469 L 387.722656 395.527344 C 383.265625 399.773438 378.652344 403.835938 373.875 407.714844 Z M 383.621094 382.773438 C 387.738281 378.636719 391.683594 374.339844 395.460938 369.890625 L 404.597656 377.636719 C 400.617188 382.332031 396.457031 386.859375 392.117188 391.222656 Z M 399.167969 365.394531 C 402.824219 360.839844 406.292969 356.152344 409.570312 351.328125 L 419.480469 358.0625 C 416.023438 363.152344 412.367188 368.09375 408.507812 372.894531 Z M 412.78125 346.464844 C 415.933594 341.550781 418.882812 336.523438 421.628906 331.375 L 432.199219 337.015625 C 429.300781 342.441406 426.191406 347.75 422.867188 352.933594 Z M 424.300781 326.199219 C 426.910156 320.976562 429.304688 315.664062 431.480469 310.253906 L 442.59375 314.730469 C 440.296875 320.4375 437.769531 326.046875 435.019531 331.554688 Z M 433.585938 304.816406 C 435.617188 299.351562 437.429688 293.8125 439.011719 288.203125 L 450.542969 291.460938 C 448.871094 297.382812 446.960938 303.226562 444.816406 308.992188 Z M 440.523438 282.5625 C 441.957031 276.917969 443.160156 271.21875 444.136719 265.46875 L 455.949219 267.472656 C 454.917969 273.539062 453.648438 279.554688 452.136719 285.511719 Z M 445.039062 259.691406 C 445.859375 253.917969 446.453125 248.105469 446.8125 242.261719 L 458.773438 243 C 458.390625 249.164062 457.765625 255.289062 456.898438 261.378906 Z M 447.097656 236.496094 L 447.203125 232.433594 C 447.285156 227.9375 447.226562 223.433594 447.03125 218.921875 L 459 218.40625 C 459.207031 223.160156 459.265625 227.941406 459.179688 232.753906 L 459.070312 236.816406 Z M 446.703125 213.097656 C 446.292969 207.257812 445.652344 201.453125 444.78125 195.679688 L 456.628906 193.890625 C 457.546875 199.980469 458.222656 206.101562 458.652344 212.261719 Z M 443.839844 189.953125 C 442.8125 184.203125 441.558594 178.503906 440.074219 172.859375 L 451.660156 169.8125 C 453.226562 175.769531 454.550781 181.78125 455.632812 187.851562 Z M 438.523438 167.265625 C 436.886719 161.660156 435.027344 156.128906 432.945312 150.671875 L 444.136719 146.398438 C 446.335938 152.160156 448.296875 157.996094 450.023438 163.910156 Z M 430.796875 145.261719 C 428.570312 139.871094 426.132812 134.574219 423.476562 129.375 L 434.148438 123.929688 C 436.949219 129.414062 439.523438 135.003906 441.871094 140.691406 Z M 420.757812 124.214844 C 417.96875 119.09375 414.980469 114.089844 411.789062 109.203125 L 421.816406 102.652344 C 425.183594 107.804688 428.339844 113.082031 431.277344 118.484375 Z M 408.53125 104.355469 C 405.210938 99.558594 401.707031 94.902344 398.015625 90.378906 L 407.292969 82.800781 C 411.1875 87.570312 414.882812 92.484375 418.382812 97.542969 Z M 394.265625 85.910156 C 390.457031 81.488281 386.476562 77.226562 382.328125 73.125 L 390.75 64.605469 C 395.125 68.933594 399.324219 73.429688 403.339844 78.089844 Z M 378.125 69.078125 C 373.867188 65.085938 369.460938 61.269531 364.902344 57.628906 L 372.378906 48.265625 C 377.183594 52.105469 381.832031 56.128906 386.320312 60.339844 Z M 360.296875 54.050781 C 355.640625 50.53125 350.851562 47.203125 345.933594 44.070312 L 352.375 33.964844 C 357.558594 37.269531 362.609375 40.78125 367.519531 44.492188 Z M 340.972656 41 C 335.96875 37.996094 330.855469 35.199219 325.632812 32.609375 L 330.957031 21.875 C 336.46875 24.609375 341.859375 27.558594 347.140625 30.726562 Z M 320.367188 30.085938 C 315.074219 27.632812 309.695312 25.402344 304.226562 23.386719 L 308.367188 12.144531 C 314.140625 14.269531 319.816406 16.625 325.402344 19.210938 Z M 298.710938 21.4375 C 293.191406 19.570312 287.605469 17.929688 281.953125 16.511719 L 284.863281 4.890625 C 290.832031 6.386719 296.726562 8.117188 302.550781 10.089844 Z M 276.25 15.164062 C 270.570312 13.902344 264.839844 12.867188 259.0625 12.0625 L 260.71875 0.199219 C 266.8125 1.046875 272.855469 2.136719 278.847656 3.46875 Z M 253.253906 11.332031 C 247.46875 10.683594 241.65625 10.261719 235.8125 10.070312 L 236.203125 -1.902344 C 242.363281 -1.699219 248.492188 -1.257812 254.589844 -0.574219 Z M 232.488281 9.988281 C 226.632812 9.882812 220.796875 10.011719 214.984375 10.367188 L 214.25 -1.59375 C 220.378906 -1.96875 226.53125 -2.101562 232.699219 -1.992188 Z M 232.488281 9.988281 " fill-opacity="1" fill-rule="nonzero"/></g></g></g></g><g clip-path="url(#d3d89e8e0e)"><g clip-path="url(#1344da8a33)"><g clip-path="url(#b64c17936e)"><g transform="matrix(1, 0, 0, 1, 217, 217)"><g clip-path="url(#e88f2d5c77)"><g clip-path="url(#0012028cf2)"><g clip-path="url(#563f379bcb)"><g clip-path="url(#1d1fb8ea26)"><path fill="#000000" d="M 0.199219 0.425781 L 22.765625 0.199219 L 22.992188 22.765625 L 0.425781 22.992188 Z M 0.199219 0.425781 " fill-opacity="1" fill-rule="nonzero"/></g></g></g></g></g></g></g></g><g clip-path="url(#73b68ccfb3)"><g clip-path="url(#7c7ddc0282)"><g clip-path="url(#a55b008efb)"><g transform="matrix(1, 0, 0, 1, 229, 209)"><g clip-path="url(#367e439640)"><g clip-path="url(#dcd7373411)"><g clip-path="url(#cb6605ea26)"><g clip-path="url(#40eb5575d2)"><path fill="#000000" d="M 0.203125 2.101562 L 223.808594 -0.152344 L 224.1875 37.53125 L 0.585938 39.785156 Z M 0.203125 2.101562 " fill-opacity="1" fill-rule="nonzero"/></g></g></g></g></g></g></g></g><g clip-path="url(#a9d4d6ad17)"><g clip-path="url(#b2ebd202f8)"><g transform="matrix(1, 0, 0, 1, 259, 232)"><g clip-path="url(#594994a522)"><g clip-path="url(#531a1db7a2)"><g clip-path="url(#814f9624d5)"><path fill="#ffffff" d="M 0.6875 0.207031 L 10.667969 0.105469 L 10.84375 17.644531 L 0.863281 17.746094 Z M 0.6875 0.207031 " fill-opacity="1" fill-rule="nonzero"/></g></g></g></g></g></g><g clip-path="url(#4004b60bcc)"><g clip-path="url(#5443b06045)"><g clip-path="url(#875473fd64)"><path stroke-linecap="butt" transform="matrix(0.748736, -0.00754902, 0.00754902, 0.748736, 259.688325, 232.213226)" fill="none" stroke-linejoin="miter" d="M -0.00112356 0.00214992 L 13.312989 0.000742174 L 13.311845 23.399528 L -0.00226762 23.400935 Z M -0.00112356 0.00214992 " stroke="#000000" stroke-width="6" stroke-opacity="1" stroke-miterlimit="4"/></g></g></g><g clip-path="url(#4efbeadc77)"><g clip-path="url(#402c8f0315)"><g clip-path="url(#605e9f03c4)"><g transform="matrix(1, 0, 0, 1, 254, 249)"><g clip-path="url(#78a92384f9)"><g clip-path="url(#25e4e4fc2e)"><g clip-path="url(#f5ee12979a)"><g clip-path="url(#fe58d65e2a)"><path fill="#000000" d="M 0.492188 0.800781 L 21.210938 0.589844 L 21.339844 13.464844 L 0.621094 13.671875 Z M 0.492188 0.800781 " fill-opacity="1" fill-rule="nonzero"/></g></g></g></g></g></g></g></g><g clip-path="url(#c761f01f4d)"><g clip-path="url(#3a47c66092)"><g transform="matrix(1, 0, 0, 1, 330, 231)"><g clip-path="url(#1ff2142179)"><g clip-path="url(#50e7dc9c5d)"><g clip-path="url(#92c67bf895)"><path fill="#ffffff" d="M 0.386719 0.492188 L 10.367188 0.390625 L 10.542969 17.929688 L 0.5625 18.03125 Z M 0.386719 0.492188 " fill-opacity="1" fill-rule="nonzero"/></g></g></g></g></g></g><g clip-path="url(#7fb15a2483)"><g clip-path="url(#e651d3c747)"><g clip-path="url(#7705090ee4)"><path stroke-linecap="butt" transform="matrix(0.748736, -0.00754902, 0.00754902, 0.748736, 330.38761, 231.500399)" fill="none" stroke-linejoin="miter" d="M -0.00118429 -0.000545437 L 13.312928 -0.00195318 L 13.311731 23.402049 L -0.00238095 23.403457 Z M -0.00118429 -0.000545437 " stroke="#000000" stroke-width="6" stroke-opacity="1" stroke-miterlimit="4"/></g></g></g><g clip-path="url(#cf537191e3)"><g clip-path="url(#8e89fe865f)"><g clip-path="url(#3c3575efaf)"><g transform="matrix(1, 0, 0, 1, 325, 248)"><g clip-path="url(#0d5b29e908)"><g clip-path="url(#11f23bc96e)"><g clip-path="url(#feedfe7941)"><g clip-path="url(#1fc94e9071)"><path fill="#000000" d="M 0.191406 1.085938 L 20.910156 0.878906 L 21.039062 13.75 L 0.320312 13.960938 Z M 0.191406 1.085938 " fill-opacity="1" fill-rule="nonzero"/></g></g></g></g></g></g></g></g><g clip-path="url(#11a747e811)"><g clip-path="url(#9e78df4761)"><g transform="matrix(1, 0, 0, 1, 392, 230)"><g clip-path="url(#5b43824cf0)"><g clip-path="url(#622a142d95)"><g clip-path="url(#e3bae410d2)"><path fill="#ffffff" d="M 0.910156 0.863281 L 10.886719 0.761719 L 11.0625 18.300781 L 1.085938 18.402344 Z M 0.910156 0.863281 " fill-opacity="1" fill-rule="nonzero"/></g></g></g></g></g></g><g clip-path="url(#7b3e814204)"><g clip-path="url(#0b7c919499)"><g clip-path="url(#100fb5f221)"><path stroke-linecap="butt" transform="matrix(0.748736, -0.00754902, 0.00754902, 0.748736, 392.909898, 230.870039)" fill="none" stroke-linejoin="miter" d="M 0.000330048 0.0014118 L 13.314442 0.00000405577 L 13.313246 23.404006 L -0.000814011 23.400197 Z M 0.000330048 0.0014118 " stroke="#000000" stroke-width="6" stroke-opacity="1" stroke-miterlimit="4"/></g></g></g><g clip-path="url(#33fc7fd679)"><g clip-path="url(#e282e9d8aa)"><g clip-path="url(#460dc4f2dd)"><g transform="matrix(1, 0, 0, 1, 387, 248)"><g clip-path="url(#87d721779a)"><g clip-path="url(#e77a5834b7)"><g clip-path="url(#6cf6bf9d35)"><g clip-path="url(#f17224fe0d)"><path fill="#000000" d="M 0.714844 0.457031 L 21.429688 0.246094 L 21.5625 13.121094 L 0.84375 13.328125 Z M 0.714844 0.457031 " fill-opacity="1" fill-rule="nonzero"/></g></g></g></g></g></g></g></g><g clip-path="url(#d590878ecb)"><g clip-path="url(#85398095b5)"><g clip-path="url(#c38bf0b924)"><g clip-path="url(#6bd9b285ea)"><path fill="#7ac2e2" d="M 331.65625 263.546875 C 331.457031 264.003906 331.03125 264.871094 330.789062 265.3125 C 330.296875 266.210938 329.933594 267.394531 330.722656 268.25 C 331.296875 268.867188 332.402344 268.992188 333.160156 268.578125 C 334.058594 268.085938 334.179688 267.046875 333.886719 266.183594 C 333.65625 265.503906 333.222656 264.90625 332.890625 264.269531 C 332.742188 263.988281 332.667969 263.796875 332.523438 263.515625 C 332.410156 263.292969 332.207031 262.878906 332.023438 262.640625 C 331.960938 262.757812 331.785156 263.238281 331.65625 263.546875 Z M 331.65625 263.546875 " fill-opacity="1" fill-rule="nonzero"/></g></g></g></g><g clip-path="url(#d9bb2195c9)"><g clip-path="url(#583acbc695)"><g clip-path="url(#eabde97801)"><g clip-path="url(#9edc10a4d1)"><path stroke-linecap="round" transform="matrix(0.0748537, -0.0007547, 0.000722394, 0.0716494, 319.965431, 255.654153)" fill="none" stroke-linejoin="round" d="M 174.515041 182.216124 C 186.582692 175.473849 188.340208 160.990324 184.543513 148.847129 C 181.555918 139.383883 175.844448 130.982326 171.494915 122.049924 " stroke="#335894" stroke-width="1.5" stroke-opacity="1" stroke-miterlimit="10"/></g></g></g></g><g clip-path="url(#ae2e9dce19)"><g clip-path="url(#910db95868)"><g clip-path="url(#6b88625808)"><g clip-path="url(#283df329d6)"><path stroke-linecap="round" transform="matrix(0.0748537, -0.0007547, 0.000722394, 0.0716494, 319.965431, 255.654153)" fill="none" stroke-linejoin="round" d="M 153.32467 177.140735 C 149.326814 175.026905 146.125334 171.503971 144.286317 167.39568 C 142.500006 163.233425 142.128338 158.486363 143.266202 154.136833 " stroke="#335894" stroke-width="1.5" stroke-opacity="1" stroke-miterlimit="10"/></g></g></g></g><g clip-path="url(#bf3de42d7b)"><g clip-path="url(#27b41dcf9d)"><g clip-path="url(#8e6bcc9122)"><g clip-path="url(#66eb249ee2)"><path fill="#7ac2e2" d="M 339.089844 265.5 C 338.867188 266.015625 338.390625 266.988281 338.121094 267.480469 C 337.566406 268.488281 337.15625 269.820312 338.046875 270.777344 C 338.691406 271.46875 339.929688 271.609375 340.78125 271.144531 C 341.785156 270.597656 341.921875 269.429688 341.589844 268.457031 C 341.332031 267.699219 340.851562 267.027344 340.476562 266.3125 C 340.308594 266 340.226562 265.785156 340.0625 265.46875 C 339.933594 265.21875 339.710938 264.753906 339.503906 264.488281 C 339.433594 264.621094 339.238281 265.15625 339.089844 265.5 Z M 339.089844 265.5 " fill-opacity="1" fill-rule="nonzero"/></g></g></g></g><g clip-path="url(#1499bd6a62)"><g clip-path="url(#0b4ed9fdda)"><g clip-path="url(#3ab1134e76)"><g clip-path="url(#c9386e1253)"><path stroke-linecap="round" transform="matrix(0.0748537, -0.0007547, 0.000722394, 0.0716494, 319.965431, 255.654153)" fill="none" stroke-linejoin="round" d="M 252.178158 213.455735 C 247.713314 211.064391 244.045898 207.154917 242.055602 202.499843 C 240.012601 197.898733 239.59454 192.551474 240.894204 187.658459 " stroke="#335894" stroke-width="1.5" stroke-opacity="1" stroke-miterlimit="10"/></g></g></g></g><g clip-path="url(#def6b31f3c)"><g clip-path="url(#548fcf76aa)"><g clip-path="url(#95c98f4741)"><g clip-path="url(#54bc13c513)"><path fill="#7ac2e2" d="M 334.523438 272.03125 C 334.269531 272.628906 333.71875 273.75 333.40625 274.320312 C 332.765625 275.480469 332.292969 277.019531 333.320312 278.121094 C 334.0625 278.921875 335.496094 279.082031 336.476562 278.546875 C 337.636719 277.914062 337.796875 276.566406 337.414062 275.445312 C 337.113281 274.570312 336.558594 273.796875 336.125 272.972656 C 335.933594 272.609375 335.835938 272.359375 335.648438 271.996094 C 335.503906 271.707031 335.242188 271.171875 335.003906 270.863281 C 334.925781 271.011719 334.695312 271.632812 334.523438 272.03125 Z M 334.523438 272.03125 " fill-opacity="1" fill-rule="nonzero"/></g></g></g></g><g clip-path="url(#afa8cc762b)"><g clip-path="url(#1a6878a1c2)"><g clip-path="url(#057d7c1837)"><g clip-path="url(#75acd0ac6a)"><path stroke-linecap="round" transform="matrix(0.0748537, -0.0007547, 0.000722394, 0.0716494, 319.965431, 255.654153)" fill="none" stroke-linejoin="round" d="M 217.473129 321.800939 C 233.055768 313.133007 235.376644 294.34842 230.414009 278.649212 C 226.514007 266.395891 219.208637 255.524192 213.527681 243.960858 C 211.019796 238.86418 209.74897 235.361582 207.293265 230.265455 " stroke="#335894" stroke-width="1.5" stroke-opacity="1" stroke-miterlimit="10"/></g></g></g></g><g clip-path="url(#8596460a18)"><g clip-path="url(#4346fc8479)"><g clip-path="url(#b6c594b478)"><g clip-path="url(#bdffa62dc9)"><path stroke-linecap="round" transform="matrix(0.0748537, -0.0007547, 0.000722394, 0.0716494, 319.965431, 255.654153)" fill="none" stroke-linejoin="round" d="M 190.034329 315.296761 C 184.84265 312.516129 180.659223 308.001511 178.310508 302.633916 C 175.961793 297.26632 175.498917 291.155324 177.014667 285.50132 " stroke="#335894" stroke-width="1.5" stroke-opacity="1" stroke-miterlimit="10"/></g></g></g></g><g clip-path="url(#8941460013)"><g clip-path="url(#b0e1854811)"><g clip-path="url(#17a90fafca)"><g clip-path="url(#a6ed31f01f)"><path fill="#7ac2e2" d="M 260.957031 264.257812 C 260.757812 264.71875 260.332031 265.582031 260.089844 266.023438 C 259.597656 266.921875 259.234375 268.109375 260.023438 268.960938 C 260.597656 269.578125 261.703125 269.703125 262.460938 269.289062 C 263.359375 268.800781 263.480469 267.761719 263.1875 266.894531 C 262.953125 266.21875 262.523438 265.621094 262.191406 264.984375 C 262.042969 264.703125 261.96875 264.511719 261.824219 264.230469 C 261.710938 264.007812 261.507812 263.589844 261.324219 263.355469 C 261.261719 263.472656 261.085938 263.949219 260.957031 264.257812 Z M 260.957031 264.257812 " fill-opacity="1" fill-rule="nonzero"/></g></g></g></g><g clip-path="url(#dfaf471a7a)"><g clip-path="url(#1aee607793)"><g clip-path="url(#ae8eb9c264)"><g clip-path="url(#6e618331e6)"><path stroke-linecap="round" transform="matrix(0.0748537, -0.0007547, 0.000722394, 0.0716494, 249.266118, 256.36695)" fill="none" stroke-linejoin="round" d="M 174.516555 182.190182 C 186.58368 175.502421 188.341196 161.018896 184.544501 148.8757 C 181.505251 139.357392 175.845436 131.010898 171.496429 122.023983 " stroke="#335894" stroke-width="1.5" stroke-opacity="1" stroke-miterlimit="10"/></g></g></g></g><g clip-path="url(#dab1fcf2df)"><g clip-path="url(#8746b734fb)"><g clip-path="url(#758b537804)"><g clip-path="url(#0591cd0fb9)"><path stroke-linecap="round" transform="matrix(0.0748537, -0.0007547, 0.000722394, 0.0716494, 249.266118, 256.36695)" fill="none" stroke-linejoin="round" d="M 153.325658 177.169307 C 149.327802 175.055477 146.126322 171.532543 144.287305 167.424252 C 142.500994 163.261997 142.129325 158.514935 143.26719 154.165405 " stroke="#335894" stroke-width="1.5" stroke-opacity="1" stroke-miterlimit="10"/></g></g></g></g><g clip-path="url(#3e4c1a8a2e)"><g clip-path="url(#e042c062cf)"><g clip-path="url(#0885bb4253)"><g clip-path="url(#18b250d313)"><path fill="#7ac2e2" d="M 268.390625 266.214844 C 268.167969 266.730469 267.691406 267.699219 267.421875 268.195312 C 266.867188 269.203125 266.457031 270.535156 267.347656 271.488281 C 267.992188 272.183594 269.230469 272.320312 270.082031 271.859375 C 271.085938 271.308594 271.222656 270.144531 270.890625 269.171875 C 270.632812 268.410156 270.152344 267.742188 269.777344 267.027344 C 269.609375 266.710938 269.527344 266.496094 269.363281 266.179688 C 269.234375 265.933594 269.007812 265.464844 268.804688 265.199219 C 268.734375 265.332031 268.539062 265.871094 268.390625 266.214844 Z M 268.390625 266.214844 " fill-opacity="1" fill-rule="nonzero"/></g></g></g></g><g clip-path="url(#2c4e644901)"><g clip-path="url(#8f9b180bb9)"><g clip-path="url(#b9d699a74c)"><g clip-path="url(#488d93031f)"><path stroke-linecap="round" transform="matrix(0.0748537, -0.0007547, 0.000722394, 0.0716494, 249.266118, 256.36695)" fill="none" stroke-linejoin="round" d="M 252.179145 213.484307 C 247.714301 211.092963 244.046886 207.183489 242.05659 202.528415 C 240.014115 197.872791 239.596053 192.525532 240.895718 187.632517 " stroke="#335894" stroke-width="1.5" stroke-opacity="1" stroke-miterlimit="10"/></g></g></g></g><g clip-path="url(#8b88eb8b8f)"><g clip-path="url(#f97eef9ee3)"><g clip-path="url(#8842219bc6)"><g clip-path="url(#2b3750d5a7)"><path fill="#7ac2e2" d="M 263.824219 272.746094 C 263.570312 273.339844 263.019531 274.460938 262.707031 275.03125 C 262.066406 276.195312 261.59375 277.730469 262.621094 278.835938 C 263.363281 279.632812 264.796875 279.796875 265.777344 279.261719 C 266.9375 278.628906 267.097656 277.28125 266.714844 276.160156 C 266.414062 275.28125 265.859375 274.507812 265.425781 273.683594 C 265.234375 273.320312 265.136719 273.074219 264.949219 272.707031 C 264.804688 272.417969 264.542969 271.882812 264.304688 271.574219 C 264.226562 271.726562 263.996094 272.347656 263.824219 272.746094 Z M 263.824219 272.746094 " fill-opacity="1" fill-rule="nonzero"/></g></g></g></g><g clip-path="url(#a5c5336189)"><g clip-path="url(#f1b059847d)"><g clip-path="url(#7981629b2b)"><g clip-path="url(#03520b15df)"><path stroke-linecap="round" transform="matrix(0.0748537, -0.0007547, 0.000722394, 0.0716494, 249.266118, 256.36695)" fill="none" stroke-linejoin="round" d="M 217.474117 321.829511 C 233.056756 313.161579 235.377632 294.376992 230.414997 278.677784 C 226.515521 266.369949 219.210151 255.498251 213.529195 243.934916 C 211.02131 238.838239 209.749958 235.390154 207.294779 230.239513 " stroke="#335894" stroke-width="1.5" stroke-opacity="1" stroke-miterlimit="10"/></g></g></g></g><g clip-path="url(#4daa6ac7c1)"><g clip-path="url(#1b04009ab1)"><g clip-path="url(#5cc01078eb)"><g clip-path="url(#ce7cd03935)"><path stroke-linecap="round" transform="matrix(0.0748537, -0.0007547, 0.000722394, 0.0716494, 249.266118, 256.36695)" fill="none" stroke-linejoin="round" d="M 190.035843 315.270819 C 184.843638 312.544701 180.660737 307.975569 178.311496 302.662487 C 175.962781 297.294892 175.500431 291.129382 176.964001 285.474829 " stroke="#335894" stroke-width="1.5" stroke-opacity="1" stroke-miterlimit="10"/></g></g></g></g><g clip-path="url(#969ba18ecb)"><g clip-path="url(#e0022c8e33)"><g clip-path="url(#3e3bc43b76)"><g clip-path="url(#e6d9987bf5)"><path fill="#7ac2e2" d="M 394.175781 262.914062 C 393.980469 263.375 393.554688 264.242188 393.3125 264.679688 C 392.820312 265.578125 392.457031 266.765625 393.246094 267.617188 C 393.820312 268.234375 394.925781 268.359375 395.683594 267.945312 C 396.578125 267.457031 396.703125 266.417969 396.40625 265.550781 C 396.175781 264.875 395.746094 264.277344 395.410156 263.640625 C 395.265625 263.359375 395.1875 263.167969 395.042969 262.886719 C 394.929688 262.664062 394.730469 262.246094 394.546875 262.011719 C 394.484375 262.128906 394.308594 262.605469 394.175781 262.914062 Z M 394.175781 262.914062 " fill-opacity="1" fill-rule="nonzero"/></g></g></g></g><g clip-path="url(#09e02b8ea6)"><g clip-path="url(#3c43823d7d)"><g clip-path="url(#bccac75b3b)"><g clip-path="url(#7649c14cd5)"><path stroke-linecap="round" transform="matrix(0.0748537, -0.0007547, 0.000722394, 0.0716494, 382.487718, 255.023778)" fill="none" stroke-linejoin="round" d="M 174.530745 182.182264 C 186.54569 175.493954 188.355386 161.010978 184.506511 148.867233 C 181.518915 139.403988 175.859626 131.00298 171.457913 122.070029 " stroke="#335894" stroke-width="1.5" stroke-opacity="1" stroke-miterlimit="10"/></g></g></g></g><g clip-path="url(#f5df2b84f7)"><g clip-path="url(#146b05d0e2)"><g clip-path="url(#920c4da82f)"><g clip-path="url(#3739fd7a56)"><path stroke-linecap="round" transform="matrix(0.0748537, -0.0007547, 0.000722394, 0.0716494, 382.487718, 255.023778)" fill="none" stroke-linejoin="round" d="M 153.339847 177.161389 C 149.341992 175.047559 146.140512 171.524625 144.301495 167.416334 C 142.515184 163.254079 142.143515 158.507017 143.281379 154.157487 " stroke="#335894" stroke-width="1.5" stroke-opacity="1" stroke-miterlimit="10"/></g></g></g></g><g clip-path="url(#a8a31cd531)"><g clip-path="url(#e4d4a3b4e1)"><g clip-path="url(#73aad0b3fa)"><g clip-path="url(#d5d648851a)"><path fill="#7ac2e2" d="M 401.613281 264.871094 C 401.390625 265.386719 400.914062 266.359375 400.640625 266.851562 C 400.089844 267.859375 399.679688 269.191406 400.566406 270.144531 C 401.210938 270.839844 402.449219 270.980469 403.300781 270.515625 C 404.308594 269.964844 404.445312 268.800781 404.113281 267.828125 C 403.855469 267.066406 403.371094 266.398438 402.996094 265.683594 C 402.832031 265.367188 402.746094 265.15625 402.585938 264.839844 C 402.457031 264.589844 402.230469 264.121094 402.027344 263.859375 C 401.957031 263.988281 401.761719 264.527344 401.613281 264.871094 Z M 401.613281 264.871094 " fill-opacity="1" fill-rule="nonzero"/></g></g></g></g><g clip-path="url(#6c9e36321f)"><g clip-path="url(#5cd4fed163)"><g clip-path="url(#ec7ce8693e)"><g clip-path="url(#6cf3326e59)"><path stroke-linecap="round" transform="matrix(0.0748537, -0.0007547, 0.000722394, 0.0716494, 382.487718, 255.023778)" fill="none" stroke-linejoin="round" d="M 252.193335 213.476389 C 247.728491 211.085045 244.061076 207.175571 242.07078 202.520497 C 240.028305 197.864874 239.609717 192.572128 240.909908 187.6246 " stroke="#335894" stroke-width="1.5" stroke-opacity="1" stroke-miterlimit="10"/></g></g></g></g><g clip-path="url(#4929295a1f)"><g clip-path="url(#2015e7b15c)"><g clip-path="url(#1017bd51c3)"><g clip-path="url(#67295cd67d)"><path fill="#7ac2e2" d="M 397.046875 271.402344 C 396.792969 271.996094 396.242188 273.117188 395.929688 273.6875 C 395.289062 274.851562 394.816406 276.386719 395.84375 277.492188 C 396.585938 278.292969 398.015625 278.453125 399 277.917969 C 400.160156 277.285156 400.316406 275.9375 399.9375 274.816406 C 399.636719 273.9375 399.082031 273.164062 398.648438 272.339844 C 398.457031 271.976562 398.359375 271.730469 398.171875 271.363281 C 398.023438 271.078125 397.765625 270.539062 397.527344 270.234375 C 397.445312 270.382812 397.21875 271.003906 397.046875 271.402344 Z M 397.046875 271.402344 " fill-opacity="1" fill-rule="nonzero"/></g></g></g></g><g clip-path="url(#ee2bf36e4f)"><g clip-path="url(#fe7f80aa80)"><g clip-path="url(#3f7d2cdff8)"><g clip-path="url(#04fe570bf6)"><path stroke-linecap="round" transform="matrix(0.0748537, -0.0007547, 0.000722394, 0.0716494, 382.487718, 255.023778)" fill="none" stroke-linejoin="round" d="M 217.488307 321.821593 C 233.070946 313.153661 235.339642 294.368525 230.429187 278.669867 C 226.529711 266.362032 219.224341 255.490333 213.543385 243.926998 C 211.0355 238.830321 209.764148 235.382236 207.308968 230.231595 " stroke="#335894" stroke-width="1.5" stroke-opacity="1" stroke-miterlimit="10"/></g></g></g></g><g clip-path="url(#a1e8f847ec)"><g clip-path="url(#f6606c3c5e)"><g clip-path="url(#24dbf279e3)"><g clip-path="url(#1c0e9008d4)"><path stroke-linecap="round" transform="matrix(0.0748537, -0.0007547, 0.000722394, 0.0716494, 382.487718, 255.023778)" fill="none" stroke-linejoin="round" d="M 189.997853 315.262352 C 184.857828 312.536783 180.674401 308.022165 178.325686 302.65457 C 175.97697 297.286974 175.514621 291.121464 176.97819 285.466911 " stroke="#335894" stroke-width="1.5" stroke-opacity="1" stroke-miterlimit="10"/></g></g></g></g><g clip-path="url(#234b938fd6)"><g clip-path="url(#cd73130c40)"><g transform="matrix(1, 0, 0, 1, 361, 207)"><g clip-path="url(#928009b232)"><g clip-path="url(#448560aaa1)"><g clip-path="url(#c7a1691a99)"><path fill="#ffffff" d="M 10.285156 17.984375 L 0.304688 18.082031 L 0.128906 0.542969 L 10.105469 0.445312 Z M 10.285156 17.984375 " fill-opacity="1" fill-rule="nonzero"/></g></g></g></g></g></g><g clip-path="url(#caf3f3e0e1)"><g clip-path="url(#ec9ba30dcd)"><g clip-path="url(#01d86ea406)"><path stroke-linecap="butt" transform="matrix(-0.748736, 0.00754902, -0.00754902, -0.748736, 371.283974, 224.975298)" fill="none" stroke-linejoin="miter" d="M -0.00156154 -0.00170398 L 13.312498 0.00210488 L 13.311354 23.40089 L 0.00245838 23.402351 Z M -0.00156154 -0.00170398 " stroke="#000000" stroke-width="6" stroke-opacity="1" stroke-miterlimit="4"/></g></g></g><g clip-path="url(#0f1ef48410)"><g clip-path="url(#059858cf54)"><g clip-path="url(#ee73dfc66d)"><g transform="matrix(1, 0, 0, 1, 355, 194)"><g clip-path="url(#052e435c71)"><g clip-path="url(#06943087ca)"><g clip-path="url(#6b16b3f8a1)"><g clip-path="url(#6022989405)"><path fill="#000000" d="M 21.484375 13.386719 L 0.769531 13.597656 L 0.636719 0.722656 L 21.355469 0.515625 Z M 21.484375 13.386719 " fill-opacity="1" fill-rule="nonzero"/></g></g></g></g></g></g></g></g><g clip-path="url(#ef11cfaae5)"><g clip-path="url(#48e7438903)"><g clip-path="url(#b6e0981564)"><g clip-path="url(#384d2c66ef)"><path fill="#7ac2e2" d="M 370.015625 192.921875 C 370.214844 192.460938 370.640625 191.597656 370.878906 191.15625 C 371.375 190.257812 371.738281 189.070312 370.945312 188.21875 C 370.375 187.601562 369.269531 187.476562 368.507812 187.890625 C 367.613281 188.378906 367.492188 189.417969 367.785156 190.285156 C 368.015625 190.964844 368.445312 191.5625 368.78125 192.199219 C 368.929688 192.480469 369.003906 192.671875 369.148438 192.953125 C 369.261719 193.175781 369.464844 193.589844 369.644531 193.828125 C 369.707031 193.710938 369.886719 193.230469 370.015625 192.921875 Z M 370.015625 192.921875 " fill-opacity="1" fill-rule="nonzero"/></g></g></g></g><g clip-path="url(#db7d85c4b7)"><g clip-path="url(#4117d8d804)"><g clip-path="url(#baddd46320)"><g clip-path="url(#13a036e9e3)"><path stroke-linecap="round" transform="matrix(-0.0748537, 0.000754701, -0.000722394, -0.0716494, 381.705511, 200.813954)" fill="none" stroke-linejoin="round" d="M 174.55484 182.207571 C 186.57031 175.464747 188.327827 160.981222 184.530606 148.89254 C 181.543536 139.374781 175.884246 130.973773 171.482534 122.040822 " stroke="#335894" stroke-width="1.5" stroke-opacity="1" stroke-miterlimit="10"/></g></g></g></g><g clip-path="url(#579a666ba8)"><g clip-path="url(#0f348e4c7f)"><g clip-path="url(#09d65c579b)"><g clip-path="url(#cd43a3b2a2)"><path stroke-linecap="round" transform="matrix(-0.0748537, 0.000754701, -0.000722394, -0.0716494, 381.705511, 200.813954)" fill="none" stroke-linejoin="round" d="M 153.364468 177.132182 C 149.366612 175.018352 146.112427 171.549382 144.326115 167.387127 C 142.487098 163.278836 142.11543 158.531774 143.306 154.12828 " stroke="#335894" stroke-width="1.5" stroke-opacity="1" stroke-miterlimit="10"/></g></g></g></g><g clip-path="url(#bd6c0a637c)"><g clip-path="url(#ca59639c47)"><g clip-path="url(#db5d73f001)"><g clip-path="url(#04673d63bf)"><path fill="#7ac2e2" d="M 362.582031 190.96875 C 362.804688 190.449219 363.28125 189.480469 363.550781 188.988281 C 364.105469 187.980469 364.511719 186.648438 363.625 185.691406 C 362.980469 185 361.742188 184.859375 360.890625 185.324219 C 359.886719 185.871094 359.75 187.039062 360.078125 188.011719 C 360.335938 188.769531 360.820312 189.441406 361.195312 190.152344 C 361.363281 190.46875 361.445312 190.683594 361.609375 191 C 361.738281 191.25 361.960938 191.714844 362.167969 191.980469 C 362.234375 191.847656 362.433594 191.3125 362.582031 190.96875 Z M 362.582031 190.96875 " fill-opacity="1" fill-rule="nonzero"/></g></g></g></g><g clip-path="url(#da3e5c5e50)"><g clip-path="url(#534a5782cf)"><g clip-path="url(#62c1ae80b8)"><g clip-path="url(#3f35c49bf8)"><path stroke-linecap="round" transform="matrix(-0.0748537, 0.000754701, -0.000722394, -0.0716494, 381.705511, 200.813954)" fill="none" stroke-linejoin="round" d="M 252.165776 213.446633 C 247.700932 211.055289 244.085696 207.146364 242.042695 202.545254 C 240.000219 197.889631 239.634338 192.542921 240.881823 187.649357 " stroke="#335894" stroke-width="1.5" stroke-opacity="1" stroke-miterlimit="10"/></g></g></g></g><g clip-path="url(#a3e3b3d159)"><g clip-path="url(#d50f23f9ed)"><g clip-path="url(#d5172389c1)"><g clip-path="url(#99fe7ee966)"><path fill="#7ac2e2" d="M 367.144531 184.4375 C 367.402344 183.839844 367.953125 182.71875 368.265625 182.148438 C 368.902344 180.984375 369.375 179.449219 368.351562 178.347656 C 367.605469 177.546875 366.175781 177.382812 365.195312 177.921875 C 364.035156 178.554688 363.875 179.898438 364.257812 181.023438 C 364.554688 181.898438 365.113281 182.671875 365.546875 183.496094 C 365.738281 183.859375 365.835938 184.109375 366.019531 184.472656 C 366.167969 184.761719 366.429688 185.296875 366.664062 185.605469 C 366.746094 185.453125 366.976562 184.835938 367.144531 184.4375 Z M 367.144531 184.4375 " fill-opacity="1" fill-rule="nonzero"/></g></g></g></g><g clip-path="url(#83cacf2ac6)"><g clip-path="url(#51d4873345)"><g clip-path="url(#d1b570b805)"><g clip-path="url(#0413f8a398)"><path stroke-linecap="round" transform="matrix(-0.0748537, 0.000754701, -0.000722394, -0.0716494, 381.705511, 200.813954)" fill="none" stroke-linejoin="round" d="M 217.460747 321.791837 C 233.043386 313.123905 235.363736 294.393831 230.401628 278.64011 C 226.553805 266.387338 219.196255 255.51509 213.515299 243.951755 C 211.007414 238.855078 209.736588 235.35248 207.333063 230.256902 " stroke="#335894" stroke-width="1.5" stroke-opacity="1" stroke-miterlimit="10"/></g></g></g></g><g clip-path="url(#2f96b88d96)"><g clip-path="url(#2827a0b3be)"><g clip-path="url(#0aae358c94)"><g clip-path="url(#1406090239)"><path stroke-linecap="round" transform="matrix(-0.0748537, 0.000754701, -0.000722394, -0.0716494, 381.705511, 200.813954)" fill="none" stroke-linejoin="round" d="M 190.021948 315.287658 C 184.882448 312.507576 180.646842 307.992409 178.298126 302.624813 C 176.001591 297.257767 175.486535 291.146221 177.002285 285.492217 " stroke="#335894" stroke-width="1.5" stroke-opacity="1" stroke-miterlimit="10"/></g></g></g></g><g clip-path="url(#897553b1e3)"><g clip-path="url(#0f4c315bc4)"><g transform="matrix(1, 0, 0, 1, 293, 208)"><g clip-path="url(#722492b175)"><g clip-path="url(#ec5cbe22e5)"><g clip-path="url(#6f84f2ca08)"><path fill="#ffffff" d="M 10.390625 17.667969 L 0.410156 17.769531 L 0.234375 0.230469 L 10.214844 0.128906 Z M 10.390625 17.667969 " fill-opacity="1" fill-rule="nonzero"/></g></g></g></g></g></g><g clip-path="url(#190495126a)"><g clip-path="url(#632e239f3f)"><g clip-path="url(#0ac2403935)"><path stroke-linecap="butt" transform="matrix(-0.748736, 0.00754902, -0.00754902, -0.748736, 303.389639, 225.659812)" fill="none" stroke-linejoin="miter" d="M -0.00131146 -0.000472337 L 13.312801 -0.00188007 L 13.311604 23.402122 L -0.00250814 23.40353 Z M -0.00131146 -0.000472337 " stroke="#000000" stroke-width="6" stroke-opacity="1" stroke-miterlimit="4"/></g></g></g><g clip-path="url(#0f215d84f4)"><g clip-path="url(#4cb1c9863e)"><g clip-path="url(#ca55f896b3)"><g transform="matrix(1, 0, 0, 1, 287, 195)"><g clip-path="url(#8f80efdadf)"><g clip-path="url(#ca27928e13)"><g clip-path="url(#aeac052ac3)"><g clip-path="url(#8969887a6f)"><path fill="#000000" d="M 21.589844 13.070312 L 0.875 13.28125 L 0.742188 0.40625 L 21.460938 0.199219 Z M 21.589844 13.070312 " fill-opacity="1" fill-rule="nonzero"/></g></g></g></g></g></g></g></g><g clip-path="url(#bb757e83c2)"><g clip-path="url(#40b763f188)"><g clip-path="url(#de416e468f)"><g clip-path="url(#91998fb290)"><path fill="#7ac2e2" d="M 302.121094 193.605469 C 302.320312 193.148438 302.746094 192.28125 302.984375 191.839844 C 303.480469 190.941406 303.84375 189.757812 303.050781 188.90625 C 302.480469 188.285156 301.375 188.160156 300.617188 188.574219 C 299.71875 189.066406 299.597656 190.105469 299.890625 190.96875 C 300.121094 191.648438 300.550781 192.246094 300.886719 192.882812 C 301.035156 193.164062 301.109375 193.355469 301.253906 193.636719 C 301.367188 193.859375 301.570312 194.273438 301.75 194.511719 C 301.8125 194.394531 301.992188 193.914062 302.121094 193.605469 Z M 302.121094 193.605469 " fill-opacity="1" fill-rule="nonzero"/></g></g></g></g><g clip-path="url(#b9a49c9e86)"><g clip-path="url(#6e55e06b9f)"><g clip-path="url(#bc73df1d4a)"><g clip-path="url(#017c8de3c1)"><path stroke-linecap="round" transform="matrix(-0.0748537, 0.000754701, -0.000722394, -0.0716494, 313.811178, 201.498497)" fill="none" stroke-linejoin="round" d="M 174.505715 182.16578 C 186.57284 175.478019 188.330356 160.994494 184.533662 148.851298 C 181.546066 139.388053 175.886776 130.987045 171.485064 122.054094 " stroke="#335894" stroke-width="1.5" stroke-opacity="1" stroke-miterlimit="10"/></g></g></g></g><g clip-path="url(#4d7fdba44f)"><g clip-path="url(#11f3dfc786)"><g clip-path="url(#026f573e6f)"><g clip-path="url(#4c50e3db6c)"><path stroke-linecap="round" transform="matrix(-0.0748537, 0.000754701, -0.000722394, -0.0716494, 313.811178, 201.498497)" fill="none" stroke-linejoin="round" d="M 153.314818 177.144905 C 149.369142 175.031624 146.115482 171.508141 144.328645 167.400399 C 142.490154 163.237595 142.118486 158.490533 143.30853 154.141553 " stroke="#335894" stroke-width="1.5" stroke-opacity="1" stroke-miterlimit="10"/></g></g></g></g><g clip-path="url(#96e6e49fad)"><g clip-path="url(#4a4adaa22b)"><g clip-path="url(#f68c8433df)"><g clip-path="url(#439ff0b56d)"><path fill="#7ac2e2" d="M 294.6875 191.652344 C 294.910156 191.136719 295.386719 190.164062 295.65625 189.671875 C 296.210938 188.664062 296.617188 187.332031 295.730469 186.375 C 295.085938 185.683594 293.847656 185.542969 292.996094 186.007812 C 291.992188 186.554688 291.855469 187.722656 292.183594 188.695312 C 292.445312 189.453125 292.925781 190.125 293.300781 190.839844 C 293.46875 191.152344 293.550781 191.367188 293.714844 191.683594 C 293.84375 191.933594 294.066406 192.398438 294.273438 192.664062 C 294.339844 192.535156 294.539062 191.996094 294.6875 191.652344 Z M 294.6875 191.652344 " fill-opacity="1" fill-rule="nonzero"/></g></g></g></g><g clip-path="url(#1c76bf5a6c)"><g clip-path="url(#81551ee0d4)"><g clip-path="url(#bcfa0882ec)"><g clip-path="url(#61e8a6f42a)"><path stroke-linecap="round" transform="matrix(-0.0748537, 0.000754701, -0.000722394, -0.0716494, 313.811178, 201.498497)" fill="none" stroke-linejoin="round" d="M 252.168306 213.459905 C 247.703462 211.068561 244.088226 207.159637 242.04575 202.504013 C 240.002749 197.902903 239.584688 192.555644 240.884352 187.662629 " stroke="#335894" stroke-width="1.5" stroke-opacity="1" stroke-miterlimit="10"/></g></g></g></g><g clip-path="url(#0fcda13337)"><g clip-path="url(#d3960f64ab)"><g clip-path="url(#e58cb4b960)"><g clip-path="url(#bdcf7bf8f9)"><path fill="#7ac2e2" d="M 299.25 185.121094 C 299.507812 184.523438 300.058594 183.402344 300.371094 182.835938 C 301.007812 181.671875 301.480469 180.132812 300.457031 179.03125 C 299.714844 178.230469 298.28125 178.070312 297.300781 178.605469 C 296.140625 179.238281 295.980469 180.585938 296.363281 181.707031 C 296.660156 182.585938 297.21875 183.355469 297.652344 184.179688 C 297.84375 184.546875 297.941406 184.792969 298.125 185.15625 C 298.273438 185.445312 298.535156 185.984375 298.773438 186.289062 C 298.851562 186.140625 299.082031 185.519531 299.25 185.121094 Z M 299.25 185.121094 " fill-opacity="1" fill-rule="nonzero"/></g></g></g></g><g clip-path="url(#3783683cb0)"><g clip-path="url(#9f27f418b9)"><g clip-path="url(#0d93889606)"><g clip-path="url(#fab61c8835)"><path stroke-linecap="round" transform="matrix(-0.0748537, 0.000754701, -0.000722394, -0.0716494, 313.811178, 201.498497)" fill="none" stroke-linejoin="round" d="M 217.463277 321.805109 C 233.045916 313.137177 235.366792 294.35259 230.404157 278.653382 C 226.556861 266.346097 219.198785 255.528362 213.517829 243.965027 C 211.01047 238.813837 209.739118 235.365752 207.335593 230.270174 " stroke="#335894" stroke-width="1.5" stroke-opacity="1" stroke-miterlimit="10"/></g></g></g></g><g clip-path="url(#1d374700d9)"><g clip-path="url(#2a6d02acd1)"><g clip-path="url(#e47f94fde1)"><g clip-path="url(#67b281768b)"><path stroke-linecap="round" transform="matrix(-0.0748537, 0.000754701, -0.000722394, -0.0716494, 313.811178, 201.498497)" fill="none" stroke-linejoin="round" d="M 190.025003 315.246417 C 184.884978 312.520848 180.649371 308.005681 178.300656 302.638085 C 176.004121 297.27104 175.489591 291.10498 177.004814 285.50549 " stroke="#335894" stroke-width="1.5" stroke-opacity="1" stroke-miterlimit="10"/></g></g></g></g></svg>