<svg xmlns="http://www.w3.org/2000/svg" xmlns:xlink="http://www.w3.org/1999/xlink" width="644" zoomAndPan="magnify" viewBox="0 0 482.87997 482.999988" height="644" preserveAspectRatio="xMidYMid meet" version="1.0"><defs><clipPath id="31cc13034f"><path d="M 16 16 L 467 16 L 467 467 L 16 467 Z M 16 16 " clip-rule="nonzero"/></clipPath><clipPath id="535038a7b4"><path d="M 0 33.859375 L 448.617188 0.0585938 L 482.414062 448.675781 L 33.800781 482.476562 Z M 0 33.859375 " clip-rule="nonzero"/></clipPath><clipPath id="ae09fc2f03"><path d="M 224.308594 16.960938 C 100.425781 26.292969 7.566406 134.285156 16.898438 258.167969 C 26.234375 382.050781 134.226562 474.910156 258.109375 465.578125 C 381.988281 456.242188 474.851562 348.25 465.515625 224.367188 C 456.183594 100.484375 348.191406 7.625 224.308594 16.960938 Z M 224.308594 16.960938 " clip-rule="nonzero"/></clipPath><clipPath id="a3fa175286"><path d="M 0 0 L 451 0 L 451 451 L 0 451 Z M 0 0 " clip-rule="nonzero"/></clipPath><clipPath id="e83310ab8b"><path d="M -16 17.859375 L 432.617188 -15.941406 L 466.414062 432.675781 L 17.800781 466.476562 Z M -16 17.859375 " clip-rule="nonzero"/></clipPath><clipPath id="bf9ff8fcc7"><path d="M 208.308594 0.960938 C 84.425781 10.292969 -8.433594 118.285156 0.898438 242.167969 C 10.234375 366.050781 118.226562 458.910156 242.109375 449.578125 C 365.988281 440.242188 458.851562 332.25 449.515625 208.367188 C 440.183594 84.484375 332.191406 -8.375 208.308594 0.960938 Z M 208.308594 0.960938 " clip-rule="nonzero"/></clipPath><clipPath id="1c04528328"><rect x="0" width="451" y="0" height="451"/></clipPath><clipPath id="b8d0a13ad9"><path d="M 16 16 L 467 16 L 467 467 L 16 467 Z M 16 16 " clip-rule="nonzero"/></clipPath><clipPath id="1292507836"><path d="M 0 33.859375 L 448.617188 0.0585938 L 482.414062 448.675781 L 33.800781 482.476562 Z M 0 33.859375 " clip-rule="nonzero"/></clipPath><clipPath id="6f5ddc0d53"><path d="M 0 33.859375 L 448.617188 0.0585938 L 482.414062 448.675781 L 33.800781 482.476562 Z M 0 33.859375 " clip-rule="nonzero"/></clipPath><clipPath id="f4b5615462"><path d="M 224.308594 16.960938 C 100.425781 26.292969 7.566406 134.285156 16.898438 258.167969 C 26.234375 382.050781 134.226562 474.910156 258.109375 465.578125 C 381.988281 456.242188 474.851562 348.25 465.515625 224.367188 C 456.183594 100.484375 348.191406 7.625 224.308594 16.960938 Z M 224.308594 16.960938 " clip-rule="nonzero"/></clipPath><clipPath id="5d3ff4907c"><path d="M 224 226 L 259 226 L 259 261 L 224 261 Z M 224 226 " clip-rule="nonzero"/></clipPath><clipPath id="5aad378f4c"><path d="M 224.582031 226.457031 L 258.503906 226.117188 L 258.851562 260.4375 L 224.925781 260.78125 Z M 224.582031 226.457031 " clip-rule="nonzero"/></clipPath><clipPath id="54f5da55fe"><path d="M 241.542969 226.289062 C 232.175781 226.382812 224.65625 234.136719 224.753906 243.609375 C 224.847656 253.078125 232.519531 260.679688 241.886719 260.585938 C 251.257812 260.492188 258.773438 252.738281 258.679688 243.265625 C 258.582031 233.792969 250.910156 226.191406 241.542969 226.289062 Z M 241.542969 226.289062 " clip-rule="nonzero"/></clipPath><clipPath id="00f18e3368"><path d="M 0.585938 0.0820312 L 34.894531 0.0820312 L 34.894531 34.875 L 0.585938 34.875 Z M 0.585938 0.0820312 " clip-rule="nonzero"/></clipPath><clipPath id="9ad29d97ed"><path d="M 0.582031 0.457031 L 34.503906 0.117188 L 34.851562 34.4375 L 0.925781 34.78125 Z M 0.582031 0.457031 " clip-rule="nonzero"/></clipPath><clipPath id="f745df65cf"><path d="M 17.542969 0.289062 C 8.175781 0.382812 0.65625 8.136719 0.753906 17.609375 C 0.847656 27.078125 8.519531 34.679688 17.886719 34.585938 C 27.257812 34.492188 34.773438 26.738281 34.679688 17.265625 C 34.582031 7.792969 26.910156 0.191406 17.542969 0.289062 Z M 17.542969 0.289062 " clip-rule="nonzero"/></clipPath><clipPath id="88447b5205"><rect x="0" width="35" y="0" height="35"/></clipPath><clipPath id="b734644620"><path d="M 236 216 L 454 216 L 454 265 L 236 265 Z M 236 216 " clip-rule="nonzero"/></clipPath><clipPath id="c53420e12b"><path d="M 236.316406 218.15625 L 453.574219 215.964844 L 454.054688 263.789062 L 236.800781 265.976562 Z M 236.316406 218.15625 " clip-rule="nonzero"/></clipPath><clipPath id="f342a123cf"><path d="M 453.75 239.878906 L 422.714844 216.277344 L 422.871094 231.671875 L 236.472656 233.554688 L 236.644531 250.582031 L 423.042969 248.703125 L 423.199219 264.097656 Z M 453.75 239.878906 " clip-rule="nonzero"/></clipPath><clipPath id="aa80178a2f"><path d="M 0.339844 0.246094 L 217.96875 0.246094 L 217.96875 48.234375 L 0.339844 48.234375 Z M 0.339844 0.246094 " clip-rule="nonzero"/></clipPath><clipPath id="269a682121"><path d="M 0.316406 2.15625 L 217.574219 -0.0351562 L 218.054688 47.789062 L 0.800781 49.976562 Z M 0.316406 2.15625 " clip-rule="nonzero"/></clipPath><clipPath id="cf10a32447"><path d="M 217.75 23.878906 L 186.714844 0.277344 L 186.871094 15.671875 L 0.472656 17.554688 L 0.644531 34.582031 L 187.042969 32.703125 L 187.199219 48.097656 Z M 217.75 23.878906 " clip-rule="nonzero"/></clipPath><clipPath id="eeeae9af07"><rect x="0" width="218" y="0" height="49"/></clipPath><clipPath id="55ab693acb"><path d="M 272 244 L 283 244 L 283 263 L 272 263 Z M 272 244 " clip-rule="nonzero"/></clipPath><clipPath id="1182ed91ac"><path d="M 272.34375 244.882812 L 282.335938 244.78125 L 282.511719 262.347656 L 272.519531 262.445312 Z M 272.34375 244.882812 " clip-rule="nonzero"/></clipPath><clipPath id="ed56325bb5"><path d="M 0.332031 0.558594 L 10.648438 0.558594 L 10.648438 18.554688 L 0.332031 18.554688 Z M 0.332031 0.558594 " clip-rule="nonzero"/></clipPath><clipPath id="daec696195"><path d="M 0.34375 0.882812 L 10.335938 0.78125 L 10.511719 18.347656 L 0.519531 18.445312 Z M 0.34375 0.882812 " clip-rule="nonzero"/></clipPath><clipPath id="b57825f067"><rect x="0" width="11" y="0" height="19"/></clipPath><clipPath id="0286cecec0"><path d="M 272 244 L 283 244 L 283 263 L 272 263 Z M 272 244 " clip-rule="nonzero"/></clipPath><clipPath id="b279c65537"><path d="M 272.34375 244.882812 L 282.089844 244.785156 L 282.265625 262.03125 L 272.519531 262.128906 Z M 272.34375 244.882812 " clip-rule="nonzero"/></clipPath><clipPath id="24d7400197"><path d="M 272.34375 244.890625 L 282.324219 244.789062 L 282.503906 262.335938 L 272.519531 262.4375 Z M 272.34375 244.890625 " clip-rule="nonzero"/></clipPath><clipPath id="3791d88a2e"><path d="M 267 262 L 289 262 L 289 276 L 267 276 Z M 267 262 " clip-rule="nonzero"/></clipPath><clipPath id="e3e8cf68e3"><path d="M 267.140625 262.5 L 287.9375 262.292969 L 288.066406 275.183594 L 267.269531 275.390625 Z M 267.140625 262.5 " clip-rule="nonzero"/></clipPath><clipPath id="20fbd15f32"><path d="M 272.605469 262.445312 L 282.425781 262.347656 L 288.023438 275.183594 L 267.269531 275.390625 Z M 272.605469 262.445312 " clip-rule="nonzero"/></clipPath><clipPath id="96a737609c"><path d="M 0.0546875 0.316406 L 21.167969 0.316406 L 21.167969 13.511719 L 0.0546875 13.511719 Z M 0.0546875 0.316406 " clip-rule="nonzero"/></clipPath><clipPath id="0853be4ff0"><path d="M 0.140625 0.5 L 20.9375 0.292969 L 21.066406 13.183594 L 0.269531 13.390625 Z M 0.140625 0.5 " clip-rule="nonzero"/></clipPath><clipPath id="9d1b328f34"><path d="M 5.605469 0.445312 L 15.425781 0.347656 L 21.023438 13.183594 L 0.269531 13.390625 Z M 5.605469 0.445312 " clip-rule="nonzero"/></clipPath><clipPath id="d1aecf93e8"><rect x="0" width="22" y="0" height="14"/></clipPath><clipPath id="e8ab89af4f"><path d="M 343 244 L 354 244 L 354 262 L 343 262 Z M 343 244 " clip-rule="nonzero"/></clipPath><clipPath id="df38b14689"><path d="M 343.140625 244.167969 L 353.132812 244.066406 L 353.308594 261.632812 L 343.316406 261.734375 Z M 343.140625 244.167969 " clip-rule="nonzero"/></clipPath><clipPath id="9c7576fbbb"><path d="M 0.113281 0 L 10.433594 0 L 10.433594 17.835938 L 0.113281 17.835938 Z M 0.113281 0 " clip-rule="nonzero"/></clipPath><clipPath id="10b95fecf3"><path d="M 0.140625 0.167969 L 10.132812 0.0664062 L 10.308594 17.632812 L 0.316406 17.734375 Z M 0.140625 0.167969 " clip-rule="nonzero"/></clipPath><clipPath id="dbaab266f0"><rect x="0" width="11" y="0" height="18"/></clipPath><clipPath id="e72bde45dd"><path d="M 343 244 L 354 244 L 354 262 L 343 262 Z M 343 244 " clip-rule="nonzero"/></clipPath><clipPath id="51c789f4a3"><path d="M 343.140625 244.167969 L 352.886719 244.070312 L 353.0625 261.316406 L 343.316406 261.414062 Z M 343.140625 244.167969 " clip-rule="nonzero"/></clipPath><clipPath id="2249c1db66"><path d="M 343.140625 244.175781 L 353.121094 244.074219 L 353.300781 261.621094 L 343.316406 261.722656 Z M 343.140625 244.175781 " clip-rule="nonzero"/></clipPath><clipPath id="8ea1b8948d"><path d="M 338 261 L 359 261 L 359 275 L 338 275 Z M 338 261 " clip-rule="nonzero"/></clipPath><clipPath id="ff82decd6c"><path d="M 337.9375 261.789062 L 358.734375 261.578125 L 358.863281 274.46875 L 338.066406 274.679688 Z M 337.9375 261.789062 " clip-rule="nonzero"/></clipPath><clipPath id="69d91133b1"><path d="M 343.40625 261.730469 L 353.222656 261.632812 L 358.820312 274.46875 L 338.066406 274.679688 Z M 343.40625 261.730469 " clip-rule="nonzero"/></clipPath><clipPath id="5e17319664"><path d="M 0 0.59375 L 20.949219 0.59375 L 20.949219 13.792969 L 0 13.792969 Z M 0 0.59375 " clip-rule="nonzero"/></clipPath><clipPath id="94833c0fbc"><path d="M -0.0625 0.789062 L 20.734375 0.578125 L 20.863281 13.46875 L 0.0664062 13.679688 Z M -0.0625 0.789062 " clip-rule="nonzero"/></clipPath><clipPath id="5653ffa490"><path d="M 5.40625 0.730469 L 15.222656 0.632812 L 20.820312 13.46875 L 0.0664062 13.679688 Z M 5.40625 0.730469 " clip-rule="nonzero"/></clipPath><clipPath id="4e71c2fc5d"><rect x="0" width="21" y="0" height="14"/></clipPath><clipPath id="0336a2e9a5"><path d="M 405 243 L 416 243 L 416 262 L 405 262 Z M 405 243 " clip-rule="nonzero"/></clipPath><clipPath id="946a7b7a31"><path d="M 405.75 243.539062 L 415.742188 243.4375 L 415.917969 261 L 405.925781 261.101562 Z M 405.75 243.539062 " clip-rule="nonzero"/></clipPath><clipPath id="312d6952ff"><path d="M 0.738281 0.359375 L 11 0.359375 L 11 18.113281 L 0.738281 18.113281 Z M 0.738281 0.359375 " clip-rule="nonzero"/></clipPath><clipPath id="43bdc8af5a"><path d="M 0.75 0.539062 L 10.742188 0.4375 L 10.917969 18 L 0.925781 18.101562 Z M 0.75 0.539062 " clip-rule="nonzero"/></clipPath><clipPath id="d8f1aae99b"><rect x="0" width="11" y="0" height="19"/></clipPath><clipPath id="6976c042e4"><path d="M 405 243 L 416 243 L 416 261 L 405 261 Z M 405 243 " clip-rule="nonzero"/></clipPath><clipPath id="4eac49267b"><path d="M 405.75 243.539062 L 415.496094 243.441406 L 415.671875 260.683594 L 405.925781 260.78125 Z M 405.75 243.539062 " clip-rule="nonzero"/></clipPath><clipPath id="a9ef37a9d6"><path d="M 405.75 243.546875 L 415.730469 243.445312 L 415.910156 260.992188 L 405.925781 261.089844 Z M 405.75 243.546875 " clip-rule="nonzero"/></clipPath><clipPath id="d811bca52b"><path d="M 400 261 L 422 261 L 422 275 L 400 275 Z M 400 261 " clip-rule="nonzero"/></clipPath><clipPath id="6b9891fb2c"><path d="M 400.546875 261.15625 L 421.34375 260.945312 L 421.472656 273.835938 L 400.675781 274.046875 Z M 400.546875 261.15625 " clip-rule="nonzero"/></clipPath><clipPath id="5db91d2bd4"><path d="M 406.015625 261.101562 L 415.832031 261 L 421.429688 273.835938 L 400.675781 274.046875 Z M 406.015625 261.101562 " clip-rule="nonzero"/></clipPath><clipPath id="9d0ff5ac3b"><path d="M 0.460938 0 L 21.574219 0 L 21.574219 13.070312 L 0.460938 13.070312 Z M 0.460938 0 " clip-rule="nonzero"/></clipPath><clipPath id="42e915ee72"><path d="M 0.546875 0.15625 L 21.34375 -0.0546875 L 21.472656 12.835938 L 0.675781 13.046875 Z M 0.546875 0.15625 " clip-rule="nonzero"/></clipPath><clipPath id="f2462ea0e5"><path d="M 6.015625 0.101562 L 15.832031 0 L 21.429688 12.835938 L 0.675781 13.046875 Z M 6.015625 0.101562 " clip-rule="nonzero"/></clipPath><clipPath id="de428c7b58"><rect x="0" width="22" y="0" height="14"/></clipPath><clipPath id="8dcf463053"><path d="M 343 275 L 347 275 L 347 282 L 343 282 Z M 343 275 " clip-rule="nonzero"/></clipPath><clipPath id="24ca042065"><path d="M 342.636719 275.382812 L 354.632812 275.261719 L 354.796875 291.757812 L 342.800781 291.878906 Z M 342.636719 275.382812 " clip-rule="nonzero"/></clipPath><clipPath id="3564c4c902"><path d="M 342.636719 275.382812 L 354.632812 275.261719 L 354.796875 291.757812 L 342.800781 291.878906 Z M 342.636719 275.382812 " clip-rule="nonzero"/></clipPath><clipPath id="49cc159a18"><path d="M 342.636719 275.382812 L 354.632812 275.261719 L 354.796875 291.757812 L 342.800781 291.878906 Z M 342.636719 275.382812 " clip-rule="nonzero"/></clipPath><clipPath id="f54b0fae06"><path d="M 345 276 L 347 276 L 347 282 L 345 282 Z M 345 276 " clip-rule="nonzero"/></clipPath><clipPath id="55e681ab56"><path d="M 342.636719 275.382812 L 354.632812 275.261719 L 354.796875 291.757812 L 342.800781 291.878906 Z M 342.636719 275.382812 " clip-rule="nonzero"/></clipPath><clipPath id="5bcbd67370"><path d="M 342.636719 275.382812 L 354.632812 275.261719 L 354.796875 291.757812 L 342.800781 291.878906 Z M 342.636719 275.382812 " clip-rule="nonzero"/></clipPath><clipPath id="cb965edeee"><path d="M 342.636719 275.382812 L 354.632812 275.261719 L 354.796875 291.757812 L 342.800781 291.878906 Z M 342.636719 275.382812 " clip-rule="nonzero"/></clipPath><clipPath id="97dc4fbd90"><path d="M 343 279 L 345 279 L 345 282 L 343 282 Z M 343 279 " clip-rule="nonzero"/></clipPath><clipPath id="da75f19807"><path d="M 342.636719 275.382812 L 354.632812 275.261719 L 354.796875 291.757812 L 342.800781 291.878906 Z M 342.636719 275.382812 " clip-rule="nonzero"/></clipPath><clipPath id="0f17841b3d"><path d="M 342.636719 275.382812 L 354.632812 275.261719 L 354.796875 291.757812 L 342.800781 291.878906 Z M 342.636719 275.382812 " clip-rule="nonzero"/></clipPath><clipPath id="5f419fa99f"><path d="M 342.636719 275.382812 L 354.632812 275.261719 L 354.796875 291.757812 L 342.800781 291.878906 Z M 342.636719 275.382812 " clip-rule="nonzero"/></clipPath><clipPath id="236cb7ecd3"><path d="M 350 277 L 355 277 L 355 285 L 350 285 Z M 350 277 " clip-rule="nonzero"/></clipPath><clipPath id="30ab39ef33"><path d="M 342.636719 275.382812 L 354.632812 275.261719 L 354.796875 291.757812 L 342.800781 291.878906 Z M 342.636719 275.382812 " clip-rule="nonzero"/></clipPath><clipPath id="57ff60bc0c"><path d="M 342.636719 275.382812 L 354.632812 275.261719 L 354.796875 291.757812 L 342.800781 291.878906 Z M 342.636719 275.382812 " clip-rule="nonzero"/></clipPath><clipPath id="2fbdbe0a77"><path d="M 342.636719 275.382812 L 354.632812 275.261719 L 354.796875 291.757812 L 342.800781 291.878906 Z M 342.636719 275.382812 " clip-rule="nonzero"/></clipPath><clipPath id="4df8eac6e6"><path d="M 350 281 L 352 281 L 352 284 L 350 284 Z M 350 281 " clip-rule="nonzero"/></clipPath><clipPath id="b131439826"><path d="M 342.636719 275.382812 L 354.632812 275.261719 L 354.796875 291.757812 L 342.800781 291.878906 Z M 342.636719 275.382812 " clip-rule="nonzero"/></clipPath><clipPath id="7a5bd91ad1"><path d="M 342.636719 275.382812 L 354.632812 275.261719 L 354.796875 291.757812 L 342.800781 291.878906 Z M 342.636719 275.382812 " clip-rule="nonzero"/></clipPath><clipPath id="60ccb02893"><path d="M 342.636719 275.382812 L 354.632812 275.261719 L 354.796875 291.757812 L 342.800781 291.878906 Z M 342.636719 275.382812 " clip-rule="nonzero"/></clipPath><clipPath id="614bf7e923"><path d="M 345 283 L 351 283 L 351 292 L 345 292 Z M 345 283 " clip-rule="nonzero"/></clipPath><clipPath id="a605d96f64"><path d="M 342.636719 275.382812 L 354.632812 275.261719 L 354.796875 291.757812 L 342.800781 291.878906 Z M 342.636719 275.382812 " clip-rule="nonzero"/></clipPath><clipPath id="9186330254"><path d="M 342.636719 275.382812 L 354.632812 275.261719 L 354.796875 291.757812 L 342.800781 291.878906 Z M 342.636719 275.382812 " clip-rule="nonzero"/></clipPath><clipPath id="9e599f17aa"><path d="M 342.636719 275.382812 L 354.632812 275.261719 L 354.796875 291.757812 L 342.800781 291.878906 Z M 342.636719 275.382812 " clip-rule="nonzero"/></clipPath><clipPath id="bd941416b5"><path d="M 348 284 L 351 284 L 351 292 L 348 292 Z M 348 284 " clip-rule="nonzero"/></clipPath><clipPath id="183abbf3b8"><path d="M 342.636719 275.382812 L 354.632812 275.261719 L 354.796875 291.757812 L 342.800781 291.878906 Z M 342.636719 275.382812 " clip-rule="nonzero"/></clipPath><clipPath id="813f49fe96"><path d="M 342.636719 275.382812 L 354.632812 275.261719 L 354.796875 291.757812 L 342.800781 291.878906 Z M 342.636719 275.382812 " clip-rule="nonzero"/></clipPath><clipPath id="f297741c5d"><path d="M 342.636719 275.382812 L 354.632812 275.261719 L 354.796875 291.757812 L 342.800781 291.878906 Z M 342.636719 275.382812 " clip-rule="nonzero"/></clipPath><clipPath id="7fe9dee012"><path d="M 346 288 L 348 288 L 348 291 L 346 291 Z M 346 288 " clip-rule="nonzero"/></clipPath><clipPath id="9c640f1bb1"><path d="M 342.636719 275.382812 L 354.632812 275.261719 L 354.796875 291.757812 L 342.800781 291.878906 Z M 342.636719 275.382812 " clip-rule="nonzero"/></clipPath><clipPath id="0e843219c2"><path d="M 342.636719 275.382812 L 354.632812 275.261719 L 354.796875 291.757812 L 342.800781 291.878906 Z M 342.636719 275.382812 " clip-rule="nonzero"/></clipPath><clipPath id="816614ab82"><path d="M 342.636719 275.382812 L 354.632812 275.261719 L 354.796875 291.757812 L 342.800781 291.878906 Z M 342.636719 275.382812 " clip-rule="nonzero"/></clipPath><clipPath id="bc55e20523"><path d="M 272 276 L 276 276 L 276 283 L 272 283 Z M 272 276 " clip-rule="nonzero"/></clipPath><clipPath id="d51dc54a7d"><path d="M 271.839844 276.097656 L 283.835938 275.976562 L 284 292.46875 L 272.003906 292.589844 Z M 271.839844 276.097656 " clip-rule="nonzero"/></clipPath><clipPath id="0f07e8ce29"><path d="M 271.839844 276.097656 L 283.835938 275.976562 L 284 292.46875 L 272.003906 292.589844 Z M 271.839844 276.097656 " clip-rule="nonzero"/></clipPath><clipPath id="79e9e5d824"><path d="M 271.839844 276.097656 L 283.835938 275.976562 L 284 292.46875 L 272.003906 292.589844 Z M 271.839844 276.097656 " clip-rule="nonzero"/></clipPath><clipPath id="bd2f1c5de6"><path d="M 274 277 L 277 277 L 277 283 L 274 283 Z M 274 277 " clip-rule="nonzero"/></clipPath><clipPath id="9388acc523"><path d="M 271.839844 276.097656 L 283.835938 275.976562 L 284 292.46875 L 272.003906 292.589844 Z M 271.839844 276.097656 " clip-rule="nonzero"/></clipPath><clipPath id="97b9e26115"><path d="M 271.839844 276.097656 L 283.835938 275.976562 L 284 292.46875 L 272.003906 292.589844 Z M 271.839844 276.097656 " clip-rule="nonzero"/></clipPath><clipPath id="022e34763c"><path d="M 271.839844 276.097656 L 283.835938 275.976562 L 284 292.46875 L 272.003906 292.589844 Z M 271.839844 276.097656 " clip-rule="nonzero"/></clipPath><clipPath id="1873979e9f"><path d="M 272 279 L 274 279 L 274 282 L 272 282 Z M 272 279 " clip-rule="nonzero"/></clipPath><clipPath id="7263994e75"><path d="M 271.839844 276.097656 L 283.835938 275.976562 L 284 292.46875 L 272.003906 292.589844 Z M 271.839844 276.097656 " clip-rule="nonzero"/></clipPath><clipPath id="9f5744de24"><path d="M 271.839844 276.097656 L 283.835938 275.976562 L 284 292.46875 L 272.003906 292.589844 Z M 271.839844 276.097656 " clip-rule="nonzero"/></clipPath><clipPath id="5859b768dd"><path d="M 271.839844 276.097656 L 283.835938 275.976562 L 284 292.46875 L 272.003906 292.589844 Z M 271.839844 276.097656 " clip-rule="nonzero"/></clipPath><clipPath id="168d90c075"><path d="M 279 277 L 284 277 L 284 285 L 279 285 Z M 279 277 " clip-rule="nonzero"/></clipPath><clipPath id="00c3ee1459"><path d="M 271.839844 276.097656 L 283.835938 275.976562 L 284 292.46875 L 272.003906 292.589844 Z M 271.839844 276.097656 " clip-rule="nonzero"/></clipPath><clipPath id="c5f7befc6b"><path d="M 271.839844 276.097656 L 283.835938 275.976562 L 284 292.46875 L 272.003906 292.589844 Z M 271.839844 276.097656 " clip-rule="nonzero"/></clipPath><clipPath id="870e130336"><path d="M 271.839844 276.097656 L 283.835938 275.976562 L 284 292.46875 L 272.003906 292.589844 Z M 271.839844 276.097656 " clip-rule="nonzero"/></clipPath><clipPath id="3a7857494b"><path d="M 279 282 L 282 282 L 282 285 L 279 285 Z M 279 282 " clip-rule="nonzero"/></clipPath><clipPath id="99a7d6f7b7"><path d="M 271.839844 276.097656 L 283.835938 275.976562 L 284 292.46875 L 272.003906 292.589844 Z M 271.839844 276.097656 " clip-rule="nonzero"/></clipPath><clipPath id="0053952259"><path d="M 271.839844 276.097656 L 283.835938 275.976562 L 284 292.46875 L 272.003906 292.589844 Z M 271.839844 276.097656 " clip-rule="nonzero"/></clipPath><clipPath id="7bbb54b18d"><path d="M 271.839844 276.097656 L 283.835938 275.976562 L 284 292.46875 L 272.003906 292.589844 Z M 271.839844 276.097656 " clip-rule="nonzero"/></clipPath><clipPath id="e91e0d29a1"><path d="M 274 284 L 280 284 L 280 293 L 274 293 Z M 274 284 " clip-rule="nonzero"/></clipPath><clipPath id="68a753416a"><path d="M 271.839844 276.097656 L 283.835938 275.976562 L 284 292.46875 L 272.003906 292.589844 Z M 271.839844 276.097656 " clip-rule="nonzero"/></clipPath><clipPath id="0401e93bf2"><path d="M 271.839844 276.097656 L 283.835938 275.976562 L 284 292.46875 L 272.003906 292.589844 Z M 271.839844 276.097656 " clip-rule="nonzero"/></clipPath><clipPath id="5793f5a603"><path d="M 271.839844 276.097656 L 283.835938 275.976562 L 284 292.46875 L 272.003906 292.589844 Z M 271.839844 276.097656 " clip-rule="nonzero"/></clipPath><clipPath id="5436f6c1d5"><path d="M 277 285 L 280 285 L 280 293 L 277 293 Z M 277 285 " clip-rule="nonzero"/></clipPath><clipPath id="e3d9fb1ff9"><path d="M 271.839844 276.097656 L 283.835938 275.976562 L 284 292.46875 L 272.003906 292.589844 Z M 271.839844 276.097656 " clip-rule="nonzero"/></clipPath><clipPath id="8af031f83a"><path d="M 271.839844 276.097656 L 283.835938 275.976562 L 284 292.46875 L 272.003906 292.589844 Z M 271.839844 276.097656 " clip-rule="nonzero"/></clipPath><clipPath id="7a678ab71f"><path d="M 271.839844 276.097656 L 283.835938 275.976562 L 284 292.46875 L 272.003906 292.589844 Z M 271.839844 276.097656 " clip-rule="nonzero"/></clipPath><clipPath id="43ca7074b1"><path d="M 275 289 L 277 289 L 277 292 L 275 292 Z M 275 289 " clip-rule="nonzero"/></clipPath><clipPath id="3f10035d22"><path d="M 271.839844 276.097656 L 283.835938 275.976562 L 284 292.46875 L 272.003906 292.589844 Z M 271.839844 276.097656 " clip-rule="nonzero"/></clipPath><clipPath id="00b6d7ceec"><path d="M 271.839844 276.097656 L 283.835938 275.976562 L 284 292.46875 L 272.003906 292.589844 Z M 271.839844 276.097656 " clip-rule="nonzero"/></clipPath><clipPath id="485721b4d3"><path d="M 271.839844 276.097656 L 283.835938 275.976562 L 284 292.46875 L 272.003906 292.589844 Z M 271.839844 276.097656 " clip-rule="nonzero"/></clipPath><clipPath id="e268685c30"><path d="M 405 274 L 410 274 L 410 281 L 405 281 Z M 405 274 " clip-rule="nonzero"/></clipPath><clipPath id="0601044587"><path d="M 405.246094 274.75 L 417.242188 274.628906 L 417.40625 291.125 L 405.410156 291.246094 Z M 405.246094 274.75 " clip-rule="nonzero"/></clipPath><clipPath id="d5b78394f3"><path d="M 405.246094 274.75 L 417.242188 274.628906 L 417.40625 291.125 L 405.410156 291.246094 Z M 405.246094 274.75 " clip-rule="nonzero"/></clipPath><clipPath id="dfa845d24b"><path d="M 405.246094 274.75 L 417.242188 274.628906 L 417.40625 291.125 L 405.410156 291.246094 Z M 405.246094 274.75 " clip-rule="nonzero"/></clipPath><clipPath id="c2b54d5e6e"><path d="M 408 276 L 410 276 L 410 281 L 408 281 Z M 408 276 " clip-rule="nonzero"/></clipPath><clipPath id="0bf3b327d1"><path d="M 405.246094 274.75 L 417.242188 274.628906 L 417.40625 291.125 L 405.410156 291.246094 Z M 405.246094 274.75 " clip-rule="nonzero"/></clipPath><clipPath id="e019ab9ae1"><path d="M 405.246094 274.75 L 417.242188 274.628906 L 417.40625 291.125 L 405.410156 291.246094 Z M 405.246094 274.75 " clip-rule="nonzero"/></clipPath><clipPath id="89f8efcd69"><path d="M 405.246094 274.75 L 417.242188 274.628906 L 417.40625 291.125 L 405.410156 291.246094 Z M 405.246094 274.75 " clip-rule="nonzero"/></clipPath><clipPath id="f65b5fb135"><path d="M 406 278 L 407 278 L 407 281 L 406 281 Z M 406 278 " clip-rule="nonzero"/></clipPath><clipPath id="23097448ef"><path d="M 405.246094 274.75 L 417.242188 274.628906 L 417.40625 291.125 L 405.410156 291.246094 Z M 405.246094 274.75 " clip-rule="nonzero"/></clipPath><clipPath id="c63c23a4fe"><path d="M 405.246094 274.75 L 417.242188 274.628906 L 417.40625 291.125 L 405.410156 291.246094 Z M 405.246094 274.75 " clip-rule="nonzero"/></clipPath><clipPath id="caf74d3113"><path d="M 405.246094 274.75 L 417.242188 274.628906 L 417.40625 291.125 L 405.410156 291.246094 Z M 405.246094 274.75 " clip-rule="nonzero"/></clipPath><clipPath id="633bff6206"><path d="M 412 276 L 418 276 L 418 284 L 412 284 Z M 412 276 " clip-rule="nonzero"/></clipPath><clipPath id="181f819002"><path d="M 405.246094 274.75 L 417.242188 274.628906 L 417.40625 291.125 L 405.410156 291.246094 Z M 405.246094 274.75 " clip-rule="nonzero"/></clipPath><clipPath id="bf07b80758"><path d="M 405.246094 274.75 L 417.242188 274.628906 L 417.40625 291.125 L 405.410156 291.246094 Z M 405.246094 274.75 " clip-rule="nonzero"/></clipPath><clipPath id="556ac613ba"><path d="M 405.246094 274.75 L 417.242188 274.628906 L 417.40625 291.125 L 405.410156 291.246094 Z M 405.246094 274.75 " clip-rule="nonzero"/></clipPath><clipPath id="99bfbe62d1"><path d="M 413 280 L 415 280 L 415 283 L 413 283 Z M 413 280 " clip-rule="nonzero"/></clipPath><clipPath id="714008e75b"><path d="M 405.246094 274.75 L 417.242188 274.628906 L 417.40625 291.125 L 405.410156 291.246094 Z M 405.246094 274.75 " clip-rule="nonzero"/></clipPath><clipPath id="79e079ef8c"><path d="M 405.246094 274.75 L 417.242188 274.628906 L 417.40625 291.125 L 405.410156 291.246094 Z M 405.246094 274.75 " clip-rule="nonzero"/></clipPath><clipPath id="763996e0f9"><path d="M 405.246094 274.75 L 417.242188 274.628906 L 417.40625 291.125 L 405.410156 291.246094 Z M 405.246094 274.75 " clip-rule="nonzero"/></clipPath><clipPath id="82b29fe937"><path d="M 408 282 L 413 282 L 413 291 L 408 291 Z M 408 282 " clip-rule="nonzero"/></clipPath><clipPath id="51afe1331e"><path d="M 405.246094 274.75 L 417.242188 274.628906 L 417.40625 291.125 L 405.410156 291.246094 Z M 405.246094 274.75 " clip-rule="nonzero"/></clipPath><clipPath id="85842346ea"><path d="M 405.246094 274.75 L 417.242188 274.628906 L 417.40625 291.125 L 405.410156 291.246094 Z M 405.246094 274.75 " clip-rule="nonzero"/></clipPath><clipPath id="db89d0b5aa"><path d="M 405.246094 274.75 L 417.242188 274.628906 L 417.40625 291.125 L 405.410156 291.246094 Z M 405.246094 274.75 " clip-rule="nonzero"/></clipPath><clipPath id="345e648422"><path d="M 410 284 L 414 284 L 414 291 L 410 291 Z M 410 284 " clip-rule="nonzero"/></clipPath><clipPath id="a6e6951482"><path d="M 405.246094 274.75 L 417.242188 274.628906 L 417.40625 291.125 L 405.410156 291.246094 Z M 405.246094 274.75 " clip-rule="nonzero"/></clipPath><clipPath id="7fa75b36a6"><path d="M 405.246094 274.75 L 417.242188 274.628906 L 417.40625 291.125 L 405.410156 291.246094 Z M 405.246094 274.75 " clip-rule="nonzero"/></clipPath><clipPath id="f60c13f197"><path d="M 405.246094 274.75 L 417.242188 274.628906 L 417.40625 291.125 L 405.410156 291.246094 Z M 405.246094 274.75 " clip-rule="nonzero"/></clipPath><clipPath id="b796e3699b"><path d="M 408 288 L 410 288 L 410 291 L 408 291 Z M 408 288 " clip-rule="nonzero"/></clipPath><clipPath id="46f80df851"><path d="M 405.246094 274.75 L 417.242188 274.628906 L 417.40625 291.125 L 405.410156 291.246094 Z M 405.246094 274.75 " clip-rule="nonzero"/></clipPath><clipPath id="7e87673fe9"><path d="M 405.246094 274.75 L 417.242188 274.628906 L 417.40625 291.125 L 405.410156 291.246094 Z M 405.246094 274.75 " clip-rule="nonzero"/></clipPath><clipPath id="212a81c7be"><path d="M 405.246094 274.75 L 417.242188 274.628906 L 417.40625 291.125 L 405.410156 291.246094 Z M 405.246094 274.75 " clip-rule="nonzero"/></clipPath><clipPath id="3d4a7c7d97"><path d="M 373 220 L 385 220 L 385 238 L 373 238 Z M 373 220 " clip-rule="nonzero"/></clipPath><clipPath id="5c3ab1e933"><path d="M 384.09375 237.648438 L 374.101562 237.75 L 373.925781 220.1875 L 383.917969 220.085938 Z M 384.09375 237.648438 " clip-rule="nonzero"/></clipPath><clipPath id="57c6fbe5de"><path d="M 0.828125 0.0859375 L 11.144531 0.0859375 L 11.144531 17.839844 L 0.828125 17.839844 Z M 0.828125 0.0859375 " clip-rule="nonzero"/></clipPath><clipPath id="0cc563bda0"><path d="M 11.09375 17.648438 L 1.101562 17.75 L 0.925781 0.1875 L 10.917969 0.0859375 Z M 11.09375 17.648438 " clip-rule="nonzero"/></clipPath><clipPath id="b2dc9a8bab"><rect x="0" width="12" y="0" height="18"/></clipPath><clipPath id="a69a0b0186"><path d="M 374 220 L 385 220 L 385 238 L 374 238 Z M 374 220 " clip-rule="nonzero"/></clipPath><clipPath id="ca4e1e7777"><path d="M 384.09375 237.648438 L 374.347656 237.75 L 374.171875 220.503906 L 383.921875 220.40625 Z M 384.09375 237.648438 " clip-rule="nonzero"/></clipPath><clipPath id="c11395a4d3"><path d="M 384.09375 237.644531 L 374.113281 237.742188 L 373.9375 220.199219 L 383.917969 220.097656 Z M 384.09375 237.644531 " clip-rule="nonzero"/></clipPath><clipPath id="dc151a8671"><path d="M 368 207 L 390 207 L 390 221 L 368 221 Z M 368 207 " clip-rule="nonzero"/></clipPath><clipPath id="3fe98f25a0"><path d="M 389.304688 220.03125 L 368.507812 220.238281 L 368.375 207.347656 L 389.171875 207.140625 Z M 389.304688 220.03125 " clip-rule="nonzero"/></clipPath><clipPath id="81998bb50d"><path d="M 383.835938 220.085938 L 374.015625 220.183594 L 368.421875 207.347656 L 389.171875 207.140625 Z M 383.835938 220.085938 " clip-rule="nonzero"/></clipPath><clipPath id="f4342049ab"><path d="M 0.308594 0.128906 L 21.183594 0.128906 L 21.183594 13.324219 L 0.308594 13.324219 Z M 0.308594 0.128906 " clip-rule="nonzero"/></clipPath><clipPath id="e2289acc22"><path d="M 21.304688 13.03125 L 0.507812 13.238281 L 0.375 0.347656 L 21.171875 0.140625 Z M 21.304688 13.03125 " clip-rule="nonzero"/></clipPath><clipPath id="860d9f7e51"><path d="M 15.835938 13.085938 L 6.015625 13.183594 L 0.421875 0.347656 L 21.171875 0.140625 Z M 15.835938 13.085938 " clip-rule="nonzero"/></clipPath><clipPath id="a49e218e31"><rect x="0" width="22" y="0" height="14"/></clipPath><clipPath id="35ffd6ffa1"><path d="M 380 200 L 385 200 L 385 207 L 380 207 Z M 380 200 " clip-rule="nonzero"/></clipPath><clipPath id="efde21f6d5"><path d="M 384.597656 206.429688 L 372.601562 206.550781 L 372.4375 190.054688 L 384.433594 189.933594 Z M 384.597656 206.429688 " clip-rule="nonzero"/></clipPath><clipPath id="a79ed70e3c"><path d="M 384.597656 206.429688 L 372.601562 206.550781 L 372.4375 190.054688 L 384.433594 189.933594 Z M 384.597656 206.429688 " clip-rule="nonzero"/></clipPath><clipPath id="d27623f52d"><path d="M 384.597656 206.429688 L 372.601562 206.550781 L 372.4375 190.054688 L 384.433594 189.933594 Z M 384.597656 206.429688 " clip-rule="nonzero"/></clipPath><clipPath id="6140dd2b99"><path d="M 380 200 L 382 200 L 382 205 L 380 205 Z M 380 200 " clip-rule="nonzero"/></clipPath><clipPath id="642f740ee4"><path d="M 384.597656 206.429688 L 372.601562 206.550781 L 372.4375 190.054688 L 384.433594 189.933594 Z M 384.597656 206.429688 " clip-rule="nonzero"/></clipPath><clipPath id="2e57bca92c"><path d="M 384.597656 206.429688 L 372.601562 206.550781 L 372.4375 190.054688 L 384.433594 189.933594 Z M 384.597656 206.429688 " clip-rule="nonzero"/></clipPath><clipPath id="e9f6fdb794"><path d="M 384.597656 206.429688 L 372.601562 206.550781 L 372.4375 190.054688 L 384.433594 189.933594 Z M 384.597656 206.429688 " clip-rule="nonzero"/></clipPath><clipPath id="2ac2f98e06"><path d="M 382 200 L 384 200 L 384 203 L 382 203 Z M 382 200 " clip-rule="nonzero"/></clipPath><clipPath id="a38f5ddb0e"><path d="M 384.597656 206.429688 L 372.601562 206.550781 L 372.4375 190.054688 L 384.433594 189.933594 Z M 384.597656 206.429688 " clip-rule="nonzero"/></clipPath><clipPath id="6401b0ab16"><path d="M 384.597656 206.429688 L 372.601562 206.550781 L 372.4375 190.054688 L 384.433594 189.933594 Z M 384.597656 206.429688 " clip-rule="nonzero"/></clipPath><clipPath id="b39153e2cb"><path d="M 384.597656 206.429688 L 372.601562 206.550781 L 372.4375 190.054688 L 384.433594 189.933594 Z M 384.597656 206.429688 " clip-rule="nonzero"/></clipPath><clipPath id="eb6b3663c6"><path d="M 372 197 L 377 197 L 377 205 L 372 205 Z M 372 197 " clip-rule="nonzero"/></clipPath><clipPath id="dceffcb0a2"><path d="M 384.597656 206.429688 L 372.601562 206.550781 L 372.4375 190.054688 L 384.433594 189.933594 Z M 384.597656 206.429688 " clip-rule="nonzero"/></clipPath><clipPath id="b4f702ea89"><path d="M 384.597656 206.429688 L 372.601562 206.550781 L 372.4375 190.054688 L 384.433594 189.933594 Z M 384.597656 206.429688 " clip-rule="nonzero"/></clipPath><clipPath id="d28b84d404"><path d="M 384.597656 206.429688 L 372.601562 206.550781 L 372.4375 190.054688 L 384.433594 189.933594 Z M 384.597656 206.429688 " clip-rule="nonzero"/></clipPath><clipPath id="784ff0b13c"><path d="M 375 198 L 377 198 L 377 201 L 375 201 Z M 375 198 " clip-rule="nonzero"/></clipPath><clipPath id="ac752b2ba0"><path d="M 384.597656 206.429688 L 372.601562 206.550781 L 372.4375 190.054688 L 384.433594 189.933594 Z M 384.597656 206.429688 " clip-rule="nonzero"/></clipPath><clipPath id="8093404b4a"><path d="M 384.597656 206.429688 L 372.601562 206.550781 L 372.4375 190.054688 L 384.433594 189.933594 Z M 384.597656 206.429688 " clip-rule="nonzero"/></clipPath><clipPath id="357ae90045"><path d="M 384.597656 206.429688 L 372.601562 206.550781 L 372.4375 190.054688 L 384.433594 189.933594 Z M 384.597656 206.429688 " clip-rule="nonzero"/></clipPath><clipPath id="eb2ea8350b"><path d="M 376 190 L 382 190 L 382 199 L 376 199 Z M 376 190 " clip-rule="nonzero"/></clipPath><clipPath id="015e036976"><path d="M 384.597656 206.429688 L 372.601562 206.550781 L 372.4375 190.054688 L 384.433594 189.933594 Z M 384.597656 206.429688 " clip-rule="nonzero"/></clipPath><clipPath id="d9ed06213a"><path d="M 384.597656 206.429688 L 372.601562 206.550781 L 372.4375 190.054688 L 384.433594 189.933594 Z M 384.597656 206.429688 " clip-rule="nonzero"/></clipPath><clipPath id="f137faee4b"><path d="M 384.597656 206.429688 L 372.601562 206.550781 L 372.4375 190.054688 L 384.433594 189.933594 Z M 384.597656 206.429688 " clip-rule="nonzero"/></clipPath><clipPath id="9642792068"><path d="M 376 190 L 379 190 L 379 198 L 376 198 Z M 376 190 " clip-rule="nonzero"/></clipPath><clipPath id="71bc86a365"><path d="M 384.597656 206.429688 L 372.601562 206.550781 L 372.4375 190.054688 L 384.433594 189.933594 Z M 384.597656 206.429688 " clip-rule="nonzero"/></clipPath><clipPath id="95b0553f7d"><path d="M 384.597656 206.429688 L 372.601562 206.550781 L 372.4375 190.054688 L 384.433594 189.933594 Z M 384.597656 206.429688 " clip-rule="nonzero"/></clipPath><clipPath id="179e4e5a42"><path d="M 384.597656 206.429688 L 372.601562 206.550781 L 372.4375 190.054688 L 384.433594 189.933594 Z M 384.597656 206.429688 " clip-rule="nonzero"/></clipPath><clipPath id="3a0899075e"><path d="M 380 190 L 382 190 L 382 194 L 380 194 Z M 380 190 " clip-rule="nonzero"/></clipPath><clipPath id="95d4292e60"><path d="M 384.597656 206.429688 L 372.601562 206.550781 L 372.4375 190.054688 L 384.433594 189.933594 Z M 384.597656 206.429688 " clip-rule="nonzero"/></clipPath><clipPath id="a47843a1fd"><path d="M 384.597656 206.429688 L 372.601562 206.550781 L 372.4375 190.054688 L 384.433594 189.933594 Z M 384.597656 206.429688 " clip-rule="nonzero"/></clipPath><clipPath id="64dcf737e2"><path d="M 384.597656 206.429688 L 372.601562 206.550781 L 372.4375 190.054688 L 384.433594 189.933594 Z M 384.597656 206.429688 " clip-rule="nonzero"/></clipPath><clipPath id="c1bc3f8b34"><path d="M 305 220 L 317 220 L 317 239 L 305 239 Z M 305 220 " clip-rule="nonzero"/></clipPath><clipPath id="4185aa9849"><path d="M 316.105469 238.335938 L 306.113281 238.4375 L 305.9375 220.871094 L 315.929688 220.773438 Z M 316.105469 238.335938 " clip-rule="nonzero"/></clipPath><clipPath id="9339a2a1b7"><path d="M 0.925781 0.566406 L 11.242188 0.566406 L 11.242188 18.5625 L 0.925781 18.5625 Z M 0.925781 0.566406 " clip-rule="nonzero"/></clipPath><clipPath id="015812a8cd"><path d="M 11.105469 18.335938 L 1.113281 18.4375 L 0.9375 0.871094 L 10.929688 0.773438 Z M 11.105469 18.335938 " clip-rule="nonzero"/></clipPath><clipPath id="f0e120cb6c"><rect x="0" width="12" y="0" height="19"/></clipPath><clipPath id="8a698ef145"><path d="M 306 221 L 317 221 L 317 239 L 306 239 Z M 306 221 " clip-rule="nonzero"/></clipPath><clipPath id="a2b20ddfa4"><path d="M 316.105469 238.335938 L 306.359375 238.433594 L 306.183594 221.1875 L 315.933594 221.089844 Z M 316.105469 238.335938 " clip-rule="nonzero"/></clipPath><clipPath id="234bad603d"><path d="M 316.105469 238.328125 L 306.125 238.429688 L 305.949219 220.882812 L 315.929688 220.78125 Z M 316.105469 238.328125 " clip-rule="nonzero"/></clipPath><clipPath id="ea2d71a360"><path d="M 300 207 L 322 207 L 322 221 L 300 221 Z M 300 207 " clip-rule="nonzero"/></clipPath><clipPath id="d4d3c21e6c"><path d="M 321.316406 220.714844 L 300.515625 220.925781 L 300.386719 208.035156 L 321.183594 207.824219 Z M 321.316406 220.714844 " clip-rule="nonzero"/></clipPath><clipPath id="f566d65d89"><path d="M 315.847656 220.769531 L 306.027344 220.871094 L 300.433594 208.035156 L 321.183594 207.824219 Z M 315.847656 220.769531 " clip-rule="nonzero"/></clipPath><clipPath id="bf1faf32b4"><path d="M 0.40625 0.609375 L 21.28125 0.609375 L 21.28125 14 L 0.40625 14 Z M 0.40625 0.609375 " clip-rule="nonzero"/></clipPath><clipPath id="7a91aa27f0"><path d="M 21.316406 13.714844 L 0.515625 13.925781 L 0.386719 1.035156 L 21.183594 0.824219 Z M 21.316406 13.714844 " clip-rule="nonzero"/></clipPath><clipPath id="9a1f4d733a"><path d="M 15.847656 13.769531 L 6.027344 13.871094 L 0.433594 1.035156 L 21.183594 0.824219 Z M 15.847656 13.769531 " clip-rule="nonzero"/></clipPath><clipPath id="58b8e378bc"><rect x="0" width="22" y="0" height="14"/></clipPath><clipPath id="979fea5b81"><path d="M 312 200 L 317 200 L 317 208 L 312 208 Z M 312 200 " clip-rule="nonzero"/></clipPath><clipPath id="a62c62384a"><path d="M 316.609375 207.113281 L 304.613281 207.234375 L 304.449219 190.742188 L 316.445312 190.621094 Z M 316.609375 207.113281 " clip-rule="nonzero"/></clipPath><clipPath id="914a97ea49"><path d="M 316.609375 207.113281 L 304.613281 207.234375 L 304.449219 190.742188 L 316.445312 190.621094 Z M 316.609375 207.113281 " clip-rule="nonzero"/></clipPath><clipPath id="921706a685"><path d="M 316.609375 207.113281 L 304.613281 207.234375 L 304.449219 190.742188 L 316.445312 190.621094 Z M 316.609375 207.113281 " clip-rule="nonzero"/></clipPath><clipPath id="73df1c6f2a"><path d="M 312 201 L 314 201 L 314 206 L 312 206 Z M 312 201 " clip-rule="nonzero"/></clipPath><clipPath id="1f6f03f201"><path d="M 316.609375 207.113281 L 304.613281 207.234375 L 304.449219 190.742188 L 316.445312 190.621094 Z M 316.609375 207.113281 " clip-rule="nonzero"/></clipPath><clipPath id="0f247bb99a"><path d="M 316.609375 207.113281 L 304.613281 207.234375 L 304.449219 190.742188 L 316.445312 190.621094 Z M 316.609375 207.113281 " clip-rule="nonzero"/></clipPath><clipPath id="3dd0c3a244"><path d="M 316.609375 207.113281 L 304.613281 207.234375 L 304.449219 190.742188 L 316.445312 190.621094 Z M 316.609375 207.113281 " clip-rule="nonzero"/></clipPath><clipPath id="5601d4a8fc"><path d="M 314 201 L 316 201 L 316 204 L 314 204 Z M 314 201 " clip-rule="nonzero"/></clipPath><clipPath id="6b07e8b8de"><path d="M 316.609375 207.113281 L 304.613281 207.234375 L 304.449219 190.742188 L 316.445312 190.621094 Z M 316.609375 207.113281 " clip-rule="nonzero"/></clipPath><clipPath id="0fa9c130b1"><path d="M 316.609375 207.113281 L 304.613281 207.234375 L 304.449219 190.742188 L 316.445312 190.621094 Z M 316.609375 207.113281 " clip-rule="nonzero"/></clipPath><clipPath id="2cfcd1299c"><path d="M 316.609375 207.113281 L 304.613281 207.234375 L 304.449219 190.742188 L 316.445312 190.621094 Z M 316.609375 207.113281 " clip-rule="nonzero"/></clipPath><clipPath id="2ff7cdc0e6"><path d="M 304 198 L 309 198 L 309 206 L 304 206 Z M 304 198 " clip-rule="nonzero"/></clipPath><clipPath id="6418018317"><path d="M 316.609375 207.113281 L 304.613281 207.234375 L 304.449219 190.742188 L 316.445312 190.621094 Z M 316.609375 207.113281 " clip-rule="nonzero"/></clipPath><clipPath id="0d269ef9e5"><path d="M 316.609375 207.113281 L 304.613281 207.234375 L 304.449219 190.742188 L 316.445312 190.621094 Z M 316.609375 207.113281 " clip-rule="nonzero"/></clipPath><clipPath id="266970e4a1"><path d="M 316.609375 207.113281 L 304.613281 207.234375 L 304.449219 190.742188 L 316.445312 190.621094 Z M 316.609375 207.113281 " clip-rule="nonzero"/></clipPath><clipPath id="011ebf3629"><path d="M 307 198 L 309 198 L 309 201 L 307 201 Z M 307 198 " clip-rule="nonzero"/></clipPath><clipPath id="5c613a0248"><path d="M 316.609375 207.113281 L 304.613281 207.234375 L 304.449219 190.742188 L 316.445312 190.621094 Z M 316.609375 207.113281 " clip-rule="nonzero"/></clipPath><clipPath id="1b22137926"><path d="M 316.609375 207.113281 L 304.613281 207.234375 L 304.449219 190.742188 L 316.445312 190.621094 Z M 316.609375 207.113281 " clip-rule="nonzero"/></clipPath><clipPath id="1a00ecc6ee"><path d="M 316.609375 207.113281 L 304.613281 207.234375 L 304.449219 190.742188 L 316.445312 190.621094 Z M 316.609375 207.113281 " clip-rule="nonzero"/></clipPath><clipPath id="07c731bee7"><path d="M 308 190 L 314 190 L 314 199 L 308 199 Z M 308 190 " clip-rule="nonzero"/></clipPath><clipPath id="8adc9bf1af"><path d="M 316.609375 207.113281 L 304.613281 207.234375 L 304.449219 190.742188 L 316.445312 190.621094 Z M 316.609375 207.113281 " clip-rule="nonzero"/></clipPath><clipPath id="406993e764"><path d="M 316.609375 207.113281 L 304.613281 207.234375 L 304.449219 190.742188 L 316.445312 190.621094 Z M 316.609375 207.113281 " clip-rule="nonzero"/></clipPath><clipPath id="347ea1b1bf"><path d="M 316.609375 207.113281 L 304.613281 207.234375 L 304.449219 190.742188 L 316.445312 190.621094 Z M 316.609375 207.113281 " clip-rule="nonzero"/></clipPath><clipPath id="4aaf14ada2"><path d="M 308 191 L 311 191 L 311 198 L 308 198 Z M 308 191 " clip-rule="nonzero"/></clipPath><clipPath id="a6e8243404"><path d="M 316.609375 207.113281 L 304.613281 207.234375 L 304.449219 190.742188 L 316.445312 190.621094 Z M 316.609375 207.113281 " clip-rule="nonzero"/></clipPath><clipPath id="14730e48b0"><path d="M 316.609375 207.113281 L 304.613281 207.234375 L 304.449219 190.742188 L 316.445312 190.621094 Z M 316.609375 207.113281 " clip-rule="nonzero"/></clipPath><clipPath id="5f1eb3ef46"><path d="M 316.609375 207.113281 L 304.613281 207.234375 L 304.449219 190.742188 L 316.445312 190.621094 Z M 316.609375 207.113281 " clip-rule="nonzero"/></clipPath><clipPath id="e04606a5f6"><path d="M 312 191 L 314 191 L 314 194 L 312 194 Z M 312 191 " clip-rule="nonzero"/></clipPath><clipPath id="e52666c46e"><path d="M 316.609375 207.113281 L 304.613281 207.234375 L 304.449219 190.742188 L 316.445312 190.621094 Z M 316.609375 207.113281 " clip-rule="nonzero"/></clipPath><clipPath id="cea5115618"><path d="M 316.609375 207.113281 L 304.613281 207.234375 L 304.449219 190.742188 L 316.445312 190.621094 Z M 316.609375 207.113281 " clip-rule="nonzero"/></clipPath><clipPath id="f4bf80b624"><path d="M 316.609375 207.113281 L 304.613281 207.234375 L 304.449219 190.742188 L 316.445312 190.621094 Z M 316.609375 207.113281 " clip-rule="nonzero"/></clipPath></defs><g clip-path="url(#31cc13034f)"><g clip-path="url(#535038a7b4)"><g clip-path="url(#ae09fc2f03)"><g transform="matrix(1, 0, 0, 1, 16, 16)"><g clip-path="url(#1c04528328)"><g clip-path="url(#a3fa175286)"><g clip-path="url(#e83310ab8b)"><g clip-path="url(#bf9ff8fcc7)"><path fill="#d9d9d9" d="M -16 17.859375 L 432.617188 -15.941406 L 466.414062 432.675781 L 17.800781 466.476562 Z M -16 17.859375 " fill-opacity="1" fill-rule="nonzero"/></g></g></g></g></g></g></g></g><g clip-path="url(#b8d0a13ad9)"><g clip-path="url(#1292507836)"><g clip-path="url(#6f5ddc0d53)"><g clip-path="url(#f4b5615462)"><path fill="#000000" d="M 170.757812 43.433594 C 157.542969 48.128906 144.917969 54.105469 132.890625 61.363281 L 117.398438 35.683594 C 131.15625 27.382812 145.59375 20.546875 160.714844 15.171875 Z M 121.15625 68.988281 C 109.652344 77.023438 99.042969 86.128906 89.335938 96.304688 L 67.632812 75.605469 C 78.722656 63.980469 90.839844 53.578125 103.984375 44.398438 Z M 80.011719 106.753906 C 71 117.550781 63.152344 129.121094 56.46875 141.464844 L 30.09375 127.179688 C 37.730469 113.082031 46.695312 99.867188 56.988281 87.535156 Z M 50.214844 153.992188 C 44.359375 166.773438 39.84375 180 36.667969 193.664062 L 7.453125 186.875 C 11.085938 171.242188 16.25 156.117188 22.945312 141.5 Z M 33.964844 207.363281 C 31.714844 221.183594 30.863281 235.140625 31.410156 249.238281 L 1.4375 250.398438 C 0.816406 234.296875 1.789062 218.347656 4.359375 202.546875 Z M 32.410156 263.242188 C 33.878906 277.273438 36.710938 290.96875 40.902344 304.324219 L 12.285156 313.304688 C 7.492188 298.035156 4.257812 282.390625 2.582031 266.363281 Z M 45.527344 317.507812 C 50.617188 330.578125 56.964844 343.023438 64.578125 354.839844 L 39.367188 371.085938 C 30.660156 357.570312 23.398438 343.339844 17.578125 328.386719 Z M 72.554688 366.355469 C 80.929688 377.621094 90.34375 387.953125 100.800781 397.359375 L 80.746094 419.660156 C 68.800781 408.917969 58.046875 397.113281 48.484375 384.246094 Z M 111.515625 406.371094 C 122.574219 415.0625 134.367188 422.566406 146.902344 428.878906 L 133.402344 455.664062 C 119.085938 448.449219 105.613281 439.878906 92.984375 429.949219 Z M 159.601562 434.757812 C 172.542969 440.230469 185.890625 444.351562 199.640625 447.117188 L 193.722656 476.519531 C 177.992188 473.355469 162.726562 468.640625 147.925781 462.382812 Z M 213.464844 449.421875 C 227.328125 451.253906 241.304688 451.691406 255.386719 450.738281 L 257.417969 480.660156 C 241.339844 481.75 225.378906 481.25 209.53125 479.15625 Z M 269.339844 449.328125 C 283.316406 447.453125 296.921875 444.21875 310.160156 439.628906 L 319.988281 467.964844 C 304.851562 473.214844 289.296875 476.914062 273.332031 479.054688 Z M 323.207031 434.605469 C 336.117188 429.132812 348.367188 422.414062 359.953125 414.453125 L 376.9375 439.171875 C 363.6875 448.277344 349.679688 455.960938 334.914062 462.21875 Z M 371.214844 406.148438 C 382.230469 397.445312 392.285156 387.726562 401.378906 377 L 424.261719 396.390625 C 413.875 408.644531 402.390625 419.742188 389.808594 429.683594 Z M 410.074219 366.023438 C 418.441406 354.710938 425.59375 342.699219 431.53125 329.988281 L 458.703125 342.6875 C 451.917969 357.210938 443.746094 370.933594 434.191406 383.855469 Z M 437.027344 317.128906 C 442.109375 304.035156 445.832031 290.574219 448.191406 276.742188 L 477.757812 281.785156 C 475.058594 297.609375 470.800781 313.007812 464.988281 327.984375 Z M 450.078125 262.875 C 451.34375 250.488281 451.507812 238.027344 450.5625 225.496094 C 450.445312 223.953125 450.3125 222.414062 450.164062 220.875 L 480.015625 217.976562 C 480.1875 219.726562 480.335938 221.484375 480.46875 223.242188 C 481.546875 237.542969 481.363281 251.769531 479.917969 265.925781 Z M 448.351562 206.992188 C 446.070312 193.097656 442.4375 179.601562 437.453125 166.503906 L 465.488281 155.835938 C 471.1875 170.816406 475.339844 186.25 477.949219 202.132812 Z M 432.039062 153.589844 C 426.183594 140.851562 419.105469 128.808594 410.800781 117.460938 L 435.007812 99.75 C 444.5 112.722656 452.59375 126.496094 459.289062 141.066406 Z M 402.167969 106.445312 C 393.140625 95.6875 383.132812 85.921875 372.144531 77.152344 L 390.855469 53.710938 C 403.402344 63.726562 414.832031 74.878906 425.140625 87.164062 Z M 360.917969 68.78125 C 349.363281 60.753906 337.148438 53.960938 324.269531 48.398438 L 336.160156 20.863281 C 350.878906 27.21875 364.835938 34.980469 378.03125 44.152344 Z M 311.246094 43.285156 C 298.007812 38.59375 284.4375 35.277344 270.535156 33.332031 L 274.695312 3.628906 C 290.597656 5.855469 306.121094 9.652344 321.261719 15.015625 Z M 256.648438 31.859375 C 246.285156 31.109375 235.878906 31.125 225.433594 31.914062 C 211.355469 32.972656 197.582031 35.398438 184.117188 39.1875 L 175.996094 10.3125 C 191.382812 5.984375 207.109375 3.214844 223.183594 2.003906 C 235.101562 1.109375 246.976562 1.085938 258.8125 1.945312 Z M 256.648438 31.859375 " fill-opacity="1" fill-rule="nonzero"/></g></g></g></g><g clip-path="url(#5d3ff4907c)"><g clip-path="url(#5aad378f4c)"><g clip-path="url(#54f5da55fe)"><g transform="matrix(1, 0, 0, 1, 224, 226)"><g clip-path="url(#88447b5205)"><g clip-path="url(#00f18e3368)"><g clip-path="url(#9ad29d97ed)"><g clip-path="url(#f745df65cf)"><path fill="#000000" d="M 0.582031 0.457031 L 34.503906 0.117188 L 34.851562 34.4375 L 0.925781 34.78125 Z M 0.582031 0.457031 " fill-opacity="1" fill-rule="nonzero"/></g></g></g></g></g></g></g></g><g clip-path="url(#b734644620)"><g clip-path="url(#c53420e12b)"><g clip-path="url(#f342a123cf)"><g transform="matrix(1, 0, 0, 1, 236, 216)"><g clip-path="url(#eeeae9af07)"><g clip-path="url(#aa80178a2f)"><g clip-path="url(#269a682121)"><g clip-path="url(#cf10a32447)"><path fill="#000000" d="M 0.316406 2.15625 L 217.574219 -0.0351562 L 218.054688 47.789062 L 0.800781 49.976562 Z M 0.316406 2.15625 " fill-opacity="1" fill-rule="nonzero"/></g></g></g></g></g></g></g></g><g clip-path="url(#55ab693acb)"><g clip-path="url(#1182ed91ac)"><g transform="matrix(1, 0, 0, 1, 272, 244)"><g clip-path="url(#b57825f067)"><g clip-path="url(#ed56325bb5)"><g clip-path="url(#daec696195)"><path fill="#ffffff" d="M 0.34375 0.882812 L 10.335938 0.78125 L 10.511719 18.34375 L 0.519531 18.445312 Z M 0.34375 0.882812 " fill-opacity="1" fill-rule="nonzero"/></g></g></g></g></g></g><g clip-path="url(#0286cecec0)"><g clip-path="url(#b279c65537)"><g clip-path="url(#24d7400197)"><path stroke-linecap="butt" transform="matrix(0.749775, -0.00755949, 0.00755949, 0.749775, 272.343805, 244.890576)" fill="none" stroke-linejoin="miter" d="M -0.0000735418 0.0000643507 L 13.311215 -0.00118387 L 13.314915 23.401692 L -0.00158367 23.402888 Z M -0.0000735418 0.0000643507 " stroke="#000000" stroke-width="6" stroke-opacity="1" stroke-miterlimit="4"/></g></g></g><g clip-path="url(#3791d88a2e)"><g clip-path="url(#e3e8cf68e3)"><g clip-path="url(#20fbd15f32)"><g transform="matrix(1, 0, 0, 1, 267, 262)"><g clip-path="url(#d1aecf93e8)"><g clip-path="url(#96a737609c)"><g clip-path="url(#0853be4ff0)"><g clip-path="url(#9d1b328f34)"><path fill="#000000" d="M 0.140625 0.5 L 20.886719 0.292969 L 21.015625 13.183594 L 0.269531 13.390625 Z M 0.140625 0.5 " fill-opacity="1" fill-rule="nonzero"/></g></g></g></g></g></g></g></g><g clip-path="url(#e8ab89af4f)"><g clip-path="url(#df38b14689)"><g transform="matrix(1, 0, 0, 1, 343, 244)"><g clip-path="url(#dbaab266f0)"><g clip-path="url(#9c7576fbbb)"><g clip-path="url(#10b95fecf3)"><path fill="#ffffff" d="M 0.140625 0.167969 L 10.132812 0.0664062 L 10.308594 17.632812 L 0.316406 17.734375 Z M 0.140625 0.167969 " fill-opacity="1" fill-rule="nonzero"/></g></g></g></g></g></g><g clip-path="url(#e72bde45dd)"><g clip-path="url(#51c789f4a3)"><g clip-path="url(#2249c1db66)"><path stroke-linecap="butt" transform="matrix(0.749775, -0.00755949, 0.00755949, 0.749775, 343.141204, 244.176761)" fill="none" stroke-linejoin="miter" d="M -0.000758336 -0.00131418 L 13.310531 -0.00256241 L 13.31423 23.400314 L -0.00226847 23.40151 Z M -0.000758336 -0.00131418 " stroke="#000000" stroke-width="6" stroke-opacity="1" stroke-miterlimit="4"/></g></g></g><g clip-path="url(#8ea1b8948d)"><g clip-path="url(#ff82decd6c)"><g clip-path="url(#69d91133b1)"><g transform="matrix(1, 0, 0, 1, 338, 261)"><g clip-path="url(#4e71c2fc5d)"><g clip-path="url(#5e17319664)"><g clip-path="url(#94833c0fbc)"><g clip-path="url(#5653ffa490)"><path fill="#000000" d="M -0.0625 0.789062 L 20.683594 0.578125 L 20.8125 13.46875 L 0.0664062 13.679688 Z M -0.0625 0.789062 " fill-opacity="1" fill-rule="nonzero"/></g></g></g></g></g></g></g></g><g clip-path="url(#0336a2e9a5)"><g clip-path="url(#946a7b7a31)"><g transform="matrix(1, 0, 0, 1, 405, 243)"><g clip-path="url(#d8f1aae99b)"><g clip-path="url(#312d6952ff)"><g clip-path="url(#43bdc8af5a)"><path fill="#ffffff" d="M 0.75 0.539062 L 10.742188 0.4375 L 10.917969 18 L 0.925781 18.101562 Z M 0.75 0.539062 " fill-opacity="1" fill-rule="nonzero"/></g></g></g></g></g></g><g clip-path="url(#6976c042e4)"><g clip-path="url(#4eac49267b)"><g clip-path="url(#a9ef37a9d6)"><path stroke-linecap="butt" transform="matrix(0.749775, -0.00755949, 0.00755949, 0.749775, 405.750285, 243.545526)" fill="none" stroke-linejoin="miter" d="M -0.000398615 0.00179546 L 13.31089 0.000547238 L 13.31459 23.403424 L -0.00185622 23.39941 Z M -0.000398615 0.00179546 " stroke="#000000" stroke-width="6" stroke-opacity="1" stroke-miterlimit="4"/></g></g></g><g clip-path="url(#d811bca52b)"><g clip-path="url(#6b9891fb2c)"><g clip-path="url(#5db91d2bd4)"><g transform="matrix(1, 0, 0, 1, 400, 261)"><g clip-path="url(#de428c7b58)"><g clip-path="url(#9d0ff5ac3b)"><g clip-path="url(#42e915ee72)"><g clip-path="url(#f2462ea0e5)"><path fill="#000000" d="M 0.546875 0.15625 L 21.292969 -0.0546875 L 21.421875 12.839844 L 0.675781 13.046875 Z M 0.546875 0.15625 " fill-opacity="1" fill-rule="nonzero"/></g></g></g></g></g></g></g></g><g clip-path="url(#8dcf463053)"><g clip-path="url(#24ca042065)"><g clip-path="url(#3564c4c902)"><g clip-path="url(#49cc159a18)"><path fill="#7ac2e2" d="M 344.410156 276.265625 C 344.210938 276.726562 343.785156 277.59375 343.542969 278.035156 C 343.050781 278.933594 342.6875 280.121094 343.476562 280.976562 C 344.054688 281.59375 345.160156 281.71875 345.917969 281.304688 C 346.816406 280.816406 346.9375 279.773438 346.644531 278.90625 C 346.414062 278.226562 345.980469 277.628906 345.648438 276.992188 C 345.5 276.710938 345.421875 276.519531 345.277344 276.238281 C 345.164062 276.015625 344.964844 275.597656 344.78125 275.359375 C 344.71875 275.480469 344.542969 275.957031 344.410156 276.265625 Z M 344.410156 276.265625 " fill-opacity="1" fill-rule="nonzero"/></g></g></g></g><g clip-path="url(#f54b0fae06)"><g clip-path="url(#55e681ab56)"><g clip-path="url(#5bcbd67370)"><g clip-path="url(#cb965edeee)"><path stroke-linecap="round" transform="matrix(0.0749576, -0.000755748, 0.000723396, 0.0717488, 332.704561, 268.364048)" fill="none" stroke-linejoin="round" d="M 174.52016 182.198496 C 186.571087 175.465565 188.326167 161.002112 184.534734 148.875745 C 181.551804 139.371177 175.84825 130.981262 171.504745 122.06124 " stroke="#335894" stroke-width="1.5" stroke-opacity="1" stroke-miterlimit="10"/></g></g></g></g><g clip-path="url(#97dc4fbd90)"><g clip-path="url(#da75f19807)"><g clip-path="url(#0f17841b3d)"><g clip-path="url(#5f419fa99f)"><path stroke-linecap="round" transform="matrix(0.0749576, -0.000755748, 0.000723396, 0.0717488, 332.704561, 268.364048)" fill="none" stroke-linejoin="round" d="M 153.359155 177.130141 C 149.36684 175.019241 146.117164 171.555078 144.333328 167.398591 C 142.497385 163.241556 142.126232 158.501072 143.314626 154.158119 " stroke="#335894" stroke-width="1.5" stroke-opacity="1" stroke-miterlimit="10"/></g></g></g></g><g clip-path="url(#236cb7ecd3)"><g clip-path="url(#30ab39ef33)"><g clip-path="url(#57ff60bc0c)"><g clip-path="url(#2fbdbe0a77)"><path fill="#7ac2e2" d="M 351.855469 278.226562 C 351.632812 278.742188 351.15625 279.714844 350.882812 280.207031 C 350.332031 281.21875 349.921875 282.550781 350.808594 283.507812 C 351.453125 284.199219 352.695312 284.339844 353.546875 283.875 C 354.554688 283.328125 354.691406 282.160156 354.359375 281.1875 C 354.101562 280.425781 353.617188 279.753906 353.242188 279.039062 C 353.078125 278.722656 352.992188 278.507812 352.828125 278.191406 C 352.703125 277.941406 352.476562 277.476562 352.269531 277.210938 C 352.203125 277.339844 352.003906 277.878906 351.855469 278.226562 Z M 351.855469 278.226562 " fill-opacity="1" fill-rule="nonzero"/></g></g></g></g><g clip-path="url(#4df8eac6e6)"><g clip-path="url(#b131439826)"><g clip-path="url(#7a5bd91ad1)"><g clip-path="url(#60ccb02893)"><path stroke-linecap="round" transform="matrix(0.0749576, -0.000755748, 0.000723396, 0.0717488, 332.704561, 268.364048)" fill="none" stroke-linejoin="round" d="M 252.179337 213.45035 C 247.72068 211.06232 244.058347 207.158264 242.07081 202.509641 C 240.031165 197.860469 239.613158 192.575058 240.911547 187.634387 " stroke="#335894" stroke-width="1.5" stroke-opacity="1" stroke-miterlimit="10"/></g></g></g></g><g clip-path="url(#614bf7e923)"><g clip-path="url(#a605d96f64)"><g clip-path="url(#9186330254)"><g clip-path="url(#9e599f17aa)"><path fill="#7ac2e2" d="M 347.285156 284.765625 C 347.027344 285.363281 346.476562 286.484375 346.164062 287.054688 C 345.523438 288.21875 345.050781 289.757812 346.078125 290.863281 C 346.824219 291.664062 348.253906 291.824219 349.238281 291.289062 C 350.398438 290.65625 350.558594 289.308594 350.175781 288.183594 C 349.878906 287.304688 349.320312 286.53125 348.886719 285.707031 C 348.695312 285.339844 348.597656 285.09375 348.410156 284.726562 C 348.261719 284.4375 348 283.902344 347.765625 283.59375 C 347.683594 283.746094 347.457031 284.367188 347.285156 284.765625 Z M 347.285156 284.765625 " fill-opacity="1" fill-rule="nonzero"/></g></g></g></g><g clip-path="url(#bd941416b5)"><g clip-path="url(#183abbf3b8)"><g clip-path="url(#813f49fe96)"><g clip-path="url(#f297741c5d)"><path stroke-linecap="round" transform="matrix(0.0749576, -0.000755748, 0.000723396, 0.0717488, 332.704561, 268.364048)" fill="none" stroke-linejoin="round" d="M 217.46872 321.808169 C 233.029764 313.152249 235.347424 294.393695 230.392192 278.661806 C 226.550228 266.371576 219.202874 255.514395 213.529791 243.967086 C 211.025907 238.823034 209.756317 235.379728 207.30454 230.236225 " stroke="#335894" stroke-width="1.5" stroke-opacity="1" stroke-miterlimit="10"/></g></g></g></g><g clip-path="url(#7fe9dee012)"><g clip-path="url(#9c640f1bb1)"><g clip-path="url(#0e843219c2)"><g clip-path="url(#816614ab82)"><path stroke-linecap="round" transform="matrix(0.0749576, -0.000755748, 0.000723396, 0.0717488, 332.704561, 268.364048)" fill="none" stroke-linejoin="round" d="M 190.016365 315.258018 C 184.883463 312.536226 180.654251 307.972878 178.308791 302.612721 C 175.962805 297.307002 175.501096 291.150037 177.014745 285.503868 " stroke="#335894" stroke-width="1.5" stroke-opacity="1" stroke-miterlimit="10"/></g></g></g></g><g clip-path="url(#bc55e20523)"><g clip-path="url(#d51dc54a7d)"><g clip-path="url(#0f07e8ce29)"><g clip-path="url(#79e9e5d824)"><path fill="#7ac2e2" d="M 273.613281 276.980469 C 273.414062 277.441406 272.988281 278.308594 272.746094 278.75 C 272.253906 279.648438 271.890625 280.835938 272.679688 281.6875 C 273.253906 282.308594 274.363281 282.433594 275.121094 282.019531 C 276.019531 281.527344 276.140625 280.488281 275.847656 279.621094 C 275.613281 278.941406 275.183594 278.34375 274.847656 277.707031 C 274.703125 277.425781 274.625 277.234375 274.480469 276.949219 C 274.367188 276.726562 274.167969 276.3125 273.984375 276.074219 C 273.921875 276.191406 273.746094 276.671875 273.613281 276.980469 Z M 273.613281 276.980469 " fill-opacity="1" fill-rule="nonzero"/></g></g></g></g><g clip-path="url(#bd2f1c5de6)"><g clip-path="url(#9388acc523)"><g clip-path="url(#97b9e26115)"><g clip-path="url(#022e34763c)"><path stroke-linecap="round" transform="matrix(0.0749576, -0.000755748, 0.000723396, 0.0717488, 261.907163, 269.077835)" fill="none" stroke-linejoin="round" d="M 174.527006 182.213303 C 186.577932 175.480372 188.333013 161.016919 184.54158 148.890552 C 181.506542 139.385435 175.855095 130.996069 171.459483 122.075498 " stroke="#335894" stroke-width="1.5" stroke-opacity="1" stroke-miterlimit="10"/></g></g></g></g><g clip-path="url(#1873979e9f)"><g clip-path="url(#7263994e75)"><g clip-path="url(#9f5744de24)"><g clip-path="url(#5859b768dd)"><path stroke-linecap="round" transform="matrix(0.0749576, -0.000755748, 0.000723396, 0.0717488, 261.907163, 269.077835)" fill="none" stroke-linejoin="round" d="M 153.366001 177.144948 C 149.373685 175.034048 146.124535 171.515447 144.288066 167.412849 C 142.504231 163.256363 142.133078 158.515879 143.269365 154.172377 " stroke="#335894" stroke-width="1.5" stroke-opacity="1" stroke-miterlimit="10"/></g></g></g></g><g clip-path="url(#168d90c075)"><g clip-path="url(#00c3ee1459)"><g clip-path="url(#c5f7befc6b)"><g clip-path="url(#870e130336)"><path fill="#7ac2e2" d="M 281.058594 278.9375 C 280.835938 279.457031 280.359375 280.425781 280.085938 280.921875 C 279.53125 281.929688 279.125 283.265625 280.011719 284.222656 C 280.65625 284.914062 281.898438 285.054688 282.75 284.589844 C 283.757812 284.042969 283.894531 282.871094 283.5625 281.898438 C 283.304688 281.136719 282.820312 280.46875 282.445312 279.753906 C 282.277344 279.4375 282.195312 279.222656 282.03125 278.90625 C 281.902344 278.65625 281.679688 278.191406 281.472656 277.925781 C 281.402344 278.054688 281.207031 278.59375 281.058594 278.9375 Z M 281.058594 278.9375 " fill-opacity="1" fill-rule="nonzero"/></g></g></g></g><g clip-path="url(#3a7857494b)"><g clip-path="url(#99a7d6f7b7)"><g clip-path="url(#0053952259)"><g clip-path="url(#7bbb54b18d)"><path stroke-linecap="round" transform="matrix(0.0749576, -0.000755748, 0.000723396, 0.0717488, 261.907163, 269.077835)" fill="none" stroke-linejoin="round" d="M 252.186183 213.465156 C 247.727526 211.077127 244.065193 207.173071 242.025548 202.523899 C 240.038011 197.875276 239.620529 192.535427 240.918392 187.649194 " stroke="#335894" stroke-width="1.5" stroke-opacity="1" stroke-miterlimit="10"/></g></g></g></g><g clip-path="url(#e91e0d29a1)"><g clip-path="url(#68a753416a)"><g clip-path="url(#0401e93bf2)"><g clip-path="url(#5793f5a603)"><path fill="#7ac2e2" d="M 276.488281 285.480469 C 276.230469 286.074219 275.679688 287.199219 275.367188 287.769531 C 274.726562 288.933594 274.253906 290.472656 275.28125 291.578125 C 276.023438 292.378906 277.457031 292.539062 278.441406 292.003906 C 279.601562 291.371094 279.761719 290.019531 279.378906 288.898438 C 279.082031 288.019531 278.523438 287.246094 278.089844 286.417969 C 277.898438 286.054688 277.800781 285.808594 277.613281 285.441406 C 277.464844 285.152344 277.203125 284.613281 276.96875 284.308594 C 276.886719 284.457031 276.660156 285.078125 276.488281 285.480469 Z M 276.488281 285.480469 " fill-opacity="1" fill-rule="nonzero"/></g></g></g></g><g clip-path="url(#5436f6c1d5)"><g clip-path="url(#e3d9fb1ff9)"><g clip-path="url(#8af031f83a)"><g clip-path="url(#7a678ab71f)"><path stroke-linecap="round" transform="matrix(0.0749576, -0.000755748, 0.000723396, 0.0717488, 261.907163, 269.077835)" fill="none" stroke-linejoin="round" d="M 217.475566 321.822976 C 233.03661 313.167056 235.354795 294.354064 230.399038 278.676613 C 226.557073 266.386383 219.20972 255.529202 213.537162 243.927455 C 211.032753 238.837841 209.763163 235.394535 207.311386 230.251032 " stroke="#335894" stroke-width="1.5" stroke-opacity="1" stroke-miterlimit="10"/></g></g></g></g><g clip-path="url(#43ca7074b1)"><g clip-path="url(#3f10035d22)"><g clip-path="url(#00b6d7ceec)"><g clip-path="url(#485721b4d3)"><path stroke-linecap="round" transform="matrix(0.0749576, -0.000755748, 0.000723396, 0.0717488, 261.907163, 269.077835)" fill="none" stroke-linejoin="round" d="M 190.02321 315.272824 C 184.838201 312.550484 180.661097 307.987685 178.315637 302.627528 C 175.970176 297.267371 175.508467 291.110406 176.970009 285.463689 " stroke="#335894" stroke-width="1.5" stroke-opacity="1" stroke-miterlimit="10"/></g></g></g></g><g clip-path="url(#e268685c30)"><g clip-path="url(#0601044587)"><g clip-path="url(#d5b78394f3)"><g clip-path="url(#dfa845d24b)"><path fill="#7ac2e2" d="M 407.019531 275.636719 C 406.820312 276.09375 406.394531 276.960938 406.152344 277.402344 C 405.660156 278.304688 405.296875 279.492188 406.085938 280.34375 C 406.660156 280.960938 407.769531 281.089844 408.527344 280.671875 C 409.425781 280.183594 409.546875 279.144531 409.253906 278.273438 C 409.023438 277.597656 408.589844 277 408.253906 276.359375 C 408.109375 276.078125 408.03125 275.886719 407.886719 275.605469 C 407.773438 275.382812 407.574219 274.96875 407.390625 274.730469 C 407.328125 274.847656 407.152344 275.328125 407.019531 275.636719 Z M 407.019531 275.636719 " fill-opacity="1" fill-rule="nonzero"/></g></g></g></g><g clip-path="url(#c2b54d5e6e)"><g clip-path="url(#0bf3b327d1)"><g clip-path="url(#e019ab9ae1)"><g clip-path="url(#89f8efcd69)"><path stroke-linecap="round" transform="matrix(0.0749576, -0.000755748, 0.000723396, 0.0717488, 395.313614, 267.732768)" fill="none" stroke-linejoin="round" d="M 174.524661 182.177193 C 186.575063 175.4987 188.330669 160.98081 184.539236 148.854443 C 181.55578 139.404312 175.852226 131.014398 171.457139 122.039388 " stroke="#335894" stroke-width="1.5" stroke-opacity="1" stroke-miterlimit="10"/></g></g></g></g><g clip-path="url(#f65b5fb135)"><g clip-path="url(#23097448ef)"><g clip-path="url(#c63c23a4fe)"><g clip-path="url(#caf74d3113)"><path stroke-linecap="round" transform="matrix(0.0749576, -0.000755748, 0.000723396, 0.0717488, 395.313614, 267.732768)" fill="none" stroke-linejoin="round" d="M 153.363131 177.163276 C 149.370816 175.052376 146.121665 171.533775 144.285722 167.37674 C 142.501361 163.274691 142.130208 158.534207 143.26702 154.136268 " stroke="#335894" stroke-width="1.5" stroke-opacity="1" stroke-miterlimit="10"/></g></g></g></g><g clip-path="url(#633bff6206)"><g clip-path="url(#181f819002)"><g clip-path="url(#bf07b80758)"><g clip-path="url(#556ac613ba)"><path fill="#7ac2e2" d="M 414.464844 277.59375 C 414.242188 278.109375 413.765625 279.082031 413.492188 279.578125 C 412.9375 280.585938 412.53125 281.917969 413.417969 282.875 C 414.0625 283.570312 415.304688 283.710938 416.15625 283.246094 C 417.164062 282.695312 417.300781 281.527344 416.96875 280.554688 C 416.710938 279.792969 416.226562 279.121094 415.851562 278.40625 C 415.6875 278.09375 415.601562 277.878906 415.4375 277.5625 C 415.308594 277.3125 415.085938 276.84375 414.878906 276.578125 C 414.808594 276.710938 414.613281 277.25 414.464844 277.59375 Z M 414.464844 277.59375 " fill-opacity="1" fill-rule="nonzero"/></g></g></g></g><g clip-path="url(#99bfbe62d1)"><g clip-path="url(#714008e75b)"><g clip-path="url(#79e079ef8c)"><g clip-path="url(#763996e0f9)"><path stroke-linecap="round" transform="matrix(0.0749576, -0.000755748, 0.000723396, 0.0717488, 395.313614, 267.732768)" fill="none" stroke-linejoin="round" d="M 252.183313 213.483485 C 247.724657 211.095455 244.062849 207.136961 242.074786 202.542776 C 240.035141 197.893605 239.617659 192.553756 240.915523 187.667522 " stroke="#335894" stroke-width="1.5" stroke-opacity="1" stroke-miterlimit="10"/></g></g></g></g><g clip-path="url(#82b29fe937)"><g clip-path="url(#51afe1331e)"><g clip-path="url(#85842346ea)"><g clip-path="url(#db89d0b5aa)"><path fill="#7ac2e2" d="M 409.894531 284.132812 C 409.636719 284.730469 409.085938 285.851562 408.773438 286.421875 C 408.132812 287.589844 407.660156 289.125 408.6875 290.230469 C 409.429688 291.03125 410.863281 291.195312 411.847656 290.65625 C 413.007812 290.023438 413.167969 288.675781 412.785156 287.550781 C 412.488281 286.671875 411.929688 285.898438 411.496094 285.074219 C 411.304688 284.710938 411.207031 284.460938 411.019531 284.097656 C 410.871094 283.808594 410.609375 283.269531 410.375 282.960938 C 410.292969 283.113281 410.066406 283.734375 409.894531 284.132812 Z M 409.894531 284.132812 " fill-opacity="1" fill-rule="nonzero"/></g></g></g></g><g clip-path="url(#345e648422)"><g clip-path="url(#a6e6951482)"><g clip-path="url(#7fa75b36a6)"><g clip-path="url(#f60c13f197)"><path stroke-linecap="round" transform="matrix(0.0749576, -0.000755748, 0.000723396, 0.0717488, 395.313614, 267.732768)" fill="none" stroke-linejoin="round" d="M 217.473222 321.786866 C 233.034266 313.130946 235.351926 294.372392 230.396694 278.640503 C 226.554729 266.350274 219.207375 255.493093 213.534292 243.945783 C 211.029883 238.856169 209.760818 235.358425 207.308516 230.26936 " stroke="#335894" stroke-width="1.5" stroke-opacity="1" stroke-miterlimit="10"/></g></g></g></g><g clip-path="url(#b796e3699b)"><g clip-path="url(#46f80df851)"><g clip-path="url(#7e87673fe9)"><g clip-path="url(#212a81c7be)"><path stroke-linecap="round" transform="matrix(0.0749576, -0.000755748, 0.000723396, 0.0717488, 395.313614, 267.732768)" fill="none" stroke-linejoin="round" d="M 190.020341 315.291153 C 184.835856 312.514374 180.658227 308.006013 178.312767 302.645856 C 175.967306 297.285699 175.505598 291.128734 176.967139 285.482017 " stroke="#335894" stroke-width="1.5" stroke-opacity="1" stroke-miterlimit="10"/></g></g></g></g><g clip-path="url(#3d4a7c7d97)"><g clip-path="url(#5c3ab1e933)"><g transform="matrix(1, 0, 0, 1, 373, 220)"><g clip-path="url(#b2dc9a8bab)"><g clip-path="url(#57c6fbe5de)"><g clip-path="url(#0cc563bda0)"><path fill="#ffffff" d="M 11.09375 17.648438 L 1.101562 17.75 L 0.925781 0.1875 L 10.917969 0.0859375 Z M 11.09375 17.648438 " fill-opacity="1" fill-rule="nonzero"/></g></g></g></g></g></g><g clip-path="url(#a69a0b0186)"><g clip-path="url(#ca4e1e7777)"><g clip-path="url(#c11395a4d3)"><path stroke-linecap="butt" transform="matrix(-0.749775, 0.00755949, -0.00755949, -0.749775, 384.094294, 237.642602)" fill="none" stroke-linejoin="miter" d="M 0.000751489 -0.00256535 L 13.311988 0.0013958 L 13.31053 23.39901 L -0.000758665 23.400259 Z M 0.000751489 -0.00256535 " stroke="#000000" stroke-width="6" stroke-opacity="1" stroke-miterlimit="4"/></g></g></g><g clip-path="url(#dc151a8671)"><g clip-path="url(#3fe98f25a0)"><g clip-path="url(#81998bb50d)"><g transform="matrix(1, 0, 0, 1, 368, 207)"><g clip-path="url(#a49e218e31)"><g clip-path="url(#f4342049ab)"><g clip-path="url(#e2289acc22)"><g clip-path="url(#860d9f7e51)"><path fill="#000000" d="M 21.304688 13.03125 L 0.554688 13.238281 L 0.425781 0.347656 L 21.171875 0.140625 Z M 21.304688 13.03125 " fill-opacity="1" fill-rule="nonzero"/></g></g></g></g></g></g></g></g><g clip-path="url(#35ffd6ffa1)"><g clip-path="url(#efde21f6d5)"><g clip-path="url(#a79ed70e3c)"><g clip-path="url(#d27623f52d)"><path fill="#7ac2e2" d="M 382.824219 205.546875 C 383.023438 205.085938 383.449219 204.21875 383.691406 203.777344 C 384.183594 202.878906 384.546875 201.6875 383.757812 200.835938 C 383.183594 200.21875 382.074219 200.09375 381.316406 200.507812 C 380.417969 200.996094 380.296875 202.039062 380.589844 202.90625 C 380.824219 203.582031 381.253906 204.179688 381.589844 204.820312 C 381.734375 205.101562 381.8125 205.292969 381.957031 205.574219 C 382.070312 205.796875 382.269531 206.214844 382.453125 206.449219 C 382.515625 206.332031 382.691406 205.855469 382.824219 205.546875 Z M 382.824219 205.546875 " fill-opacity="1" fill-rule="nonzero"/></g></g></g></g><g clip-path="url(#6140dd2b99)"><g clip-path="url(#642f740ee4)"><g clip-path="url(#2e57bca92c)"><g clip-path="url(#e9f6fdb794)"><path stroke-linecap="round" transform="matrix(-0.0749576, 0.000755748, -0.000723397, -0.0717488, 394.530353, 213.44773)" fill="none" stroke-linejoin="round" d="M 174.527453 182.188517 C 186.577855 175.510024 188.333461 160.992133 184.542028 148.865766 C 181.50699 139.360649 175.855543 130.971283 171.459931 122.050712 " stroke="#335894" stroke-width="1.5" stroke-opacity="1" stroke-miterlimit="10"/></g></g></g></g><g clip-path="url(#2ac2f98e06)"><g clip-path="url(#a38f5ddb0e)"><g clip-path="url(#6401b0ab16)"><g clip-path="url(#b39153e2cb)"><path stroke-linecap="round" transform="matrix(-0.0749576, 0.000755748, -0.000723397, -0.0717488, 394.530353, 213.44773)" fill="none" stroke-linejoin="round" d="M 153.313816 177.174051 C 149.374133 175.009262 146.124457 171.545099 144.288514 167.388063 C 142.504153 163.286015 142.133525 158.491093 143.269812 154.147591 " stroke="#335894" stroke-width="1.5" stroke-opacity="1" stroke-miterlimit="10"/></g></g></g></g><g clip-path="url(#eb6b3663c6)"><g clip-path="url(#dceffcb0a2)"><g clip-path="url(#b4f702ea89)"><g clip-path="url(#d28b84d404)"><path fill="#7ac2e2" d="M 375.378906 203.585938 C 375.601562 203.070312 376.078125 202.097656 376.351562 201.605469 C 376.90625 200.59375 377.3125 199.261719 376.425781 198.304688 C 375.78125 197.609375 374.539062 197.46875 373.6875 197.933594 C 372.679688 198.484375 372.542969 199.652344 372.875 200.625 C 373.132812 201.386719 373.617188 202.058594 373.992188 202.773438 C 374.160156 203.089844 374.242188 203.304688 374.40625 203.621094 C 374.535156 203.871094 374.757812 204.335938 374.964844 204.601562 C 375.035156 204.46875 375.230469 203.933594 375.378906 203.585938 Z M 375.378906 203.585938 " fill-opacity="1" fill-rule="nonzero"/></g></g></g></g><g clip-path="url(#784ff0b13c)"><g clip-path="url(#ac752b2ba0)"><g clip-path="url(#8093404b4a)"><g clip-path="url(#357ae90045)"><path stroke-linecap="round" transform="matrix(-0.0749576, 0.000755748, -0.000723397, -0.0717488, 394.530353, 213.44773)" fill="none" stroke-linejoin="round" d="M 252.18663 213.440371 C 247.727448 211.106779 244.065641 207.148285 242.025996 202.499113 C 240.037933 197.904928 239.620451 192.565079 240.91884 187.624408 " stroke="#335894" stroke-width="1.5" stroke-opacity="1" stroke-miterlimit="10"/></g></g></g></g><g clip-path="url(#eb2ea8350b)"><g clip-path="url(#015e036976)"><g clip-path="url(#d9ed06213a)"><g clip-path="url(#f137faee4b)"><path fill="#7ac2e2" d="M 379.949219 197.046875 C 380.207031 196.449219 380.757812 195.328125 381.070312 194.757812 C 381.710938 193.59375 382.183594 192.054688 381.15625 190.949219 C 380.414062 190.148438 378.980469 189.984375 377.996094 190.523438 C 376.835938 191.15625 376.675781 192.503906 377.058594 193.628906 C 377.355469 194.507812 377.914062 195.28125 378.347656 196.105469 C 378.539062 196.472656 378.636719 196.71875 378.824219 197.085938 C 378.972656 197.371094 379.234375 197.910156 379.46875 198.21875 C 379.550781 198.066406 379.78125 197.445312 379.949219 197.046875 Z M 379.949219 197.046875 " fill-opacity="1" fill-rule="nonzero"/></g></g></g></g><g clip-path="url(#9642792068)"><g clip-path="url(#71bc86a365)"><g clip-path="url(#95b0553f7d)"><g clip-path="url(#179e4e5a42)"><path stroke-linecap="round" transform="matrix(-0.0749576, 0.000755748, -0.000723397, -0.0717488, 394.530353, 213.44773)" fill="none" stroke-linejoin="round" d="M 217.476013 321.79819 C 233.037058 313.14227 235.354717 294.383716 230.399485 278.651827 C 226.557521 266.361598 219.210167 255.504416 213.537084 243.957107 C 211.0332 238.813055 209.76361 235.369749 207.311833 230.226246 " stroke="#335894" stroke-width="1.5" stroke-opacity="1" stroke-miterlimit="10"/></g></g></g></g><g clip-path="url(#3a0899075e)"><g clip-path="url(#95d4292e60)"><g clip-path="url(#a47843a1fd)"><g clip-path="url(#64dcf737e2)"><path stroke-linecap="round" transform="matrix(-0.0749576, 0.000755748, -0.000723397, -0.0717488, 394.530353, 213.44773)" fill="none" stroke-linejoin="round" d="M 190.023658 315.248039 C 184.838648 312.525698 180.661019 308.017337 178.315559 302.65718 C 175.970098 297.297023 175.508389 291.140058 176.969931 285.493341 " stroke="#335894" stroke-width="1.5" stroke-opacity="1" stroke-miterlimit="10"/></g></g></g></g><g clip-path="url(#c1bc3f8b34)"><g clip-path="url(#4185aa9849)"><g transform="matrix(1, 0, 0, 1, 305, 220)"><g clip-path="url(#f0e120cb6c)"><g clip-path="url(#9339a2a1b7)"><g clip-path="url(#015812a8cd)"><path fill="#ffffff" d="M 11.105469 18.335938 L 1.113281 18.4375 L 0.9375 0.875 L 10.929688 0.773438 Z M 11.105469 18.335938 " fill-opacity="1" fill-rule="nonzero"/></g></g></g></g></g></g><g clip-path="url(#8a698ef145)"><g clip-path="url(#a2b20ddfa4)"><g clip-path="url(#234bad603d)"><path stroke-linecap="butt" transform="matrix(-0.749775, 0.00755949, -0.00755949, -0.749775, 316.105738, 238.328069)" fill="none" stroke-linejoin="miter" d="M 0.000359401 -0.0000717074 L 13.311648 -0.00131992 L 13.310138 23.401504 L -0.00115075 23.402752 Z M 0.000359401 -0.0000717074 " stroke="#000000" stroke-width="6" stroke-opacity="1" stroke-miterlimit="4"/></g></g></g><g clip-path="url(#ea2d71a360)"><g clip-path="url(#d4d3c21e6c)"><g clip-path="url(#f566d65d89)"><g transform="matrix(1, 0, 0, 1, 300, 207)"><g clip-path="url(#58b8e378bc)"><g clip-path="url(#bf1faf32b4)"><g clip-path="url(#7a91aa27f0)"><g clip-path="url(#9a1f4d733a)"><path fill="#000000" d="M 21.316406 13.714844 L 0.566406 13.925781 L 0.4375 1.035156 L 21.183594 0.824219 Z M 21.316406 13.714844 " fill-opacity="1" fill-rule="nonzero"/></g></g></g></g></g></g></g></g><g clip-path="url(#979fea5b81)"><g clip-path="url(#a62c62384a)"><g clip-path="url(#914a97ea49)"><g clip-path="url(#921706a685)"><path fill="#7ac2e2" d="M 314.835938 206.230469 C 315.035156 205.769531 315.460938 204.902344 315.703125 204.460938 C 316.195312 203.5625 316.558594 202.375 315.769531 201.523438 C 315.195312 200.902344 314.085938 200.777344 313.328125 201.191406 C 312.429688 201.683594 312.308594 202.722656 312.601562 203.589844 C 312.832031 204.269531 313.265625 204.867188 313.601562 205.503906 C 313.746094 205.785156 313.824219 205.976562 313.96875 206.261719 C 314.082031 206.484375 314.28125 206.898438 314.464844 207.136719 C 314.527344 207.019531 314.703125 206.539062 314.835938 206.230469 Z M 314.835938 206.230469 " fill-opacity="1" fill-rule="nonzero"/></g></g></g></g><g clip-path="url(#73df1c6f2a)"><g clip-path="url(#1f6f03f201)"><g clip-path="url(#0f247bb99a)"><g clip-path="url(#3dd0c3a244)"><path stroke-linecap="round" transform="matrix(-0.0749576, 0.000755748, -0.000723397, -0.0717488, 326.541768, 214.133223)" fill="none" stroke-linejoin="round" d="M 174.523144 182.214939 C 186.574071 175.482009 188.329151 161.018556 184.537718 148.892189 C 181.554788 139.38762 175.851234 130.997706 171.456147 122.022697 " stroke="#335894" stroke-width="1.5" stroke-opacity="1" stroke-miterlimit="10"/></g></g></g></g><g clip-path="url(#5601d4a8fc)"><g clip-path="url(#6b07e8b8de)"><g clip-path="url(#0fa9c130b1)"><g clip-path="url(#2cfcd1299c)"><path stroke-linecap="round" transform="matrix(-0.0749576, 0.000755748, -0.000723397, -0.0717488, 326.541768, 214.133223)" fill="none" stroke-linejoin="round" d="M 153.362139 177.146584 C 149.369824 175.035684 146.120673 171.517083 144.284205 167.414486 C 142.500369 163.257999 142.129216 158.517515 143.265503 154.174014 " stroke="#335894" stroke-width="1.5" stroke-opacity="1" stroke-miterlimit="10"/></g></g></g></g><g clip-path="url(#2ff7cdc0e6)"><g clip-path="url(#6418018317)"><g clip-path="url(#0d269ef9e5)"><g clip-path="url(#266970e4a1)"><path fill="#7ac2e2" d="M 307.390625 204.273438 C 307.613281 203.753906 308.089844 202.785156 308.363281 202.289062 C 308.917969 201.28125 309.324219 199.945312 308.4375 198.988281 C 307.792969 198.296875 306.550781 198.15625 305.699219 198.621094 C 304.691406 199.167969 304.554688 200.339844 304.886719 201.3125 C 305.144531 202.074219 305.628906 202.742188 306.003906 203.457031 C 306.167969 203.773438 306.253906 203.988281 306.417969 204.304688 C 306.546875 204.554688 306.769531 205.019531 306.976562 205.285156 C 307.046875 205.15625 307.242188 204.617188 307.390625 204.273438 Z M 307.390625 204.273438 " fill-opacity="1" fill-rule="nonzero"/></g></g></g></g><g clip-path="url(#011ebf3629)"><g clip-path="url(#5c613a0248)"><g clip-path="url(#1b22137926)"><g clip-path="url(#1a00ecc6ee)"><path stroke-linecap="round" transform="matrix(-0.0749576, 0.000755748, -0.000723397, -0.0717488, 326.541768, 214.133223)" fill="none" stroke-linejoin="round" d="M 252.182321 213.466793 C 247.723664 211.078763 244.061331 207.174707 242.073794 202.526084 C 240.034149 197.876913 239.616667 192.537064 240.914531 187.65083 " stroke="#335894" stroke-width="1.5" stroke-opacity="1" stroke-miterlimit="10"/></g></g></g></g><g clip-path="url(#07c731bee7)"><g clip-path="url(#8adc9bf1af)"><g clip-path="url(#406993e764)"><g clip-path="url(#347ea1b1bf)"><path fill="#7ac2e2" d="M 311.960938 197.734375 C 312.21875 197.136719 312.769531 196.015625 313.082031 195.441406 C 313.722656 194.277344 314.195312 192.738281 313.167969 191.632812 C 312.425781 190.832031 310.992188 190.671875 310.007812 191.207031 C 308.847656 191.84375 308.6875 193.191406 309.070312 194.3125 C 309.367188 195.191406 309.925781 195.964844 310.359375 196.792969 C 310.550781 197.15625 310.648438 197.402344 310.835938 197.769531 C 310.984375 198.058594 311.246094 198.597656 311.480469 198.902344 C 311.5625 198.753906 311.789062 198.132812 311.960938 197.734375 Z M 311.960938 197.734375 " fill-opacity="1" fill-rule="nonzero"/></g></g></g></g><g clip-path="url(#4aaf14ada2)"><g clip-path="url(#a6e8243404)"><g clip-path="url(#14730e48b0)"><g clip-path="url(#5f1eb3ef46)"><path stroke-linecap="round" transform="matrix(-0.0749576, 0.000755748, -0.000723397, -0.0717488, 326.541768, 214.133223)" fill="none" stroke-linejoin="round" d="M 217.471704 321.824612 C 233.033273 313.114255 235.350933 294.3557 230.395176 278.678249 C 226.553211 266.38802 219.205858 255.530839 213.5333 243.929091 C 211.028891 238.839477 209.7593 235.396171 207.307524 230.252668 " stroke="#335894" stroke-width="1.5" stroke-opacity="1" stroke-miterlimit="10"/></g></g></g></g><g clip-path="url(#e04606a5f6)"><g clip-path="url(#e52666c46e)"><g clip-path="url(#cea5115618)"><g clip-path="url(#f4bf80b624)"><path stroke-linecap="round" transform="matrix(-0.0749576, 0.000755748, -0.000723397, -0.0717488, 326.541768, 214.133223)" fill="none" stroke-linejoin="round" d="M 190.019348 315.274461 C 184.834339 312.55212 180.657235 307.989321 178.311774 302.629164 C 175.966314 297.269008 175.504605 291.112042 176.966146 285.465325 " stroke="#335894" stroke-width="1.5" stroke-opacity="1" stroke-miterlimit="10"/></g></g></g></g></svg>