<svg xmlns="http://www.w3.org/2000/svg" xmlns:xlink="http://www.w3.org/1999/xlink" width="600" zoomAndPan="magnify" viewBox="0 0 450 449.999984" height="600" preserveAspectRatio="xMidYMid meet" version="1.0"><defs><clipPath id="56c4e6f8d1"><path d="M 23.25 0 L 426.75 0 C 439.589844 0 450 10.410156 450 23.25 L 450 426.75 C 450 439.589844 439.589844 450 426.75 450 L 23.25 450 C 10.410156 450 0 439.589844 0 426.75 L 0 23.25 C 0 10.410156 10.410156 0 23.25 0 Z M 23.25 0 " clip-rule="nonzero"/></clipPath><clipPath id="5eba16e7bb"><path d="M 0 0 L 450 0 L 450 450 L 0 450 Z M 0 0 " clip-rule="nonzero"/></clipPath><clipPath id="672da9f048"><path d="M 23.25 0 L 426.75 0 C 439.589844 0 450 10.410156 450 23.25 L 450 426.75 C 450 439.589844 439.589844 450 426.75 450 L 23.25 450 C 10.410156 450 0 439.589844 0 426.75 L 0 23.25 C 0 10.410156 10.410156 0 23.25 0 Z M 23.25 0 " clip-rule="nonzero"/></clipPath><clipPath id="7cd6a80bc5"><rect x="0" width="450" y="0" height="450"/></clipPath><clipPath id="e25e8ff21a"><path d="M 52.398438 78.03125 L 398 78.03125 L 398 274.242188 L 52.398438 274.242188 Z M 52.398438 78.03125 " clip-rule="nonzero"/></clipPath><clipPath id="2299c9a17e"><path d="M 75.648438 78.03125 L 374.351562 78.03125 C 387.191406 78.03125 397.601562 88.441406 397.601562 101.28125 L 397.601562 250.992188 C 397.601562 263.832031 387.191406 274.242188 374.351562 274.242188 L 75.648438 274.242188 C 62.808594 274.242188 52.398438 263.832031 52.398438 250.992188 L 52.398438 101.28125 C 52.398438 88.441406 62.808594 78.03125 75.648438 78.03125 Z M 75.648438 78.03125 " clip-rule="nonzero"/></clipPath><clipPath id="c6873e8860"><path d="M 0.398438 0.03125 L 345.679688 0.03125 L 345.679688 196.242188 L 0.398438 196.242188 Z M 0.398438 0.03125 " clip-rule="nonzero"/></clipPath><clipPath id="134f4b6269"><path d="M 23.648438 0.03125 L 322.351562 0.03125 C 335.191406 0.03125 345.601562 10.441406 345.601562 23.28125 L 345.601562 172.992188 C 345.601562 185.832031 335.191406 196.242188 322.351562 196.242188 L 23.648438 196.242188 C 10.808594 196.242188 0.398438 185.832031 0.398438 172.992188 L 0.398438 23.28125 C 0.398438 10.441406 10.808594 0.03125 23.648438 0.03125 Z M 23.648438 0.03125 " clip-rule="nonzero"/></clipPath><clipPath id="3863f866dd"><rect x="0" width="346" y="0" height="197"/></clipPath><clipPath id="d43b50e2ff"><path d="M 52.402344 78.03125 L 397.398438 78.03125 L 397.398438 274.53125 L 52.402344 274.53125 Z M 52.402344 78.03125 " clip-rule="nonzero"/></clipPath><clipPath id="fa634766f7"><path d="M 75.652344 78.03125 L 374.347656 78.03125 C 387.1875 78.03125 397.59375 88.441406 397.59375 101.28125 L 397.59375 250.988281 C 397.59375 263.828125 387.1875 274.238281 374.347656 274.238281 L 75.652344 274.238281 C 62.8125 274.238281 52.402344 263.828125 52.402344 250.988281 L 52.402344 101.28125 C 52.402344 88.441406 62.8125 78.03125 75.652344 78.03125 Z M 75.652344 78.03125 " clip-rule="nonzero"/></clipPath><clipPath id="9754aa6dbe"><path d="M 144.625 342.808594 L 195.632812 342.808594 L 195.632812 393.816406 L 144.625 393.816406 Z M 144.625 342.808594 " clip-rule="nonzero"/></clipPath><clipPath id="88648a393d"><path d="M 170.128906 342.808594 C 156.042969 342.808594 144.625 354.226562 144.625 368.3125 C 144.625 382.398438 156.042969 393.816406 170.128906 393.816406 C 184.214844 393.816406 195.632812 382.398438 195.632812 368.3125 C 195.632812 354.226562 184.214844 342.808594 170.128906 342.808594 Z M 170.128906 342.808594 " clip-rule="nonzero"/></clipPath><clipPath id="e1eacf31ad"><path d="M 0.625 0.808594 L 51.632812 0.808594 L 51.632812 51.816406 L 0.625 51.816406 Z M 0.625 0.808594 " clip-rule="nonzero"/></clipPath><clipPath id="2886c4b867"><path d="M 26.128906 0.808594 C 12.042969 0.808594 0.625 12.226562 0.625 26.3125 C 0.625 40.398438 12.042969 51.816406 26.128906 51.816406 C 40.214844 51.816406 51.632812 40.398438 51.632812 26.3125 C 51.632812 12.226562 40.214844 0.808594 26.128906 0.808594 Z M 26.128906 0.808594 " clip-rule="nonzero"/></clipPath><clipPath id="ab84bfc214"><rect x="0" width="52" y="0" height="52"/></clipPath><clipPath id="1efd9b8736"><path d="M 256.3125 342.808594 L 307.324219 342.808594 L 307.324219 393.816406 L 256.3125 393.816406 Z M 256.3125 342.808594 " clip-rule="nonzero"/></clipPath><clipPath id="64a89e9ce8"><path d="M 281.820312 342.808594 C 267.734375 342.808594 256.3125 354.226562 256.3125 368.3125 C 256.3125 382.398438 267.734375 393.816406 281.820312 393.816406 C 295.90625 393.816406 307.324219 382.398438 307.324219 368.3125 C 307.324219 354.226562 295.90625 342.808594 281.820312 342.808594 Z M 281.820312 342.808594 " clip-rule="nonzero"/></clipPath><clipPath id="636ca921f6"><path d="M 0.3125 0.808594 L 51.324219 0.808594 L 51.324219 51.816406 L 0.3125 51.816406 Z M 0.3125 0.808594 " clip-rule="nonzero"/></clipPath><clipPath id="2f49d7d470"><path d="M 25.820312 0.808594 C 11.734375 0.808594 0.3125 12.226562 0.3125 26.3125 C 0.3125 40.398438 11.734375 51.816406 25.820312 51.816406 C 39.90625 51.816406 51.324219 40.398438 51.324219 26.3125 C 51.324219 12.226562 39.90625 0.808594 25.820312 0.808594 Z M 25.820312 0.808594 " clip-rule="nonzero"/></clipPath><clipPath id="3f91c67bb4"><rect x="0" width="52" y="0" height="52"/></clipPath></defs><g clip-path="url(#56c4e6f8d1)"><g transform="matrix(1, 0, 0, 1, 0, 0)"><g clip-path="url(#7cd6a80bc5)"><g clip-path="url(#5eba16e7bb)"><g clip-path="url(#672da9f048)"><rect x="-99" width="648" fill="#d9d9d9" height="647.999977" y="-98.999996" fill-opacity="1"/></g></g></g></g><path stroke-linecap="butt" transform="matrix(0.75, 0, 0, 0.75, 0.00000815, 0)" fill="none" stroke-linejoin="miter" d="M 30.999992 0 L 569.000033 0 C 586.119826 0 600.000036 13.880209 600.000036 31.000002 L 600.000036 569.000044 C 600.000036 586.119837 586.119826 600.000047 569.000033 600.000047 L 30.999992 600.000047 C 13.880199 600.000047 -0.0000108667 586.119837 -0.0000108667 569.000044 L -0.0000108667 31.000002 C -0.0000108667 13.880209 13.880199 0 30.999992 0 Z M 30.999992 0 " stroke="#000000" stroke-width="40" stroke-opacity="1" stroke-miterlimit="4"/></g><g clip-path="url(#e25e8ff21a)"><g clip-path="url(#2299c9a17e)"><g transform="matrix(1, 0, 0, 1, 52, 78)"><g clip-path="url(#3863f866dd)"><g clip-path="url(#c6873e8860)"><g clip-path="url(#134f4b6269)"><path fill="#ffffff" d="M 0.398438 0.03125 L 345.300781 0.03125 L 345.300781 196.242188 L 0.398438 196.242188 Z M 0.398438 0.03125 " fill-opacity="1" fill-rule="nonzero"/></g></g></g></g></g></g><g clip-path="url(#d43b50e2ff)"><g clip-path="url(#fa634766f7)"><path stroke-linecap="butt" transform="matrix(0.75, 0, 0, 0.75, 52.401789, 78.03104)" fill="none" stroke-linejoin="miter" d="M 31.000742 0.00027957 L 429.26119 0.00027957 C 446.380983 0.00027957 460.255984 13.880489 460.255984 31.000282 L 460.255984 230.609673 C 460.255984 247.729466 446.380983 261.609675 429.26119 261.609675 L 31.000742 261.609675 C 13.880949 261.609675 0.000739842 247.729466 0.000739842 230.609673 L 0.000739842 31.000282 C 0.000739842 13.880489 13.880949 0.00027957 31.000742 0.00027957 Z M 31.000742 0.00027957 " stroke="#000000" stroke-width="40" stroke-opacity="1" stroke-miterlimit="4"/></g></g><g clip-path="url(#9754aa6dbe)"><g clip-path="url(#88648a393d)"><g transform="matrix(1, 0, 0, 1, 144, 342)"><g clip-path="url(#ab84bfc214)"><g clip-path="url(#e1eacf31ad)"><g clip-path="url(#2886c4b867)"><path fill="#000000" d="M 0.625 0.808594 L 51.632812 0.808594 L 51.632812 51.816406 L 0.625 51.816406 Z M 0.625 0.808594 " fill-opacity="1" fill-rule="nonzero"/></g></g></g></g></g></g><g clip-path="url(#1efd9b8736)"><g clip-path="url(#64a89e9ce8)"><g transform="matrix(1, 0, 0, 1, 256, 342)"><g clip-path="url(#3f91c67bb4)"><g clip-path="url(#636ca921f6)"><g clip-path="url(#2f49d7d470)"><path fill="#000000" d="M 0.3125 0.808594 L 51.324219 0.808594 L 51.324219 51.816406 L 0.3125 51.816406 Z M 0.3125 0.808594 " fill-opacity="1" fill-rule="nonzero"/></g></g></g></g></g></g><path fill="#000000" d="M 52.398438 168.636719 L 142.398438 168.636719 L 142.398438 183.636719 L 52.398438 183.636719 M 157.398438 168.636719 L 247.398438 168.636719 L 247.398438 183.636719 L 157.398438 183.636719 M 262.398438 168.636719 L 352.398438 168.636719 L 352.398438 183.636719 L 262.398438 183.636719 M 367.398438 168.636719 L 397.601562 168.636719 L 397.601562 183.636719 L 367.398438 183.636719 " fill-opacity="1" fill-rule="nonzero"/></svg>