<svg xmlns="http://www.w3.org/2000/svg" xmlns:xlink="http://www.w3.org/1999/xlink" width="600" zoomAndPan="magnify" viewBox="0 0 450 675.000002" height="900" preserveAspectRatio="xMidYMid meet" version="1.0"><defs><clipPath id="f0648219f1"><path d="M 0.332031 0 L 449.667969 0 L 449.667969 449.335938 L 0.332031 449.335938 Z M 0.332031 0 " clip-rule="nonzero"/></clipPath><clipPath id="115906fd5b"><path d="M 225 0 C 100.917969 0 0.332031 100.585938 0.332031 224.667969 C 0.332031 348.746094 100.917969 449.335938 225 449.335938 C 349.082031 449.335938 449.667969 348.746094 449.667969 224.667969 C 449.667969 100.585938 349.082031 0 225 0 Z M 225 0 " clip-rule="nonzero"/></clipPath><clipPath id="8467a603b2"><path d="M 0.332031 0 L 449.667969 0 L 449.667969 449.335938 L 0.332031 449.335938 Z M 0.332031 0 " clip-rule="nonzero"/></clipPath><clipPath id="de4fd5f8a9"><path d="M 225 0 C 100.917969 0 0.332031 100.585938 0.332031 224.667969 C 0.332031 348.746094 100.917969 449.335938 225 449.335938 C 349.082031 449.335938 449.667969 348.746094 449.667969 224.667969 C 449.667969 100.585938 349.082031 0 225 0 Z M 225 0 " clip-rule="nonzero"/></clipPath><clipPath id="3287ea4c01"><rect x="0" width="450" y="0" height="450"/></clipPath><clipPath id="5b4ef550eb"><path d="M 0.332031 224.667969 L 449.667969 224.667969 L 449.667969 674 L 0.332031 674 Z M 0.332031 224.667969 " clip-rule="nonzero"/></clipPath><clipPath id="4056003c9a"><path d="M 225 224.667969 C 100.917969 224.667969 0.332031 325.253906 0.332031 449.335938 C 0.332031 573.414062 100.917969 674 225 674 C 349.082031 674 449.667969 573.414062 449.667969 449.335938 C 449.667969 325.253906 349.082031 224.667969 225 224.667969 Z M 225 224.667969 " clip-rule="nonzero"/></clipPath><clipPath id="779fd842e4"><path d="M 0.332031 0.667969 L 449.667969 0.667969 L 449.667969 450 L 0.332031 450 Z M 0.332031 0.667969 " clip-rule="nonzero"/></clipPath><clipPath id="9e2dc03836"><path d="M 225 0.667969 C 100.917969 0.667969 0.332031 101.253906 0.332031 225.335938 C 0.332031 349.414062 100.917969 450 225 450 C 349.082031 450 449.667969 349.414062 449.667969 225.335938 C 449.667969 101.253906 349.082031 0.667969 225 0.667969 Z M 225 0.667969 " clip-rule="nonzero"/></clipPath><clipPath id="86fb2146ef"><rect x="0" width="450" y="0" height="450"/></clipPath><clipPath id="e8ef4e7a34"><path d="M 0.332031 0 L 449.667969 0 L 449.667969 449.335938 L 0.332031 449.335938 Z M 0.332031 0 " clip-rule="nonzero"/></clipPath><clipPath id="792adb2486"><path d="M 225 0 C 100.917969 0 0.332031 100.585938 0.332031 224.667969 C 0.332031 348.746094 100.917969 449.335938 225 449.335938 C 349.082031 449.335938 449.667969 348.746094 449.667969 224.667969 C 449.667969 100.585938 349.082031 0 225 0 Z M 225 0 " clip-rule="nonzero"/></clipPath><clipPath id="aec0f45ca6"><path d="M 0.332031 224.667969 L 449.667969 224.667969 L 449.667969 674 L 0.332031 674 Z M 0.332031 224.667969 " clip-rule="nonzero"/></clipPath><clipPath id="62e50f58f0"><path d="M 225 224.667969 C 100.917969 224.667969 0.332031 325.253906 0.332031 449.335938 C 0.332031 573.414062 100.917969 674 225 674 C 349.082031 674 449.667969 573.414062 449.667969 449.335938 C 449.667969 325.253906 349.082031 224.667969 225 224.667969 Z M 225 224.667969 " clip-rule="nonzero"/></clipPath></defs><g clip-path="url(#f0648219f1)"><g clip-path="url(#115906fd5b)"><g transform="matrix(1, 0, 0, 1, 0.000000000000000056, -0.000000000000005375)"><g clip-path="url(#3287ea4c01)"><g clip-path="url(#8467a603b2)"><g clip-path="url(#de4fd5f8a9)"><path fill="#d9d9d9" d="M 0.332031 0 L 449.667969 0 L 449.667969 449.335938 L 0.332031 449.335938 Z M 0.332031 0 " fill-opacity="1" fill-rule="nonzero"/></g></g></g></g></g></g><g clip-path="url(#5b4ef550eb)"><g clip-path="url(#4056003c9a)"><g transform="matrix(1, 0, 0, 1, 0.000000000000000056, 224)"><g clip-path="url(#86fb2146ef)"><g clip-path="url(#779fd842e4)"><g clip-path="url(#9e2dc03836)"><path fill="#d9d9d9" d="M 0.332031 0.667969 L 449.667969 0.667969 L 449.667969 450 L 0.332031 450 Z M 0.332031 0.667969 " fill-opacity="1" fill-rule="nonzero"/></g></g></g></g></g></g><g clip-path="url(#e8ef4e7a34)"><g clip-path="url(#792adb2486)"><path stroke-linecap="butt" transform="matrix(0.748891, 0, 0, 0.748891, 0.33284, 0.0000199704)" fill="none" stroke-linejoin="miter" d="M 300.000013 -0.0000266667 C 134.312197 -0.0000266667 -0.00107936 134.31325 -0.00107936 300.001065 C -0.00107936 465.683664 134.312197 600.002157 300.000013 600.002157 C 465.687828 600.002157 600.001104 465.683664 600.001104 300.001065 C 600.001104 134.31325 465.687828 -0.0000266667 300.000013 -0.0000266667 Z M 300.000013 -0.0000266667 " stroke="#000000" stroke-width="40" stroke-opacity="1" stroke-miterlimit="4"/></g></g><g clip-path="url(#aec0f45ca6)"><g clip-path="url(#62e50f58f0)"><path stroke-linecap="butt" transform="matrix(0.748891, 0, 0, 0.748891, 0.33284, 224.667171)" fill="none" stroke-linejoin="miter" d="M 300.000013 0.00106519 C 134.312197 0.00106519 -0.00107936 134.314342 -0.00107936 300.002157 C -0.00107936 465.684756 134.312197 599.998033 300.000013 599.998033 C 465.687828 599.998033 600.001104 465.684756 600.001104 300.002157 C 600.001104 134.314342 465.687828 0.00106519 300.000013 0.00106519 Z M 300.000013 0.00106519 " stroke="#000000" stroke-width="40" stroke-opacity="1" stroke-miterlimit="4"/></g></g></svg>